<?xml version="1.0" encoding="utf-8"?>
<!-- Generator: Adobe Illustrator 19.1.1, SVG Export Plug-In . SVG Version: 6.00 Build 0)  -->
<svg version="1.1" id="Layer_1" xmlns="http://www.w3.org/2000/svg" xmlns:xlink="http://www.w3.org/1999/xlink" x="0px" y="0px"
	 viewBox="0 0 2523 2312" style="enable-background:new 0 0 2523 2312;" xml:space="preserve">
<style type="text/css">
	.st0{fill:#FFFFFF;}
</style>
<path class="st0" d="M2526,2314c-841.3,0-1682.7,0-2524,0C2,1543.3,2,772.7,2,2c841.3,0,1682.7,0,2524,0
	C2526,772.7,2526,1543.3,2526,2314z M2006.7,1051.3c0.6-3.5,1-6.4,1.6-9.2c19.5-88.7,31.9-178.4,35-269.1
	c2.9-84.6,2.3-169.2-6.8-253.5c-1.2-10.9-6.7-16.9-15.7-20.8c-105.3-45-213.6-80.8-325.2-106.4c-71.8-16.5-144.2-29.4-217.6-36.4
	c-39.8-3.8-79.7-7.4-119.6-9.3c-80.3-3.8-160.6-3.4-240.8,3.4c-46.1,3.9-92.3,8.1-138.1,15c-48.7,7.3-97.1,16.8-145.2,27.4
	c-88.3,19.3-174.5,45.8-258.3,79.8c-22.5,9.1-44.5,19.5-66.8,29.3c-11.6,5.1-17.7,13.2-18.8,26.6c-4,47.5-7.3,95-7.9,142.7
	c-0.6,51,0,102,4,152.9c2.7,34.5,5.7,69.1,10.6,103.4c5.6,38.5,13.5,76.7,20.4,115c0.3,1.9,0,3.9,0,6c-3.5,1.4-7,2.6-10.4,4
	c-42,17-83.9,34.2-125.9,51.1c-6.5,2.6-8.9,6.3-9,13.4c-0.3,24.8,2.6,49.2,6.8,73.5c1.6,9.4,3.5,18.7,5,27.2
	c-37.1,14.7-73.1,28.5-108.8,43.2c-35.5,14.6-70.8,30-106.6,46.7c3.1,3.7,5.1,6.3,7.3,8.7c28.8,31.9,57.5,64,86.6,95.6
	c5.5,5.9,6.3,11.1,4.6,18.7c-13.7,59-27,118.1-40.3,177.2c-0.5,2.1-0.1,4.3-0.1,7.2c3.1-1.1,5.7-1.8,8-2.8
	c26.3-11.4,52.4-23.2,78.8-34.3c88.3-37.5,177-73.8,268.3-103.6c1.6-0.5,3.6-0.7,4.6-1.8c1.3-1.5,2.4-3.8,2.5-5.8
	c0.1-1.8-1.2-3.8-1.8-5.6c-11.4-31.7-22.7-63.3-34.1-95c-1.2-3.3-2.3-6.7-3.7-10.8c21.4-8,41.8-15.6,63-23.4
	c4.1,8.9,7.7,16.7,11.3,24.6c25.9,56.8,55.4,111.6,88.8,164.3c21.8,34.3,45.3,67.5,68.3,101c3.3,4.8,3.9,8.7,1.9,13.8
	c-2.2,5.6-3.6,11.5-5.8,17c-3.4,8.5-3.8,17.3-4.6,26.4c-1,11.3,3,19.4,11.7,25.6c2.5,1.8,5.8,3.4,8.8,3.6c13,0.8,26,0.8,38-5.7
	c2.8-1.5,6.2-2.1,8.8-3c35.2,38.9,69.9,77.3,104.5,115.6c-0.7,0.7-1,1.4-1.6,1.6c-1.5,0.7-3.1,1.2-4.7,1.8
	c-14,5.2-28.1,3.6-42.4,0.9c-39.7-7.6-75.2-23.9-102.1-54.6c-11.5-13.1-24.4-12.3-38.6-11.8c-1.2,0-2.8,0.5-3.6,1.4
	c-6.5,6.5-13.7,12.1-16.7,21.8c-13.8,43.5-28,86.9-42.7,130.1c-4,11.8-2.9,23.7-3.1,35.6c0,1.8,1,4,2.3,5.2c6,5.7,11.7,12,18.6,16.6
	c30,20,62.7,33.8,97.9,41.7c55,12.3,110.5,11.7,166.1,4.7c47.1-5.9,90.7-21.3,129.6-48.9c0.5-0.3,1.3-0.3,2.6-0.6
	c3.3,2.6,6.9,5.4,10.6,8.3c39.3,31,80,60,122.6,86.2c13.5,8.3,26.6,8.1,40.1-0.3c58.5-36.2,113.9-76.6,166.9-120.4
	c2.2-1.8,4.6-3.4,7.5-5.4c7.2,12.5,14.3,24.2,20.7,36.2c4.3,8.1,10.2,14.7,16.6,21.1c3.4,3.3,6.9,4.6,11.5,4.6
	c71.7-0.1,143.3-0.1,215-0.1c6.2,0,20.5-10.2,20.7-16.1c0.4-12.3,2.5-24.6-5.2-36.6c-34.5-53.9-68.2-108.3-102.1-162.5
	c-2.1-3.3-4-6.8-6.2-10.6c118.3-128.1,214.7-270.4,286.6-429.7c18.3,6.9,36,13.6,54.5,20.5c-7.1,19.8-14,38.9-20.7,58
	c-6.6,19-14.3,37.7-20.2,57.9c124.5,41.2,243.9,91.8,364.7,144.9c-1-5.8-1.5-9.3-2.3-12.7c-13.2-58.5-26.3-116.9-39.8-175.3
	c-1.5-6.5,0-10.4,4.1-15c29.2-32,58.2-64.2,87.2-96.4c2.4-2.6,4.6-5.4,7.8-9.3c-71.8-32.3-142.7-63.3-215.4-88.8
	c3.1-19.1,6.1-37.1,8.9-55.1c2.9-18.5,2.6-37.1,2-55.9C2097.6,1086,2052.2,1068.7,2006.7,1051.3z M1484.1,297.1
	c6.3,0.7,11.8,1.4,18.1,2.1c1.2-8,2.4-15.3,3.5-22.6c5.2,6.7,8.7,13.4,11.9,20.3c1.4,2.9,3,4.8,6.5,5.2c11.2,1.4,22.3,3.3,33.7,4.9
	c2.6-3.8,4.9-7.4,7.7-11.4c8.1,1.4,16.2,2.8,23.6,4.1c1.4,5.1,2.4,8.9,3.5,13c5.9,0.8,11.3,1.6,18.3,2.6
	c-5.1-25.8-9.9-50.4-14.7-74.8c-7.3-1.1-13.1-1.9-19.3-2.8c-11.9,21.1-23.6,41.7-36,63.7c-5.8-9.9-10.6-18.1-15.7-26.9
	c3.1-1.5,5.5-2.5,7.7-3.9c13.4-8.6,12.7-31.6-1.6-38.3c-11.9-5.5-25-4.9-38.2-6.5C1490,250.3,1487.1,273.3,1484.1,297.1z
	 M317.3,494.3c-19.5-17.5-38-34.1-56.8-51c-5.9,3.2-11.4,6.1-17.3,9.3c2.9,21.9,5.7,43.3,8.8,66.4c-4.4-4.7-7.9-3.7-11.6-0.9
	c-3.4,2.5-7.3,4.5-11.7,7.2c-10-16.1-19.5-31.6-29.4-47.5c-5.5,3.4-10.2,6.3-15.6,9.6c12.7,20.7,25,40.7,37.5,61
	c16.9-10.2,32.8-19.7,48.7-29.3c-0.3-4.4-0.6-8.3-0.9-12.9c7.1-3.8,14-7.5,21-11.3c4,3,7.4,5.5,11.1,8.2
	C306.2,500.3,311.1,497.6,317.3,494.3z M2199.2,464.6c0.7,0.1,1.4,0.3,2.1,0.4c0.3,1.2,0.7,2.4,0.9,3.6c2.6,14.1,5.3,28.1,7.6,42.2
	c0.7,4.1,2.4,6.6,6.2,8.1c3.9,1.6,7.6,3.5,11.9,5.6c11-22.3,21.6-43.6,32.4-65.4c-5.9-2.9-10.8-5.4-16.2-8.1
	c-8.3,11.8-11.7,25.5-20.8,37.5c-0.7-2.7-1-3.9-1.3-5.1c-2.6-14.1-5.3-28.1-7.6-42.2c-0.7-4.1-2.4-6.6-6.1-8.1
	c-3.9-1.6-7.6-3.6-11.9-5.7c-11,22.3-21.6,43.6-32.5,65.7c6.1,2.8,11.4,5.3,17,7.9c3.5-7,6.4-12.9,9.4-18.8
	C2193.2,476.4,2196.2,470.5,2199.2,464.6z M818.3,299.9c0.1-22.5-14.9-38.2-36.8-38.5c-22.2-0.3-40.2,16.3-40.1,37
	c0.1,21.6,16.6,38.8,37.3,38.8C801.3,337.3,818.2,321.3,818.3,299.9z M1169,270.2c3.9-5.1,6.3-8.2,9.1-12c-3.3-2.9-6.4-5.7-10.1-8.8
	c-2.9,3.8-5.3,6.9-7.8,10c-3.7-3.7-6.3-6.3-9-8.9c11.6-11.1,13.6-20,6.8-28.8c-6.8-8.8-22.1-11-31.6-3.9c-3.5,2.6-6.4,6.8-8,10.9
	c-2.7,7.2,1.3,13.4,6,19.2c-3.4,2.4-6.1,4.3-8.7,6.3c-4.5,3.5-6.7,8.2-7,13.8c-0.6,12.8,10.6,23,24.5,21c8-1.2,15.7-4.8,24.6-7.7
	c6.6,8,15.9,4,26.9,2.6C1178.8,278.7,1174.1,274.6,1169,270.2z M621.1,376c10.3-3,19.4-5.1,28.1-8.4c16.8-6.4,25.3-23.7,21-41.5
	c-4.1-17.3-19.8-29.8-36.5-27.6c-10.7,1.4-21.1,5.1-32.3,8C608.1,330.2,614.4,352.5,621.1,376z M384.8,463.3
	c6.2-2.8,11.4-5.2,16.6-7.6c-2.9-7.7-5.4-14.3-7.9-20.9c7.7,3,13.7,7.2,19.8,11.1c2.1,1.3,5.2,2.5,7.2,1.9
	c5.6-1.7,10.8-4.3,18.1-7.5c-11.1-6.4-20.4-11.8-30-17.3c1.6-2.3,2.6-3.6,3.5-4.9c5.9-8.7,3.6-17.1-1.3-25.3
	c-4.7-7.8-12.2-10.5-20.6-8.7c-11.7,2.4-22.1,8-33.4,13.3C366.4,419.8,375.4,441.1,384.8,463.3z M1811.3,333.7
	c3,9.4,5.1,16.6,7.6,23.7c0.8,2.4,2,5.7,3.9,6.4c5.9,2.2,11.8,5.1,19.2,4.3c-4.2-10.6-8.1-20.4-12.1-30.7c2.9-0.8,5.2-1.1,7.3-2
	c8.2-3.4,11.9-10.1,13.2-18.6c1.2-8.3-1.3-15.1-8.3-20c-6-4.2-28.7-10.6-37.3-10.2c-6.1,22.1-12.3,44.3-18.6,67.3
	c6.4,1.7,11.7,3.1,17.6,4.7C1806.2,350.6,1808.4,343.4,1811.3,333.7z M1463.5,267.9c2.9-1.4,4.7-2.1,6.4-3.1
	c8.9-5.4,10.8-13.9,9.9-23.3c-0.8-8.6-6.1-14.1-14-16.4c-11.4-3.4-23.3-3.6-35.7-3.9c-2.3,23.8-4.5,46.8-6.7,70.5
	c6.6,0.7,12,1.3,17.8,2c1.1-8.3,2.1-15.7,3.4-25.7c4.6,8.7,7.9,15.4,11.7,21.9c1.4,2.3,3.7,5.2,6,5.7c5.6,1.2,11.5,1.1,19,1.7
	C1475,286.7,1469.5,277.7,1463.5,267.9z M1217.8,212.7c0,24.1,0,47.5,0,70.9c6.2,0,11.7,0,18.2,0c0-7.8,0-14.8,0-21.9
	c5.9,5.5,9.7,11.6,13.8,17.4c1.4,2,3.6,4.6,5.6,4.8c6,0.6,12.1,0.1,20,0c-7.7-10.1-14.1-18.4-20.4-26.8c1.6-1.3,2.3-2,3.1-2.5
	c9.7-6.6,12.8-14.2,10.3-25.7c-2.1-9.3-8-15-19.2-16C1239,212,1228.7,212.7,1217.8,212.7z M289.8,428.2c3.3,7.1,5.9,13.1,8.9,19.1
	c4.5,9.3,8.6,18.8,14,27.6c6.8,11.1,17.7,13.6,31.7,8.9c14.6-4.9,23.9-16,23.3-27.8c-0.1-2-0.4-4.1-1.1-5.8
	c-6.9-15.8-13.9-31.6-21.1-48c-6.1,2.9-11.1,5.3-16.9,8.1c2.5,5.3,4.5,9.8,6.6,14.3c4,8.8,8.5,17.4,12,26.3c3,7.6,0.8,13.3-5.2,16.2
	c-6.2,3-11.9,1.4-15.9-5.8c-5.3-9.6-9.7-19.7-14.5-29.6c-1.7-3.5-3.5-6.9-5.5-10.9C300.5,423.3,295.7,425.5,289.8,428.2z
	 M919.5,236.4c-6.4,0.9-12.5,1.9-19.5,2.9c-5.1,24.7-10.2,49.3-15.6,75.2c7.5-1.3,13.2-2.2,18.5-3.1c1.4-4.8,2.5-8.6,3.7-12.9
	c8.2-1.2,16.3-2.4,23.8-3.5c2.8,4.5,4.9,7.8,7.2,11.4c5.9-1,11.5-1.8,18.4-3C943.7,280.7,931.8,258.9,919.5,236.4z M570.7,317
	c-6.7,2.2-12.5,4.2-18.7,6.2c-1.2,25.4-2.4,50.1-3.7,76.3c7.1-2.4,12.6-4.3,17.6-6c0.7-5,1.3-8.9,2-13.4c7.6-2.4,15.1-4.8,22.6-7.2
	c3.2,3.6,5.8,6.6,8.9,10.1c5.5-1.8,11-3.6,17.8-5.8C601.4,356.8,586.5,337.4,570.7,317z M2103.8,392.7c-4.2-7.1-10.6-11.1-17.6-14.1
	c-12-5.1-23.4-1.7-29.7,8.4c-6.9,11.1-5.3,18.6,6.2,28.5c2.5,2.2,5.5,4,7.4,6.6c1.3,1.8,2.1,5.4,1.2,7.1c-0.9,1.7-4.6,3.4-6.5,3
	c-3.7-0.9-7.2-2.9-10.3-5.2c-2.5-1.8-4.2-4.7-6.6-7.5c-4.3,3.6-8.1,6.7-11.7,9.7c7,11.9,17.9,19.2,29.8,20.3
	c11.2,1.1,19.6-4.1,24.3-15.1c4.1-9.6,2.1-16.5-7.1-24.5c-2.5-2.2-5.2-4.1-7.6-6.5c-2.1-2.1-4.8-5-2-7.6c1.8-1.6,5.8-2.6,7.9-1.7
	c4.2,1.7,7.7,4.8,11.9,7.6c1.2-0.9,2.8-2,4.3-3.3C2099.7,396.6,2101.6,394.8,2103.8,392.7z M1744.7,275.7
	c-7.7-7.1-15-10.7-22.7-11.6c-11.8-1.4-21.6,4.5-25.3,15.1c-4,11.4-1,18.6,10.7,25.7c2.8,1.7,5.8,3.3,8.5,5.2c2.6,1.8,5,4.4,2.9,7.5
	c-1.5,2.1-4.7,4.2-7.1,4.1c-3.4-0.1-6.9-1.9-10-3.7c-2.5-1.4-4.5-3.8-7.4-6.4c-3.5,4.1-6.9,8-10.7,12.4c9.4,9.5,19.7,14.7,32.5,14
	c11.7-0.7,19.1-7.1,21.8-18.5c2.6-11-0.4-17.3-11.4-23.8c-3.1-1.9-6.5-3.5-9.2-5.9c-1.4-1.3-2.7-4.3-2.2-5.8
	c0.6-1.7,3.3-3.4,5.2-3.6c2.5-0.3,5.2,0.7,7.6,1.7c2.6,1.1,4.9,2.9,7.8,4.6C1738.9,282.9,1741.6,279.6,1744.7,275.7z M1881.6,349.1
	c-0.7-0.1-1.5-0.2-2.2-0.2c-1.1-14.5-2.2-29-3.3-43.7c-6.2-1.9-11.7-3.5-18.5-5.6c2.3,26.9,4.5,52,6.6,76.5
	c12.9,5.3,13,5.3,20.8-4.1c11.9-14.4,23.8-28.7,35.7-43.1c1.8-2.2,3.5-4.7,5.9-8c-6.5-2-12.1-3.7-18.1-5.5
	C1899.4,326.9,1890.5,338,1881.6,349.1z M709,320c-0.7,0.3-1.4,0.6-2.1,0.9c-8.4-11.8-16.7-23.7-25-35.4c-4,1-6.9,1.6-9.8,2.4
	c-2.7,0.8-5.3,1.7-8.7,2.9c15.6,21.4,30.5,41.7,45.3,62c5.2-1.4,9.3-2.5,13.5-3.6c3.6-25.6,8.1-50.2,10.8-76.4
	c-7.1,1.7-12.5,3.1-18.2,4.5C712.8,291.8,710.9,305.9,709,320z M2041.9,392.8c-6.3-2.7-12.1-5.2-18.5-8c1.4-3.6,2.6-6.9,4-10.7
	c7,2.5,13.2,4.7,20.1,7.3c1.9-5.1,3.5-9.6,5.3-14.6c-12.7-4.9-24.4-9.4-37.1-14.3c-8.7,22.6-17.1,44.4-25.9,67.1
	c12.7,4.9,24.7,9.6,37.4,14.5c2-5.2,3.7-9.7,5.6-14.5c-7.2-3-13.2-5.5-19.8-8.2c1.8-4.3,3.2-7.5,4.7-11.2c6.5,2.4,12.3,4.5,18.8,6.8
	C2038.5,401.7,2040.1,397.5,2041.9,392.8z M1380.3,216.3c-1.3,24.3-4.3,47.6-4.3,71.6c13.5,0.9,26,1.8,39.2,2.7c0-5.9,0-10.3,0-15.4
	c-6.7-0.7-13.2-1.3-20.3-2c0.4-4.4,0.8-7.9,1.1-11.6c3.6,0,6.6,0,9.5,0c3.2,0,6.4,0,10.3,0c0.3-5.3,0.6-9.8,0.8-14.7
	c-3.8-0.4-6.8-0.7-9.7-1c-3.2-0.4-6.3-0.7-10.1-1.2c0.6-4.3,1-7.4,1.4-11c7.2,0,13.7,0,20.9,0c0-5.1,0-9.5,0-14.7
	C1406.2,218,1393.8,217.2,1380.3,216.3z M2293.2,534.8c-16.6-0.4-24.3-5-26.6-14.9c-2-8.6,3.2-19.7,11.8-23.1
	c3.5-1.4,7.8-1.7,11.6-1.2c7.7,1.1,12.2,6.9,16.2,15c3.9-7.3,6.9-13,9.8-18.4c-13.4-15.8-30.4-19.9-46.9-11.9
	c-16,7.7-24.8,26-20.8,43.3c4,17.3,21.1,30.1,35.9,28.3C2286.7,546.8,2289.7,541.4,2293.2,534.8z M414.7,372.5
	c8.9,22.8,17.3,44.4,26.1,66.9c12.7-5,24.6-9.7,37.2-14.6c-2.3-5.4-4.2-9.8-6-14.2c-7.2,2.5-13.3,4.7-20,7.1
	c-1.5-4.3-2.6-7.6-3.9-11.2c6.3-2.8,12-5.3,18.3-8.1c-1.9-4.8-3.6-9.1-5.5-13.8c-6.4,2.2-12.3,4.1-19,6.4c-1.4-3.7-2.6-6.9-3.9-10.3
	c6.9-3,12.8-5.6,19.5-8.5c-2.2-5.2-4.1-9.5-6-14.1C438.9,363,427.5,367.5,414.7,372.5z M1770.6,293.3c7.3,1.5,13.7,2.9,20.9,4.4
	c1.1-5.1,2.1-9.7,3.2-14.9c-13.2-3.3-25.3-6.3-38.2-9.5c-6,23.8-12.2,46.3-17.1,69.7c13.3,3.3,25.4,6.3,38.1,9.4
	c1.3-5.3,2.4-9.7,3.7-14.6c-7-2.1-13.2-4-20.2-6.1c1.1-4.3,2.1-7.9,3.1-11.7c7.1,1.5,13.1,2.8,19.5,4.2c1.3-5.5,2.3-9.9,3.4-14.6
	c-7-2-12.9-3.8-19.2-5.6C1768.9,300.3,1769.6,297.5,1770.6,293.3z M1003.7,248.2c-0.9-6.8-1.8-13.2-2.6-19.2
	c-20.4-5-36.5,1.8-44.8,18.3c-7.8,15.5-4.2,34.6,8.7,45.6c13,11.2,30.4,12.2,44.4,2.3c-0.8-5.8-1.6-11.8-2.4-18.3
	c-14.3,8.7-22.7,9.1-30,1.9c-6.3-6.2-7.6-17.3-3.1-25C979,244.8,987,243.2,1003.7,248.2z M1319,284.9c0-5.2,0-9.6,0-14.5
	c-7.1-0.4-13.6-0.8-20.2-1.2c0-4.2,0-7.7,0-12.1c6.8,0,12.9,0,19.6,0c0-5.4,0-9.9,0-14.9c-6.4-0.4-12.6-0.9-19.6-1.3
	c0.2-4.3,0.4-7.8,0.7-12c7.4,0,13.9,0,20.7,0c0-5.3,0-9.8,0-15.2c-13,0-25.5,0-38.9,0c-1.2,23.7-1.3,47.1-1.5,71.3
	C1293.3,284.9,1305.6,284.9,1319,284.9z M871.2,266.3c0.7-19.6-5.7-24.7-23.9-18.5c-14.7,5-23.1,15.8-24.9,30.8
	c-1.8,14.9,3.3,27.7,16.4,36.1c13.6,8.7,27.5,8.1,42-0.6c-1.1-6.4-2.2-12.7-3.4-19.4c-13.4,9.5-22.1,10.4-29.8,3.9
	c-7-6-9-17.2-4.4-25.5C848.2,264.2,856.8,262.1,871.2,266.3z M2004.9,351.5c-14-14.8-34.2-13.7-46.6-5.3
	c-13.9,9.4-20.4,27.6-15,43.1c5.9,16.9,20.8,26.3,39.6,24.4c1.8-5.4,3.7-11.1,5.7-17.3c-16.3,1.1-23.5-2.1-27.2-11.3
	c-3.1-7.8-0.3-18.1,6.9-23.2c12.3-8.6,21.4-1.5,30.2,7.9C2001,362.8,2002.9,357.2,2004.9,351.5z M1074.1,219.7
	c-6.1,0.5-10.4,0.9-14.6,1c-5.3,0.1-8.5,2.5-10.7,7.3c-2,4.5-4.7,8.6-7.4,13.5c-2.2-2.4-4.2-3.9-5.3-5.8
	c-5.9-10.5-14.4-13.8-25.8-10.1c-1.1,0.4-2.3,0.6-4.7,1.1c5.9,7.2,10.5,14.1,16.4,19.8c9.8,9.4,13.6,20.6,13.7,33.8
	c0,4.8,1,9.5,1.5,14.8c6.7-0.6,12.1-1.1,17.8-1.6c-0.6-8-0.3-14.7-1.7-21.1c-2.2-9.6,0.5-17.4,5.4-25.3
	C1064.1,238.7,1068.5,229.9,1074.1,219.7z M1330.4,213.7c0.2,25-3.4,48.3-2.1,72c6.3,0,11.4,0,17.2,0c0.6-9.2,1.3-18,1.9-27.1
	c7.1,0,12.9,0,19.4,0c0.3-5,0.6-9.4,0.9-14.2c-7.1-0.8-13.2-1.5-19.8-2.3c0.4-4.5,0.7-7.9,1-11.5c7.7,0,14.2,0,21.2,0
	c0-5.1,0-9.6,0-14.8C1356.9,215.1,1344.4,214.5,1330.4,213.7z M1654.5,323.9c1-5.6,1.8-10.1,2.7-15c-7.3-1.7-13.9-3.3-20.8-4.9
	c3.4-18.8,6.5-36.5,9.8-54.7c-6.5-1.2-11.6-2.1-17.9-3.3c-4.4,23.6-8.6,46.6-13.1,70.5C1628.5,318.9,1640.8,321.3,1654.5,323.9z
	 M478.6,347.8c-6.1,2.3-11.2,4.2-17.2,6.5c8.3,22.7,16.3,44.7,24.5,67.3c13.3-4.9,25.3-9.3,37.7-13.9c-2.1-5.5-3.7-9.7-5.5-14.5
	c-7.1,2.4-13.3,4.5-20.3,6.8C491.3,382.4,485.1,365.4,478.6,347.8z M2155.9,490c10.5-22.5,20.5-44,30.9-66.4
	c-6.1-2.8-11.3-5.2-17.2-7.9c-10.4,22.4-20.4,43.9-30.9,66.3C2144.7,484.6,2149.7,487,2155.9,490z M1931.6,323.1
	c-7.8,23.3-15.1,45.2-22.8,68.1c6.3,2,11.7,3.7,17.7,5.6c7.7-23.1,15-45,22.6-67.7C1943.1,327,1937.9,325.3,1931.6,323.1z
	 M2103,446.6c-9.4,8.1-17.3,15-26.2,22.7c4.4,1.8,7.4,3,10.3,4.3c9.1-7.3,17.8-14.2,27.3-21.7c-3.4-1.7-5.1-2.6-6.9-3.4
	C2105.6,447.5,2103.4,446.7,2103,446.6z M2303.8,566.2c6.1,0.1,11.4-5.1,11.4-11.3c0-5.7-4.9-10.7-10.7-10.8
	c-6.1-0.2-11.2,5-11.2,11.3C2293.4,561.6,2297.8,566.2,2303.8,566.2z"/>
<path d="M2006.7,1051.3c45.6,17.5,90.9,34.7,135.3,55.7c0.6,18.8,0.9,37.4-2,55.9c-2.8,18.1-5.8,36.1-8.9,55.1
	c72.7,25.5,143.6,56.5,215.4,88.8c-3.2,3.8-5.4,6.6-7.8,9.3c-29,32.2-58,64.4-87.2,96.4c-4.2,4.6-5.7,8.5-4.1,15
	c13.6,58.4,26.6,116.8,39.8,175.3c0.8,3.4,1.3,7,2.3,12.7c-120.7-53-240.1-103.7-364.7-144.9c5.9-20.2,13.5-38.9,20.2-57.9
	c6.7-19.1,13.6-38.1,20.7-58c-18.5-7-36.2-13.6-54.5-20.5c-72,159.3-168.3,301.6-286.6,429.7c2.2,3.8,4.2,7.2,6.2,10.6
	c34,54.2,67.6,108.7,102.1,162.5c7.7,12,5.6,24.2,5.2,36.6c-0.2,6-14.5,16.1-20.7,16.1c-71.7,0-143.3,0-215,0.1
	c-4.6,0-8.2-1.2-11.5-4.6c-6.4-6.4-12.2-13-16.6-21.1c-6.5-12-13.5-23.7-20.7-36.2c-2.9,2.1-5.3,3.6-7.5,5.4
	c-53,43.7-108.5,84.1-166.9,120.4c-13.6,8.4-26.6,8.7-40.1,0.3c-42.6-26.3-83.3-55.2-122.6-86.2c-3.6-2.9-7.3-5.7-10.6-8.3
	c-1.4,0.3-2.1,0.2-2.6,0.6c-38.9,27.6-82.5,43.1-129.6,48.9c-55.6,6.9-111,7.5-166.1-4.7c-35.1-7.8-67.9-21.7-97.9-41.7
	c-6.8-4.6-12.6-10.8-18.6-16.6c-1.3-1.2-2.4-3.5-2.3-5.2c0.1-11.9-0.9-23.7,3.1-35.6c14.7-43.2,28.9-86.6,42.7-130.1
	c3.1-9.7,10.2-15.3,16.7-21.8c0.8-0.8,2.4-1.3,3.6-1.4c14.2-0.5,27.1-1.3,38.6,11.8c26.8,30.7,62.3,47,102.1,54.6
	c14.2,2.7,28.3,4.4,42.4-0.9c1.6-0.6,3.1-1.1,4.7-1.8c0.5-0.2,0.9-0.9,1.6-1.6c-34.6-38.3-69.4-76.8-104.5-115.6
	c-2.6,0.8-5.9,1.4-8.8,3c-12,6.5-25,6.5-38,5.7c-3-0.2-6.3-1.8-8.8-3.6c-8.7-6.2-12.6-14.3-11.7-25.6c0.8-9,1.2-17.8,4.6-26.4
	c2.2-5.6,3.6-11.4,5.8-17c2-5.1,1.3-9-1.9-13.8c-23.1-33.5-46.5-66.7-68.3-101c-33.5-52.6-63-107.5-88.8-164.3
	c-3.6-7.8-7.2-15.6-11.3-24.6c-21.2,7.9-41.6,15.5-63,23.4c1.4,4.1,2.5,7.5,3.7,10.8c11.3,31.7,22.7,63.3,34.1,95
	c0.7,1.9,1.9,3.8,1.8,5.6c-0.1,2-1.2,4.2-2.5,5.8c-0.9,1.1-3,1.3-4.6,1.8c-91.3,29.8-180,66.2-268.3,103.6
	c-26.4,11.2-52.5,22.9-78.8,34.3c-2.4,1-4.9,1.7-8,2.8c0-2.9-0.4-5.2,0.1-7.2c13.3-59.1,26.6-118.2,40.3-177.2
	c1.8-7.6,0.9-12.7-4.6-18.7c-29.2-31.6-57.8-63.6-86.6-95.6c-2.2-2.4-4.2-5-7.3-8.7c35.8-16.7,71.1-32.1,106.6-46.7
	c35.7-14.7,71.7-28.5,108.8-43.2c-1.6-8.5-3.4-17.8-5-27.2c-4.2-24.3-7.2-48.7-6.8-73.5c0.1-7.1,2.5-10.8,9-13.4
	c42-16.9,83.9-34,125.9-51.1c3.4-1.4,6.8-2.6,10.4-4c0-2.2,0.3-4.2,0-6c-6.9-38.3-14.8-76.5-20.4-115c-5-34.3-7.9-68.8-10.6-103.4
	c-4-50.9-4.6-101.9-4-152.9c0.6-47.7,4-95.2,7.9-142.7c1.1-13.3,7.2-21.5,18.8-26.6c22.2-9.8,44.3-20.2,66.8-29.3
	c83.8-34,170-60.5,258.3-79.8c48.1-10.5,96.5-20,145.2-27.4c45.7-6.9,91.9-11.1,138.1-15c80.1-6.8,160.5-7.3,240.8-3.4
	c39.9,1.9,79.8,5.5,119.6,9.3c73.4,7,145.8,19.9,217.6,36.4c111.6,25.7,219.9,61.4,325.2,106.4c9,3.9,14.6,9.9,15.7,20.8
	c9.1,84.3,9.7,168.9,6.8,253.5c-3.1,90.7-15.4,180.4-35,269.1C2007.7,1044.9,2007.3,1047.8,2006.7,1051.3z M1353.9,1695.5
	c0.8-0.1,1.7-0.2,2.5-0.4c1.8,3.1,3.6,6.1,5.4,9.2c47.8,83.2,95.7,166.4,143.4,249.6c2.9,5,5.7,7.9,12.2,7.9c62-0.3,124-0.2,186-0.2
	c2.1,0,4.1-0.6,7.3-1.1c-67.8-108.2-134.9-215.4-202-322.5c98.9-97.1,196.9-193.3,294.8-289.4c0.2-0.2,0.1-0.6,0-0.9
	c-0.1-0.3-0.3-0.6-0.6-1.3c-3.1,0-6.5,0-9.8,0c-58.3,0-116.7,0.2-175-0.2c-8,0-13.4,2.3-18.9,8.3c-73,79.5-146.4,158.8-219.6,238.2
	c-2.3,2.5-4.7,4.9-7.1,7.3c12.6-85,28.1-168.6,42.4-253.1c-53.8,0-106.1,0-159.4,0c-20,113.3-40.1,226.6-60.1,339.9
	c-2.2-2.6-2.7-5.2-3.4-7.7c-2.7-10-4.6-20.2-8.3-29.8c-17.5-46.6-48.3-80.1-97.2-94.5c-25.6-7.5-51.8-8.2-78.3-5.8
	c-12.5,1.1-25.1,2-39.1,3.1c7.9-24.2,15.4-47.1,22.9-70.1c69.2,0,137.2,0,206.2,0c8-45.1,15.9-89.7,23.9-135
	c-104.3,0-207.2,0-310.8,0c-36.7,110.3-73.4,220.3-110.1,330.4c1.7,0.4,2.1,0.6,2.3,0.6c2.8-1,5.7-1.9,8.4-3
	c35.8-13.9,72.8-21.4,111.3-20.5c27.4,0.6,53.4,6.8,77,21.5c16.4,10.3,26.7,24.9,30.9,43.6c3.3,14.9,2.5,29.7-0.4,44.6
	c-10.9,55.8-70.9,87.7-111.3,86.6c-58.6-1.5-108.5-21.7-148.3-65.4c-1.4-1.5-3.1-2.7-5.5-4.8c-16.6,50.7-32.8,100.3-49.1,150
	c16.7,12.2,33.9,21.7,52,29.4c79.2,33.5,160.3,33.9,241.8,10.8c66.6-18.9,115.5-61.8,151-120.5c0.9-1.4,1.5-3,2.5-4.3
	c0.9-1.3,2.1-2.5,4.4-5.2c-7.2,41.3-14.1,80.5-21.1,120.3c53.8,0,106.3,0,159.6,0C1322.6,1872.3,1338.3,1783.9,1353.9,1695.5z
	 M460.4,1360.8c3.6-1.3,6.4-2.2,9.1-3.4c186.3-79.4,379.2-135.3,580.2-162c48.2-6.4,96.7-11,145.2-12.8
	c73.3-2.7,146.5-0.7,219.6,6.9c60.3,6.3,120.3,15.1,179.7,27.1c155.2,31.3,305.7,78.1,451.1,140.8c2.7,1.2,5.5,2.1,9.3,3.6
	c30.6-76,56.1-152.7,61-235c-4-1.9-7.2-3.7-10.6-5c-51.5-20-102.6-41.2-154.6-59.8c-112.7-40.2-227.8-72.2-345.2-95.8
	c-59.1-11.8-118.5-22-178.6-27.6c-41.1-3.9-82.3-7.4-123.5-9.1c-65.7-2.7-131.3-0.3-196.6,7.2c-46.9,5.4-93.9,11.3-140.5,19.1
	c-93.4,15.6-185.1,38.2-275.8,65.3c-94.8,28.3-188.1,61.1-279.1,100.1c-3.9,1.7-7.7,3.6-11.9,5.6
	C404.5,1208.5,429.7,1285,460.4,1360.8z M1947.5,744.6c4.7-3.7,9.2-7.1,13.5-10.7c5.9-5.1,4.7-8.3-1.6-12.7
	c-6.9-4.9-13.9-10.5-18.8-17.3c-4.9-6.9-7.2-15.6-10.7-23.5c-4.8-10.7-5.7-22.2,0.4-31.7c6.9-10.8,15.4-21.5,25.6-28.9
	c9.8-7.1,14.4-16.2,18.5-26.3c1-2.5-0.3-5.9-0.5-9.2c-2.7,0.2-4,0.4-5.3,0.4c-17.7-0.6-21.9-4.8-22.3-22.6c0-0.3,0-0.7,0-1
	c-0.6-12.6-10.4-20-22.7-16.6c-4.8,1.3-9.6,3.1-13.9,5.5c-10.5,6-21.7,6.3-33,4.7c-18.5-2.6-33.4-10.7-40.4-29.6
	c-2.3-6.2-5.7-12.1-9.2-17.7c-1.4-2.3-4.1-4.6-6.6-5.2c-10.8-2.9-21.6-3.6-32.4,0.2c-5.6,2-11.8,2.4-17.4,4.5
	c-8.8,3.2-15.9,1-23.3-4.2c-4.5-3.2-10.1-7-15.2-6.8c-15.2,0.5-31.2-2.4-44.6,9.7c-7.6,6.8-20.5,4-28.1-3
	c-5.8-5.3-12.3-10-18.8-14.5c-8.7-6.1-17.9-11.5-26.5-17.7c-9.1-6.6-17.8-13.9-26.8-21c-8.5,5.1-16.4,9.9-24.4,14.8
	c-8.7-7.6-17-14.8-25.8-22.4c-13.4,8.3-25,3.8-35.8-5.2c-2.6,1.7-5.1,2.8-7.1,4.5c-12.4,10.7-27.7,12.6-43.1,13
	c-10.2,0.3-19.7-3.5-28.2-9c-7.9-5.1-8.4-10-2.4-17.4c1.9-2.3,4.2-4.3,6.1-6.6c1.8-2.2,3.4-4.6,5.6-7.8c-11.8-2.9-22.5-3.4-33.9-2.6
	c22.4,168.4,44.7,335.9,67.1,503.7c159,20.9,312.8,59.2,463.6,109.7c1.7-8.2,3.4-15.7,4.9-23.1c2-9.7,4.5-19.4,5.7-29.3
	c1-8.2,2.5-15.5,8.3-21.9c6.3-6.9,9.7-14.6,1.5-23.3c2.4-4.2,3.7-9.3,7-11.9c5.5-4.2,7.9-9.4,8.3-16.8c3.9,0,7.2,0,10.4,0
	c3.7,0.1,7.7,0.4,9.7-3.5c2.3-4.4,0.6-8.4-2.1-12.1c-1.2-1.6-2.5-3.2-3.8-4.6c-9.5-10.6-15.3-23.2-19.5-36.7c-3-9.5-0.1-17,6.3-23.6
	c2.3-2.3,5.4-3.8,8.8-6.2c-7.5-12.8-13.6-23.8-20.2-34.4c-3-4.7-4.1-9-1.4-14c1.1-2,2.1-3.9,3.2-5.9
	C1953.3,752.5,1950.6,748.8,1947.5,744.6z M536.9,661.2c3.2,16.3,8.9,28.8,3.6,42.7c-3.5,9.3-6.6,18.8-9.5,28.4
	c-1.9,6.4-0.1,11.7,6.2,15.2c3.5,1.9,6.7,4.4,9.8,6.9c6.5,5.3,7.1,9.4,1.1,14.7c-3.7,3.2-4.4,6.2-3,10.4c0.5,1.6,0.6,3.3,1.2,4.8
	c2.9,8.1,1.2,14.9-5.1,20.9c-2.6,2.4-4.5,5.5-6.4,7.9c5,6.5,9.4,12.3,13.7,18.1c3.7,4.8,3.3,9.5,0.2,14.6
	c-3.5,5.7-6.5,11.7-8.9,17.8c-3.3,8.4-2.7,10.1,4.9,14.7c6,3.6,12.2,6.9,18.4,10.1c7.8,4.1,12.3,9.7,10.7,19.2
	c-1.2,7.2-1.5,14.6-2.6,21.8c-1.6,11.5-0.4,22.2,5,32.9c5.1,10.1,12.1,18.2,19.4,26.4c7.1,7.9,11.3,16.5,7.2,27.3
	c-0.1,0.4,0.6,1.1,1.2,2.1c145.6-47.8,294-83.9,446.7-103.9c19.8-148.8,39.5-296.8,59.2-444.9c-2.4-0.7-3.7-1.1-4.9-1.5
	c-7.6-2.3-15.8-3.6-17.9-13.5c-0.3-1.3-2.2-2.5-3.6-3.3c-11.8-6.8-23.6-13.7-35.5-20.2c-9.4-5.1-11-4.6-19.2,2.8
	c-1,0.9-1.9,1.9-2.8,2.8c-8.1,8.5-17.5,13.9-29.6,14.4c-4.5,0.2-9.1,1.8-13.4,3.6c-3.4,1.4-6.2,1.3-9.5-0.3
	c-9.6-4.5-19.2-8.8-28.5-13c-6.3,9-12.7,18.2-19.4,27.7c-7.8-5.7-15.2-9.9-21-15.7c-5.7-5.6-9.9-12.7-15.1-19.6
	c-9.1,8.6-17.5,16.1-25.6,24.1c-3.4,3.3-6.9,4.6-11.6,3.9c-5.2-0.8-10.5-0.8-15.9-1.1c-1.5,3.9-2.7,7-3.7,10.1
	c-1.7,5-2.5,10.6-8.1,13.1c-8,3.7-15.2,10-25,8.4c-21.4-3.4-15.1-4-30.7,9.2c-7.2,6.1-16.2,10.9-25.7,8.5c-12.4-3-25-6.3-35.1-14.7
	c-6,0.5-8.8,4.1-10.9,9.2c-3.3,8.1-7.2,16.1-11.4,25.2c-4.6-5.3-8.1-9.3-11.3-13c-21.8-0.6-30.8,1-39.9,9.4
	c-9.4,8.7-20.7,9.9-32.6,9.1c-4.6-0.3-9.4-0.8-13.8-2c-4.9-1.4-7.9,0.5-9.7,4.5c-1.3,2.9-2.2,6.2-2.6,9.4
	c-0.9,7.6-3.9,11.6-11.3,13.1c-3.5,0.7-7.3,0.7-10.9,0.3c-3.4-0.3-5.6,0.7-7.6,3.4c-4.7,6.2-7,12.8-4.8,20.5
	c0.8,2.9,1.3,5.9,2.4,8.7c4,10.9,4.6,21.4-2.8,31.3c-0.5,0.7-0.3,1.9-0.4,3.1c1,0.8,2.1,1.6,3.1,2.4c7.2,5.7,7.4,15.5,1.1,21.9
	C541.2,655,538.5,659.1,536.9,661.2z M390.9,1245.4c-60.1,20.6-117.6,45.6-175.8,71.3c2.9,3.4,5,5.9,7.2,8.4
	c23.4,26,46.7,52.1,70.5,77.7c5.5,5.9,6.5,11.2,4.8,18.7c-10.5,45-20.7,90.1-30.9,135.2c-0.7,3.1-1.1,6.3-1.8,11
	c95.7-41.3,190.8-80.4,289.7-114.6c-4.8-2.6-7.7-4.3-10.6-5.8c-29.9-15.4-59.7-31-89.7-46.1c-6-3-9.7-7.2-12.4-13.3
	c-19.1-42.9-34.8-87.1-47.7-132.3C393.2,1252.4,392.2,1249.3,390.9,1245.4z M2125.2,1245.7c-1.3,1.4-1.9,1.8-2.1,2.3
	c-1,3.2-2,6.3-2.9,9.5c-12.7,44.9-28.5,88.7-47.5,131.3c-2.4,5.5-5.7,9.1-11.2,11.8c-30.3,15.3-60.4,31-90.5,46.6
	c-3,1.6-5.9,3.3-10.4,5.9c98.7,33.9,193,73,286.9,113.1c0.5,0.2,1.2-0.1,2.4-0.3c-0.4-2.2-0.7-4.4-1.1-6.6
	c-10.5-46.7-20.9-93.5-31.8-140.1c-1.5-6.3-0.3-10.5,4-15.2c24.1-26.2,47.9-52.8,71.8-79.2c2.2-2.4,4.3-5,7.1-8.2
	C2241.9,1291.1,2184.6,1266.3,2125.2,1245.7z M742.6,1405.1c3.7,8.4,7.1,16.3,10.8,24c2,4.2,2.2,8.1,0.9,12.5
	c-1.1,3.7-2.4,8.1-1.4,11.6c2.6,8.9,5.2,18,14,23.4c2.8,1.7,4.9,4.5,7.7,6.4c4.6,3.1,6.6,7.1,5.9,12.7c-0.4,3.7,0.2,6.8,3.8,9.5
	c11.2,8.4,23.7,11.3,38,10.7c1.2-3.5,2.5-6.9,3.7-10.3c17.9-53.4,35.9-106.7,53.4-160.3c2.8-8.6,7.2-15.4,13.6-21.6
	c3.9-3.8,7.7-5.5,13.2-5.4c26.3,0.2,52.7,0.1,79,0.1c3.6,0,7.2,0,11.6,0c4-29.7,7.8-58.6,11.7-87.5c-34.9-2.6-305.5,63-325.4,78.6
	c9.1,4.3,18,8.5,27.1,12.8c-2.5,5.4-4.3,10.2-6.8,14.4c-3.5,5.8-3.3,10.5,0.2,16.5c4.8,8.2,9.7,17.2,7.3,27.3
	c-2.7,11.3,1.8,20.2,7.8,28.8c4.2,6.1,6.8,6.6,13.5,2.9C735.3,1410.3,738.5,1407.8,742.6,1405.1z M1835.1,1309.1
	c-48.6-21.9-302.3-82.3-327.4-77.7c6.8,50.8,13.6,101.7,20.7,154.7c4.1-4.4,6.6-7,9.1-9.6c16.2-17.2,32.5-34.4,48.4-51.8
	c4.4-4.8,9.2-6.5,15.7-6.5c68,0.2,135.9,0.3,203.9-0.1c9,0,16.3,1.4,21.8,8.9c0.9,1.2,2.4,1.8,4,2.9
	C1832.6,1322.8,1833.8,1316.4,1835.1,1309.1z M1229.3,608.8c-2.3,67.1-4.6,133.4-7,200.3c23.2,0,45.2,0,68.4,0
	c-2.3-67.1-4.7-133.4-7-200.3C1265.4,608.8,1248.2,608.8,1229.3,608.8z M1798.4,1400.5c-0.7-0.6-1.3-1.3-2-1.9
	c-2.6,2.3-5.3,4.6-7.9,7c-48.4,47.2-96.7,94.5-145,141.8c-25.7,25.1-51.4,50.4-77.2,75.4c-4,3.8-5.7,7.5-4.7,13.1
	c1.7,9.1,2.9,18.4,3.7,27.7c0.7,8.1,4.3,14.5,9.4,20.2c16.2-7.5,31-19.1,43.5-33.8c-0.8-2.9-2.8-5.9-2.2-8.2
	c3-12.2,6-24.6,10.3-36.4c2.5-6.9,8.7-7,13.2-1.2c2.6,3.4,4.6,7.3,6.7,11.1c2.9,5,6.7,5.8,12.6,2.6c-3.1-9.1-6.4-18.1-9.1-27.3
	c-1.3-4.3-2-9-2.1-13.5c-0.2-14.5,8.9-24.7,17.2-35c3.7-4.6,9.3-5.7,14.6-3.3c7.9,3.7,16.1,3.4,24.5,3.4c9,0,14.9-4,18.5-12.3
	c3.6-8.2,7.2-16.6,12-24.1c5.6-8.7,7.8-17.4,4.6-27.4c-1.4-4.2-1.4-8.5,1.9-12.2c4.7-5.2,8.9-10.8,14-15.6
	c9.3-9,19.2-17.5,28.6-26.4C1790.3,1417.6,1795.9,1410,1798.4,1400.5z M1305.1,1210.6c-21-2.9-81.7-2.6-97,0.3
	c-1.5,22.2-2.6,44.5-2.1,66.8c20.4,2,94.3,1.2,101.7-1.2C1306.8,1254.8,1306,1233,1305.1,1210.6z M1236.5,404.9
	c-1.7,40.5-3.4,80.5-5.2,120.3c12.3,2,41.3,1.7,49.1-0.5c-1.2-39.9-2.9-79.8-5.2-119.8C1261.8,404.9,1249.6,404.9,1236.5,404.9z
	 M1991.6,1365.1c-5.8,16.2-11.1,31-16.4,45.8c0.6,0.5,1.2,1,1.8,1.6c18.5-9.5,37-19.1,57.2-29.5
	C2019.1,1376.6,2006,1371.1,1991.6,1365.1z M538.1,1412.6c0.6-0.4,1.2-0.9,1.9-1.3c-5.4-15.1-10.9-30.2-16.6-46.2
	c-14.2,5.9-27.4,11.5-42.6,17.9C501.1,1393.5,519.6,1403.1,538.1,1412.6z"/>
<path d="M1484.1,297.1c3-23.9,5.8-46.8,8.9-71.1c13.2,1.6,26.4,0.9,38.2,6.5c14.3,6.6,15,29.7,1.6,38.3c-2.2,1.4-4.6,2.4-7.7,3.9
	c5.1,8.7,9.9,16.9,15.7,26.9c12.4-22,24.1-42.6,36-63.7c6.2,0.9,12.1,1.8,19.3,2.8c4.8,24.4,9.6,48.9,14.7,74.8
	c-7-1-12.4-1.8-18.3-2.6c-1.1-4.1-2.1-7.9-3.5-13c-7.4-1.3-15.5-2.7-23.6-4.1c-2.7,4-5.1,7.6-7.7,11.4c-11.3-1.7-22.5-3.5-33.7-4.9
	c-3.5-0.5-5.1-2.4-6.5-5.2c-3.3-6.8-6.7-13.6-11.9-20.3c-1.1,7.3-2.3,14.5-3.5,22.6C1495.9,298.5,1490.4,297.9,1484.1,297.1z
	 M1507.5,260.3c11.1,1.2,15.3-1.1,15.9-7.5c0.5-6.1-3.6-9.1-13.7-9.5C1509,248.7,1508.3,254.2,1507.5,260.3z M1583.4,261.9
	c-4.9,7.2-7.6,13.2-10.7,20.3c4.5,0.8,8.5,1.5,13.7,2.4C1585.4,277.1,1584.6,270.8,1583.4,261.9z"/>
<path d="M317.3,494.3c-6.2,3.4-11.1,6-16.2,8.8c-3.7-2.7-7.1-5.2-11.1-8.2c-7,3.7-13.9,7.5-21,11.3c0.3,4.6,0.6,8.5,0.9,12.9
	c-15.9,9.6-31.8,19.1-48.7,29.3c-12.5-20.3-24.8-40.3-37.5-61c5.4-3.3,10.1-6.2,15.6-9.6c9.8,15.9,19.4,31.4,29.4,47.5
	c4.5-2.7,8.3-4.6,11.7-7.2c3.7-2.8,7.2-3.8,11.6,0.9c-3.1-23.1-5.9-44.5-8.8-66.4c6-3.2,11.5-6.2,17.3-9.3
	C279.4,460.2,297.8,476.8,317.3,494.3z M266.4,491.3c5-2.8,8.5-4.7,11.3-6.3c-5.3-5.4-9.8-10-15.2-15.4
	C263.9,476.9,265,483.2,266.4,491.3z"/>
<path d="M2199.2,464.6c-3,5.9-6,11.7-8.9,17.6c-3,5.9-5.9,11.8-9.4,18.8c-5.6-2.6-10.9-5-17-7.9c10.9-22,21.5-43.4,32.5-65.7
	c4.3,2.1,8,4,11.9,5.7c3.7,1.6,5.5,4,6.1,8.1c2.3,14.1,5,28.1,7.6,42.2c0.2,1.2,0.6,2.4,1.3,5.1c9.1-12,12.5-25.7,20.8-37.5
	c5.3,2.7,10.3,5.1,16.2,8.1c-10.8,21.8-21.3,43.1-32.4,65.4c-4.4-2.1-8.1-4-11.9-5.6c-3.8-1.5-5.5-4-6.2-8.1
	c-2.3-14.1-5-28.1-7.6-42.2c-0.2-1.2-0.6-2.4-0.9-3.6C2200.6,464.9,2199.9,464.8,2199.2,464.6z"/>
<path d="M818.3,299.9c-0.1,21.4-17,37.4-39.6,37.4c-20.6,0-37.1-17.2-37.3-38.8c-0.1-20.7,17.8-37.2,40.1-37
	C803.4,261.7,818.4,277.3,818.3,299.9z M780.2,279.7c-11.2,0.1-20.2,8.7-20,19.2c0.2,10.9,9,19.6,19.8,19.7
	c11.1,0.1,19.6-8.4,19.7-19.4C799.8,287.9,791.5,279.6,780.2,279.7z"/>
<path d="M1169,270.2c5.1,4.4,9.8,8.5,15.9,13.7c-11,1.4-20.3,5.4-26.9-2.6c-8.9,2.9-16.5,6.5-24.6,7.7c-13.9,2-25.1-8.2-24.5-21
	c0.3-5.6,2.4-10.3,7-13.8c2.6-2,5.3-3.8,8.7-6.3c-4.6-5.8-8.7-11.9-6-19.2c1.6-4.1,4.5-8.3,8-10.9c9.5-7.2,24.8-4.9,31.6,3.9
	c6.8,8.8,4.7,17.7-6.8,28.8c2.6,2.6,5.3,5.2,9,8.9c2.4-3.1,4.8-6.2,7.8-10c3.6,3.2,6.7,5.9,10.1,8.8
	C1175.2,262,1172.8,265.1,1169,270.2z M1134.4,258.8c-4.8,2.6-7.7,5-6.1,9.3c1.5,4.2,5.5,4.4,9.2,3.9c2.5-0.3,4.9-1.3,8.9-2.5
	C1141.7,265.3,1138.1,262.1,1134.4,258.8z M1141.3,241.4c6.9-6,8-9.7,4.4-13.2c-2.8-2.7-5.9-2.8-8.8-0.2
	C1133.2,231.2,1134.4,234.7,1141.3,241.4z"/>
<path d="M621.1,376c-6.6-23.5-13-45.8-19.7-69.5c11.2-2.8,21.6-6.5,32.3-8c16.6-2.2,32.3,10.3,36.5,27.6c4.3,17.7-4.3,35.1-21,41.5
	C640.5,370.9,631.4,372.9,621.1,376z M623.9,317.5c3.7,12.8,7.2,25.1,10.7,37.3c15.2-3.1,20.9-11.6,17.4-24.9
	C648.5,316.9,639.2,312.5,623.9,317.5z"/>
<path d="M384.8,463.3c-9.4-22.2-18.5-43.5-28-65.9c11.3-5.2,21.7-10.9,33.4-13.3c8.5-1.7,15.9,0.9,20.6,8.7
	c4.9,8.2,7.2,16.5,1.3,25.3c-0.9,1.4-1.9,2.7-3.5,4.9c9.6,5.5,18.9,10.9,30,17.3c-7.3,3.1-12.6,5.8-18.1,7.5
	c-2.1,0.6-5.1-0.6-7.2-1.9c-6.2-3.8-12.1-8.1-19.8-11.1c2.5,6.6,5,13.2,7.9,20.9C396.3,458.1,391,460.4,384.8,463.3z M386.6,419.6
	c10.3-4.5,12.6-8.1,9.9-13.9c-2.8-6.1-7-6.8-16.6-2C382,408.7,384.2,413.8,386.6,419.6z"/>
<path d="M1811.3,333.7c-3,9.7-5.1,17-7.6,25c-6-1.6-11.3-3-17.6-4.7c6.4-23,12.5-45.2,18.6-67.3c8.6-0.4,31.3,5.9,37.3,10.2
	c7,4.9,9.5,11.6,8.3,20c-1.2,8.5-5,15.1-13.2,18.6c-2.1,0.9-4.3,1.2-7.3,2c4,10.2,7.9,20,12.1,30.7c-7.4,0.8-13.4-2-19.2-4.3
	c-1.9-0.7-3.1-4-3.9-6.4C1816.5,350.3,1814.3,343.1,1811.3,333.7z M1814.8,321.4c5.6,1.1,10.8,3.2,14.4-1.8c1.7-2.3,2.5-6.5,1.5-9
	c-1.7-4.5-5.9-6.7-11.6-6C1817.7,310.1,1816.3,315.5,1814.8,321.4z"/>
<path d="M1463.5,267.9c6,9.8,11.5,18.8,17.9,29.3c-7.6-0.6-13.4-0.5-19-1.7c-2.3-0.5-4.6-3.3-6-5.7c-3.8-6.4-7.1-13.2-11.7-21.9
	c-1.3,10-2.3,17.4-3.4,25.7c-5.9-0.7-11.3-1.3-17.8-2c2.3-23.7,4.5-46.7,6.7-70.5c12.4,0.3,24.3,0.5,35.7,3.9
	c7.9,2.3,13.2,7.8,14,16.4c0.9,9.4-1.1,17.9-9.9,23.3C1468.2,265.8,1466.4,266.5,1463.5,267.9z M1445.8,254.8
	c11.3,0.2,15.2-2.2,15.4-8.4c0.1-6.2-4.2-9-14.1-8.4C1446.7,243.2,1446.3,248.6,1445.8,254.8z"/>
<path d="M1217.8,212.7c10.9,0,21.2-0.7,31.4,0.2c11.2,1,17.1,6.6,19.2,16c2.5,11.5-0.5,19.1-10.3,25.7c-0.8,0.5-1.5,1.2-3.1,2.5
	c6.4,8.4,12.7,16.7,20.4,26.8c-7.9,0.1-14,0.6-20,0c-2-0.2-4.2-2.8-5.6-4.8c-4.1-5.9-7.9-12-13.8-17.4c0,7.1,0,14.2,0,21.9
	c-6.5,0-12,0-18.2,0C1217.8,260.2,1217.8,236.8,1217.8,212.7z M1236.3,245.2c11.3-1,14.9-3.9,13.9-10.7c-0.9-5.9-4.9-7.9-13.9-6.4
	C1236.3,233.5,1236.3,239,1236.3,245.2z"/>
<path d="M289.8,428.2c5.9-2.7,10.7-4.9,16.4-7.5c2,4,3.8,7.4,5.5,10.9c4.8,9.9,9.2,20,14.5,29.6c4,7.2,9.7,8.8,15.9,5.8
	c6-2.9,8.2-8.6,5.2-16.2c-3.6-9-8-17.6-12-26.3c-2.1-4.5-4.1-8.9-6.6-14.3c5.7-2.7,10.7-5.1,16.9-8.1c7.2,16.4,14.2,32.2,21.1,48
	c0.8,1.8,1,3.9,1.1,5.8c0.6,11.9-8.7,22.9-23.3,27.8c-14.1,4.7-24.9,2.2-31.7-8.9c-5.4-8.7-9.5-18.3-14-27.6
	C295.8,441.3,293.1,435.3,289.8,428.2z"/>
<path d="M919.5,236.4c12.2,22.5,24.1,44.3,36.5,67c-6.9,1.1-12.4,2-18.4,3c-2.3-3.6-4.4-6.9-7.2-11.4c-7.5,1.1-15.6,2.3-23.8,3.5
	c-1.2,4.3-2.3,8.1-3.7,12.9c-5.3,0.9-11,1.9-18.5,3.1c5.4-25.9,10.5-50.4,15.6-75.2C907,238.3,913.2,237.4,919.5,236.4z
	 M909.2,283.7c5.6-1,9.4-1.6,14.5-2.5c-3.4-6.6-6.4-12.4-9.4-18.3c-0.6,0.2-1.3,0.3-1.9,0.5C911.4,269.7,910.4,275.9,909.2,283.7z"
	/>
<path d="M570.7,317c15.7,20.4,30.7,39.8,46.5,60.3c-6.7,2.2-12.2,4-17.8,5.8c-3.1-3.5-5.7-6.5-8.9-10.1c-7.5,2.4-15,4.8-22.6,7.2
	c-0.7,4.4-1.2,8.3-2,13.4c-5,1.7-10.5,3.6-17.6,6c1.3-26.2,2.5-50.9,3.7-76.3C558.2,321.2,564.1,319.2,570.7,317z M570.2,344.1
	c-0.5,0.2-1.1,0.5-1.6,0.7c0,6.4,0,12.7,0,20c4.5-1.4,8.1-2.6,13.1-4.2C577.4,354.5,573.8,349.3,570.2,344.1z"/>
<path d="M2103.8,392.7c-2.2,2-4.1,3.9-6.1,5.6c-1.5,1.3-3.1,2.4-4.3,3.3c-4.2-2.8-7.7-5.9-11.9-7.6c-2.2-0.9-6.2,0.1-7.9,1.7
	c-2.9,2.7-0.1,5.5,2,7.6c2.3,2.3,5.1,4.3,7.6,6.5c9.2,8,11.2,15,7.1,24.5c-4.7,11-13.1,16.2-24.3,15.1c-11.9-1.1-22.8-8.4-29.8-20.3
	c3.6-3,7.4-6.1,11.7-9.7c2.3,2.8,4.1,5.7,6.6,7.5c3.1,2.3,6.7,4.3,10.3,5.2c1.9,0.5,5.5-1.2,6.5-3c0.9-1.7,0.1-5.2-1.2-7.1
	c-1.9-2.6-4.8-4.5-7.4-6.6c-11.5-10-13.1-17.4-6.2-28.5c6.3-10.2,17.7-13.5,29.7-8.4C2093.2,381.6,2099.6,385.6,2103.8,392.7z"/>
<path d="M1744.7,275.7c-3.1,3.9-5.8,7.2-8.9,11c-2.8-1.7-5.2-3.5-7.8-4.6c-2.4-1-5.1-2-7.6-1.7c-1.9,0.2-4.7,1.9-5.2,3.6
	c-0.5,1.6,0.7,4.6,2.2,5.8c2.7,2.4,6.1,4,9.2,5.9c11,6.6,14,12.8,11.4,23.8c-2.7,11.4-10.1,17.8-21.8,18.5
	c-12.8,0.7-23.1-4.5-32.5-14c3.8-4.5,7.2-8.4,10.7-12.4c2.9,2.5,4.9,4.9,7.4,6.4c3.1,1.7,6.6,3.5,10,3.7c2.4,0.1,5.6-2,7.1-4.1
	c2.1-3-0.4-5.7-2.9-7.5c-2.7-1.9-5.7-3.4-8.5-5.2c-11.7-7.2-14.6-14.3-10.7-25.7c3.7-10.6,13.5-16.4,25.3-15.1
	C1729.7,265,1737,268.6,1744.7,275.7z"/>
<path d="M1881.6,349.1c8.9-11.1,17.8-22.2,27-33.7c6,1.8,11.5,3.5,18.1,5.5c-2.4,3.3-4,5.7-5.9,8c-11.9,14.4-23.8,28.8-35.7,43.1
	c-7.8,9.4-7.8,9.4-20.8,4.1c-2.1-24.6-4.3-49.7-6.6-76.5c6.8,2,12.2,3.7,18.5,5.6c1.1,14.7,2.2,29.2,3.3,43.7
	C1880.1,348.9,1880.9,349,1881.6,349.1z"/>
<path d="M709,320c1.9-14.1,3.7-28.1,5.6-42.8c5.8-1.4,11.1-2.7,18.2-4.5c-2.7,26.2-7.2,50.8-10.8,76.4c-4.2,1.1-8.3,2.2-13.5,3.6
	c-14.8-20.3-29.7-40.6-45.3-62c3.5-1.2,6.1-2.1,8.7-2.9c2.9-0.8,5.8-1.4,9.8-2.4c8.3,11.7,16.7,23.6,25,35.4
	C707.6,320.6,708.3,320.3,709,320z"/>
<path d="M2041.9,392.8c-1.8,4.8-3.5,9-5.5,14.1c-6.4-2.3-12.2-4.4-18.8-6.8c-1.6,3.7-2.9,6.9-4.7,11.2c6.6,2.7,12.6,5.2,19.8,8.2
	c-1.8,4.8-3.6,9.2-5.6,14.5c-12.7-4.9-24.6-9.5-37.4-14.5c8.7-22.6,17.2-44.5,25.9-67.1c12.7,4.9,24.4,9.4,37.1,14.3
	c-1.8,5-3.4,9.5-5.3,14.6c-7-2.5-13.1-4.7-20.1-7.3c-1.4,3.8-2.6,7.1-4,10.7C2029.9,387.5,2035.6,390,2041.9,392.8z"/>
<path d="M1380.3,216.3c13.4,0.9,25.9,1.8,38.9,2.6c0,5.1,0,9.6,0,14.7c-7.2,0-13.7,0-20.9,0c-0.5,3.6-0.9,6.7-1.4,11
	c3.8,0.5,7,0.9,10.1,1.2c2.9,0.3,5.8,0.6,9.7,1c-0.3,5-0.5,9.5-0.8,14.7c-3.8,0-7.1,0-10.3,0c-2.9,0-5.9,0-9.5,0
	c-0.4,3.7-0.7,7.2-1.1,11.6c7.1,0.7,13.5,1.3,20.3,2c0,5.1,0,9.6,0,15.4c-13.2-0.9-25.7-1.7-39.2-2.7
	C1376.1,263.8,1379,240.6,1380.3,216.3z"/>
<path d="M2293.2,534.8c-3.6,6.6-6.5,12.1-9.2,17.1c-14.7,1.8-31.8-10.9-35.9-28.3c-4-17.3,4.8-35.6,20.8-43.3
	c16.6-8,33.6-3.9,46.9,11.9c-2.9,5.4-5.9,11.1-9.8,18.4c-4-8-8.5-13.9-16.2-15c-3.8-0.5-8.1-0.2-11.6,1.2
	c-8.5,3.4-13.8,14.4-11.8,23.1C2268.9,529.8,2276.6,534.4,2293.2,534.8z"/>
<path d="M414.7,372.5c12.8-5,24.2-9.5,36.8-14.4c2,4.6,3.8,8.9,6,14.1c-6.7,2.9-12.6,5.5-19.5,8.5c1.3,3.4,2.5,6.6,3.9,10.3
	c6.8-2.3,12.6-4.2,19-6.4c1.9,4.7,3.6,8.9,5.5,13.8c-6.3,2.8-12,5.3-18.3,8.1c1.2,3.6,2.4,6.9,3.9,11.2c6.6-2.3,12.8-4.5,20-7.1
	c1.8,4.3,3.7,8.7,6,14.2c-12.6,4.9-24.5,9.6-37.2,14.6C432,416.8,423.6,395.2,414.7,372.5z"/>
<path d="M1770.6,293.3c-1,4.2-1.7,7-2.7,10.8c6.3,1.8,12.2,3.6,19.2,5.6c-1.1,4.7-2.1,9.1-3.4,14.6c-6.5-1.4-12.5-2.7-19.5-4.2
	c-1,3.8-2,7.4-3.1,11.7c7,2.1,13.2,4,20.2,6.1c-1.2,4.9-2.3,9.3-3.7,14.6c-12.8-3.2-24.9-6.2-38.1-9.4c4.9-23.4,11-46,17.1-69.7
	c12.8,3.2,25,6.2,38.2,9.5c-1.1,5.2-2.1,9.8-3.2,14.9C1784.3,296.2,1777.9,294.8,1770.6,293.3z"/>
<path d="M1003.7,248.2c-16.6-5-24.7-3.4-29.9,5.5c-4.5,7.7-3.2,18.8,3.1,25c7.3,7.2,15.7,6.9,30-1.9c0.9,6.5,1.7,12.5,2.4,18.3
	c-14,9.9-31.4,8.9-44.4-2.3c-12.9-11-16.5-30.1-8.7-45.6c8.3-16.5,24.5-23.3,44.8-18.3C1001.9,235,1002.8,241.4,1003.7,248.2z"/>
<path d="M1319,284.9c-13.4,0-25.7,0-39.3,0c0.2-24.2,0.2-47.6,1.5-71.3c13.4,0,25.9,0,38.9,0c0,5.4,0,9.9,0,15.2
	c-6.8,0-13.3,0-20.7,0c-0.2,4.3-0.4,7.7-0.7,12c7,0.5,13.2,0.9,19.6,1.3c0,5,0,9.5,0,14.9c-6.7,0-12.8,0-19.6,0c0,4.4,0,7.9,0,12.1
	c6.6,0.4,13.1,0.8,20.2,1.2C1319,275.2,1319,279.7,1319,284.9z"/>
<path d="M871.2,266.3c-14.4-4.2-23-2.2-27.9,6.7c-4.5,8.3-2.6,19.5,4.4,25.5c7.6,6.6,16.4,5.6,29.8-3.9c1.2,6.7,2.3,13,3.4,19.4
	c-14.6,8.7-28.4,9.3-42,0.6c-13.1-8.4-18.2-21.1-16.4-36.1c1.8-15,10.2-25.8,24.9-30.8C865.5,241.7,871.9,246.8,871.2,266.3z"/>
<path d="M2004.9,351.5c-2,5.7-3.9,11.4-6.3,18.2c-8.8-9.4-18-16.5-30.2-7.9c-7.2,5.1-10,15.4-6.9,23.2c3.7,9.2,10.9,12.4,27.2,11.3
	c-2,6.2-3.9,11.9-5.7,17.3c-18.8,2-33.7-7.5-39.6-24.4c-5.4-15.4,1.2-33.7,15-43.1C1970.7,337.8,1990.9,336.7,2004.9,351.5z"/>
<path d="M1074.1,219.7c-5.6,10.1-10.1,19-15.3,27.3c-4.9,7.9-7.6,15.8-5.4,25.3c1.4,6.4,1.1,13.2,1.7,21.1c-5.7,0.5-11.1,1-17.8,1.6
	c-0.6-5.3-1.5-10-1.5-14.8c-0.1-13.1-3.9-24.4-13.7-33.8c-5.9-5.6-10.5-12.6-16.4-19.8c2.4-0.6,3.6-0.8,4.7-1.1
	c11.4-3.6,19.9-0.4,25.8,10.1c1.1,1.9,3,3.4,5.3,5.8c2.7-4.9,5.5-9,7.4-13.5c2.1-4.8,5.4-7.2,10.7-7.3
	C1063.8,220.7,1068,220.2,1074.1,219.7z"/>
<path d="M1330.4,213.7c14.1,0.7,26.6,1.4,39.6,2.1c0,5.2,0,9.6,0,14.8c-7,0-13.5,0-21.2,0c-0.3,3.5-0.6,7-1,11.5
	c6.6,0.8,12.7,1.5,19.8,2.3c-0.3,4.8-0.6,9.3-0.9,14.2c-6.5,0-12.3,0-19.4,0c-0.6,9.1-1.2,17.9-1.9,27.1c-5.7,0-10.9,0-17.2,0
	C1327,262,1330.5,238.7,1330.4,213.7z"/>
<path d="M1654.5,323.9c-13.7-2.6-26-4.9-39.4-7.5c4.4-23.9,8.7-46.9,13.1-70.5c6.3,1.1,11.4,2.1,17.9,3.3c-3.3,18.2-6.4,36-9.8,54.7
	c6.9,1.6,13.5,3.2,20.8,4.9C1656.3,313.8,1655.5,318.3,1654.5,323.9z"/>
<path d="M478.6,347.8c6.5,17.6,12.8,34.6,19.2,52.2c7-2.4,13.2-4.4,20.3-6.8c1.8,4.8,3.4,9.1,5.5,14.5c-12.5,4.6-24.5,9-37.7,13.9
	c-8.2-22.6-16.2-44.5-24.5-67.3C467.3,352,472.5,350.1,478.6,347.8z"/>
<path d="M2155.9,490c-6.2-2.9-11.2-5.3-17.1-8.1c10.4-22.4,20.4-43.9,30.9-66.3c5.9,2.7,11.1,5.1,17.2,7.9
	C2176.5,445.9,2166.4,467.4,2155.9,490z"/>
<path d="M1931.6,323.1c6.3,2.1,11.5,3.9,17.6,6c-7.6,22.8-14.9,44.6-22.6,67.7c-6-1.9-11.4-3.6-17.7-5.6
	C1916.5,368.4,1923.8,346.5,1931.6,323.1z"/>
<path d="M2103,446.6c0.3,0.1,2.5,0.9,4.6,1.8c1.8,0.8,3.5,1.7,6.9,3.4c-9.5,7.6-18.2,14.5-27.3,21.7c-3-1.2-5.9-2.4-10.3-4.3
	C2085.7,461.6,2093.7,454.7,2103,446.6z"/>
<path d="M2303.8,566.2c-6-0.1-10.4-4.6-10.5-10.8c0-6.3,5.1-11.5,11.2-11.3c5.8,0.2,10.7,5.1,10.7,10.8
	C2315.2,561.1,2309.9,566.3,2303.8,566.2z"/>
<path class="st0" d="M1353.9,1695.5c-15.7,88.4-31.3,176.8-47,265.6c-53.3,0-105.8,0-159.6,0c7-39.8,13.8-79,21.1-120.3
	c-2.3,2.7-3.5,3.9-4.4,5.2c-0.9,1.4-1.6,2.9-2.5,4.3c-35.6,58.7-84.4,101.6-151,120.5c-81.4,23.1-162.5,22.7-241.8-10.8
	c-18.1-7.7-35.3-17.1-52-29.4c16.3-49.8,32.5-99.3,49.1-150c2.4,2.1,4.1,3.3,5.5,4.8c39.8,43.6,89.7,63.8,148.3,65.4
	c40.3,1.1,100.3-30.8,111.3-86.6c2.9-14.9,3.7-29.8,0.4-44.6c-4.2-18.8-14.5-33.4-30.9-43.6c-23.6-14.7-49.5-20.9-77-21.5
	c-38.5-0.9-75.5,6.6-111.3,20.5c-2.8,1.1-5.6,2-8.4,3c-0.2,0.1-0.6-0.1-2.3-0.6c36.7-110.1,73.3-220.1,110.1-330.4
	c103.6,0,206.4,0,310.8,0c-8,45.3-15.9,89.9-23.9,135c-69,0-137,0-206.2,0c-7.5,23-15,45.9-22.9,70.1c14-1.1,26.6-2,39.1-3.1
	c26.4-2.4,52.7-1.7,78.3,5.8c48.9,14.4,79.6,47.9,97.2,94.5c3.6,9.6,5.6,19.8,8.3,29.8c0.7,2.5,1.2,5.1,3.4,7.7
	c20-113.3,40.1-226.6,60.1-339.9c53.4,0,105.6,0,159.4,0c-14.3,84.5-29.8,168.1-42.4,253.1c2.4-2.4,4.8-4.8,7.1-7.3
	c73.3-79.3,146.6-158.6,219.6-238.2c5.5-5.9,10.8-8.3,18.9-8.3c58.3,0.3,116.7,0.2,175,0.2c3.3,0,6.6,0,9.8,0c0.3,0.7,0.5,1,0.6,1.3
	c0.1,0.3,0.1,0.8,0,0.9c-97.9,96.2-195.9,192.3-294.8,289.4c67.1,107.1,134.2,214.3,202,322.5c-3.2,0.5-5.2,1.1-7.3,1.1
	c-62,0.1-124-0.1-186,0.2c-6.5,0-9.3-2.9-12.2-7.9c-47.7-83.3-95.5-166.4-143.4-249.6c-1.8-3.1-3.6-6.1-5.4-9.2
	C1355.6,1695.2,1354.8,1695.4,1353.9,1695.5z M1237.5,1596c-0.1,17.3,2.3,28.5,7,37.8c4.6,9.1,11.6,15.5,21.5,18.1
	c22.6,5.9,42.2,0.5,58.1-16.8c10.7-11.7,17.8-25.7,21.8-41.1c4.9-18.8,5.5-37.5-2-55.9c-5-12.4-14.2-19.9-27.3-22.3
	c-21.8-4-40.3,2.1-54.7,19C1245.7,1553.9,1237.9,1576.1,1237.5,1596z M1247.2,1852.1c-0.4-0.6-0.8-1.1-1.1-1.7
	c12.5-13,25.1-26,37.6-38.9c-9.9-1.9-19.1-1.6-28.3-2c-5.2-0.2-8.7,1.7-12,5.5c-9.7,11-20.2,21.3-29.6,32.5
	c-7.2,8.6-13.7,18-19.8,27.5c-5.5,8.5-8.3,18.1-8.7,28.3c-0.8,18.4,8.9,33.1,26.1,38c23.4,6.7,45.1,2.8,63.8-12.9
	c15.2-12.7,21-29.8,18.6-49.2c-2.4-19.4-18.4-31.1-37.7-28.5C1253,1851.1,1250.1,1851.6,1247.2,1852.1z M1325.2,1476.4
	c-0.2-0.8-0.4-1.5-0.6-2.3c6.4-5.2,13-10.4,19.3-15.8c4.8-4.1,9.6-8.2,14-12.7c9-9.1,13.6-20.3,14.6-33.1c1.8-21-9.5-36.2-30-40.6
	c-30.5-6.4-58.5,9.7-68.5,39.4c-0.9,2.6-1.3,5.4-2.1,9.1c6.9,0,12.5,0.1,18.1,0c5.5-0.1,11-0.3,15-0.4c3.1-6.2,4.9-11.3,8-15.3
	c4.1-5.2,13-6.5,18.3-3.8c5.3,2.6,8,9,6.3,16.4c-1,4.2-2.3,8.6-4.7,12c-4.8,6.7-9.9,13.4-15.9,19.1c-18.2,17.1-36.8,33.7-55.2,50.6
	c-1.7,1.6-3.1,3.6-5.2,6.2c34.6,0,67.7,0,101.7,0c1.5-9.4,2.9-18.5,4.6-28.8C1349.4,1476.4,1337.3,1476.4,1325.2,1476.4z
	 M1244.2,1793.7c11.9,0,22.7,0,34,0c7.5-43.1,14.8-85.6,22.3-128.8c-17.9,0-34.7,0-52.1,0c-1.6,9.5-3.2,18.5-4.9,28.2
	c6.4,0.4,11.6,0.8,17.7,1.2C1255.6,1727.4,1250,1760.1,1244.2,1793.7z"/>
<path class="st0" d="M460.4,1360.8c-30.7-75.8-55.9-152.3-61.1-235c4.2-2,8-3.9,11.9-5.6c91-39,184.2-71.9,279.1-100.1
	c90.7-27.1,182.5-49.7,275.8-65.3c46.6-7.8,93.5-13.6,140.5-19.1c65.3-7.5,130.9-10,196.6-7.2c41.2,1.7,82.4,5.3,123.5,9.1
	c60,5.6,119.4,15.8,178.6,27.6c117.4,23.5,232.5,55.5,345.2,95.8c52,18.6,103.1,39.7,154.6,59.8c3.4,1.3,6.6,3.1,10.6,5
	c-4.9,82.3-30.4,159-61,235c-3.9-1.5-6.7-2.4-9.3-3.6c-145.5-62.6-295.9-109.4-451.1-140.8c-59.4-12-119.3-20.8-179.7-27.1
	c-73.1-7.6-146.3-9.6-219.6-6.9c-48.6,1.8-97,6.4-145.2,12.8c-201,26.7-393.9,82.5-580.2,162C466.8,1358.6,464,1359.5,460.4,1360.8z
	 M1821.6,1077.2c-14.4,18.9-28,36.7-41.6,54.5c-2.6-8-3.3-15.2-3.8-22.4c-0.9-13-1.7-25.9-2.6-38.9c-0.2-3.2,0.2-7-4-8.3
	c-8.6-2.5-17.2-4.9-26.6-7.5c-18.2,38.4-36.1,76.1-54.4,114.7c10.9,3.1,20.3,5.8,30.1,8.7c9.7-21.5,18.9-42,28.1-62.5
	c0.7,0.1,1.4,0.2,2.1,0.3c2.3,24.3,4.5,48.6,6.8,72.9c4.5,1.3,7.9,2.2,11.9,3.3c5.3-6.7,10.5-13.1,15.6-19.7
	c5.2-6.5,10.2-13.2,15.4-19.7c5-6.2,9.2-13.1,16.7-19.4c-3.7,24.1-7.2,46.3-10.6,68.4c10.4,4.9,22.7,8.2,30.4,7.9
	c5.6-41,11.1-82.1,16.7-123.6C1841.3,1082.9,1831.7,1080.1,1821.6,1077.2z M1588,1080c0.6,0.1,1.3,0.2,1.9,0.4
	c0.7,3.6,1.5,7.1,2.1,10.7c3.3,18.3,6.8,36.6,9.7,55c0.8,4.8,2.7,7.2,7.4,7.6c2,0.2,3.9,0.3,6.5,0.5c13.4-20.5,26.7-40.9,40.1-61.3
	c0.6,0.3,1.3,0.6,1.9,0.8c-1.5,22.6-3,45.3-4.5,68.5c10.7,2,20.3,3.9,30.7,5.9c2.1-42.7,4.1-84.2,6.2-126.3
	c-10.8-2.1-20.8-4.1-30.7-6c-12.6,19.4-24.6,38.1-36.8,56.8c-0.1,0.2-0.6,0.3-0.9,0.3c-0.3,0-0.7,0-1.4-0.1
	c-3.6-22.1-7.3-44.4-11-66.9c-10.4-2-20.1-3.9-30.4-5.9c-14.8,39.8-29.3,79-44.2,119c11.1,2.1,20.8,3.9,30.8,5.8
	C1573.1,1122.5,1580.5,1101.3,1588,1080z M917.6,1025.1c4.5,24.7,8.7,48.3,13,71.9c-4.2-1.3-6.8-3.3-9.1-5.5
	c-18-16.8-36-33.7-54.1-50.4c-2.3-2.1-5.6-5.1-8.1-4.8c-9.8,1-19.4,3.2-29.9,5.1c7.7,41.7,15.2,82.1,22.9,123.2
	c11.2-2.1,21.2-4,31.6-5.9c-3.6-25-9.5-48.5-12.9-74.9c3.9,3.5,5.9,5.3,7.8,7.1c18.5,17.3,36.9,34.6,55.5,51.8
	c2.3,2.1,5.6,5.1,8.1,4.9c9.8-1,19.4-3.3,29.9-5.2c-7.7-41.6-15.2-82-22.9-123.1C938.6,1021.3,928.8,1023.1,917.6,1025.1z
	 M1095.5,1033.4c-1.2-2.2-1.7-3.4-2.5-4.5c-15.9-21.6-37.5-27.2-62.8-22.8c-26.6,4.6-47,23.1-52.2,47.4c-6.3,29.7,4.2,58,27,73.1
	c15.7,10.3,33.1,11.9,50.9,9.1c34.4-5.3,58.2-39.4,47.7-79.7c-19.9,2.3-39.8,4.6-60.7,7c1.1,9,2,16.8,2.9,24.9
	c9.1-0.7,16.9-1.4,24.9-2.1c-1,13.5-5.5,19.5-16.8,22.6c-13.4,3.7-25,0.7-34.4-9.9c-12.2-13.7-13.5-35.6-3.9-51.2
	c9.9-16.1,38.4-20.1,49.3-2.5c0.8,1.3,2.1,2.4,3.4,3.9C1077.5,1043.6,1086.1,1038.7,1095.5,1033.4z M703,1203.9
	c11.1-3.1,20.8-5.9,31.1-8.8c-3.9-14.6-7.6-28.2-11.2-41.9c3.7,1.1,6,2.9,8.1,4.8c9.2,8.2,18.4,16.4,27.6,24.6
	c2.5,2.2,4.9,4.5,8.8,3.4c10.7-3.1,21.5-6,34.4-9.6c-9.4-7.2-17.2-13.2-25-19.2c-7.8-6-15.6-11.9-22.4-17.1
	c5-7.3,10.8-12.9,13.1-19.7c10.1-29-13.1-57.1-43.1-51.8c-18.2,3.2-35.9,9.2-54.9,14.3C680.7,1123.4,691.7,1163,703,1203.9z
	 M2005.3,1226.9c8.2-2.4,15.9-3.2,21.9-6.7c25.7-15.2,26.1-52.2,0.2-66.7c-16.6-9.4-34.9-15.8-53.2-24
	c-16.5,39.2-32.4,77.1-48.7,115.8c10.2,4.3,19.6,8.3,29.9,12.6c5.9-13.7,11.5-26.9,17.6-41.1c1.1,2.3,1.7,3.2,1.9,4.1
	c1.8,9.8,4.4,19.6,5,29.5c0.8,14.3,6.4,23.6,21,26.8c4.2,0.9,8,3.3,12,4.9c1.9,0.7,4,1,6.8,1.7
	C2014.7,1263.6,2009.9,1244.7,2005.3,1226.9z M1507.6,1010.8c-0.6,2.5-1.1,3.7-1.2,5c-2.2,19.2-4.2,38.4-6.6,57.5
	c-1,7.9-2.4,15.9-5.1,23.3c-3.2,8.7-11.1,12.3-20.2,11c-9.4-1.4-15.2-6.8-16.5-16.1c-0.6-4.3-0.7-8.7-0.4-12.9
	c1-11.6,2.4-23.2,3.6-34.8c1.3-12.4,2.7-24.9,4.1-38c-11.2-1.2-21.3-2.4-32-3.5c-1.6,13.1-3.2,24.9-4.4,36.8
	c-1.8,17.5-4.1,35.1-4.6,52.7c-0.6,18.1,8.9,30.8,25.3,38.4c11.8,5.4,24.2,6.9,37.1,6.1c22.3-1.4,37.2-13.2,41.3-35
	c3.7-19.6,5.5-39.5,8-59.3c1.1-8.8,1.9-17.7,2.9-27.3C1528.1,1013.2,1518.3,1012.1,1507.6,1010.8z M623.4,1186.9
	c6.9-2.5,12.9-4.3,18.7-6.7c5.5-2.3,11-4.8,15.8-8.2c10.1-7.1,14.3-17.5,13.2-29.5c-0.6-6.5-2.2-13.2-4.6-19.3
	c-7.9-20.2-23.3-28.7-44.5-23.7c-12.9,3-25.4,7.9-38,11.9c-5.9,1.9-11.8,4-18.6,6.3c13.6,40.1,26.9,79.2,40.4,118.8
	c10.9-3.8,20.5-7.1,30.6-10.6C631.9,1212.6,627.9,1200.3,623.4,1186.9z M508,1263.3c21,5.2,39.9,2,57.1-9.3
	c19.8-13,24.9-31.2,16.1-53c-5.4-13.5-15.2-20.7-29.8-21c-6-0.1-12,0.8-17.9,1c-4.3,0.2-8.7,0.8-12.9,0c-8.7-1.6-10.9-9.4-4.4-15.4
	c2.8-2.6,6.7-4.7,10.4-5.5c6-1.2,12.3-1,19.3-1.4c0.6-8.4,1.3-17.1,2-26c-17.1-2.1-32,0.3-45.9,7.9c-15.3,8.3-23.5,24.4-21,39.8
	c3.8,23.8,15.7,33.4,39.7,32.4c7-0.3,14-0.9,21-1.1c5-0.1,9.1,1.6,11,6.9c1.6,4.7,0.2,9.4-4.6,13.2c-6.3,5-13.8,6.5-21.7,5.5
	c-4.9-0.6-9.7-1.5-15.3-2.4C509.9,1244.5,509,1253.6,508,1263.3z M1319.1,1109.8c15.6,12.3,32.5,17.7,51.5,16.4
	c25.5-1.6,40.9-18,41.3-43.5c0.2-12.5-4.8-22-15.5-28.2c-4.9-2.8-10.3-4.6-15.5-6.8c-4.9-2.1-9.8-4-14.6-6.4c-3.5-1.8-5.4-4.9-4.8-9
	c0.6-4.3,3.6-6.9,7.2-7.3c4.8-0.6,10-0.7,14.7,0.4c4.7,1.1,9,4.1,14.3,6.6c2-3.4,4.2-7.1,6.3-10.8c2.3-4,4.5-7.9,6.7-11.8
	c-13.3-9.9-33.4-15.1-47.9-12.9c-18.9,2.9-31.9,16.2-34.4,35.1c-2.5,19.3,4.2,29.8,24.4,38.2c1.5,0.6,3.1,1.2,4.6,1.8
	c4.7,1.8,9.5,3.3,13.9,5.5c6.1,3,7.9,6.6,7.1,11.8c-0.8,4.9-4.3,8.2-10.3,9.4c-7.2,1.4-13.9-0.1-20.1-3.9c-4.5-2.7-8.7-5.8-13.9-9.2
	C1329,1093.5,1324.2,1101.3,1319.1,1109.8z M1926.6,1192c3.2-8.8,6.1-17,9.3-25.6c-11.5-4.4-22-8.3-33.2-12.6
	c2.5-6.7,4.7-12.4,7-18.6c12.2,4.2,23.4,8.1,35.2,12.1c3.2-9,6.1-17,9.3-25.7c-22.3-8-43.7-15.7-65.8-23.7
	c-14.3,39.7-28.3,78.4-42.6,118c22.2,8,43.6,15.7,65.8,23.7c3.2-9,6.1-17,9.2-25.7c-12.1-4.6-23.4-8.9-35.1-13.4
	c2.7-7.3,4.9-13.4,7.4-20.1C1904.6,1184.4,1915.1,1188,1926.6,1192z M837.7,1168.7c-9.6-40.8-19-80.8-28.7-121.8
	c-10.8,2.5-20.7,4.8-31.6,7.3c10,41.2,18.8,81.5,29.1,122C817.5,1173.6,827.2,1171.2,837.7,1168.7z M1231,1012.6
	c-0.6,4.1-1.1,7.1-1.8,12c-6.3-11.2-13.7-15-24.8-10c-0.2,13.7,0.4,27.4,1.5,40.8c6,0,10.5,0,15.3,0c0.5-3.7,1-6.7,1.5-10.2
	c12.9,12.1,14.2,12.6,25.3,7.9c-0.2-13.2,0.1-26.7-1.4-40.5C1240.9,1012.6,1236.3,1012.6,1231,1012.6z M1228.4,1150
	c14.6,0,23.1-8.3,23.2-22.7c0.1-14.1-8.7-22.8-23.2-22.8c-14.5,0-23.2,8.6-23,22.8C1205.6,1142.1,1213.6,1150,1228.4,1150z
	 M1219.7,1101c5.5,0,10.4,0,16.1,0c0-9.4,0-18,0-26.1c7.9-4.6,8-4.9,5.4-15.6c-10.5-1.9-22.9-1.2-29.8,1.7c-1,10.5-1,10.5,6.9,14.7
	C1218.8,1083.9,1219.2,1092.1,1219.7,1101z M1216.5,966.4c-0.4,15,0.4,28.7,1.4,43.3c6.2-0.6,10.9-1.1,16-1.6
	c0-14.6,0.2-28-1.3-41.7C1226.9,966.4,1222.3,966.4,1216.5,966.4z"/>
<path class="st0" d="M1947.5,744.6c3.1,4.3,5.8,8,8.9,12.1c-1.1,2-2.1,3.9-3.2,5.9c-2.7,5-1.6,9.2,1.4,14
	c6.7,10.6,12.7,21.6,20.2,34.4c-3.4,2.3-6.5,3.8-8.8,6.2c-6.4,6.6-9.3,14.1-6.3,23.6c4.2,13.5,10,26.1,19.5,36.7
	c1.3,1.5,2.6,3,3.8,4.6c2.7,3.7,4.4,7.7,2.1,12.1c-2,3.9-6,3.6-9.7,3.5c-3.3-0.1-6.5,0-10.4,0c-0.4,7.4-2.8,12.6-8.3,16.8
	c-3.3,2.6-4.7,7.7-7,11.9c8.1,8.7,4.7,16.4-1.5,23.3c-5.7,6.3-7.3,13.7-8.3,21.9c-1.2,9.8-3.7,19.5-5.7,29.3
	c-1.5,7.5-3.1,14.9-4.9,23.1c-150.9-50.5-304.6-88.8-463.6-109.7c-22.3-167.8-44.7-335.3-67.1-503.7c11.5-0.9,22.1-0.3,33.9,2.6
	c-2.3,3.2-3.8,5.6-5.6,7.8c-1.9,2.3-4.2,4.3-6.1,6.6c-6,7.3-5.5,12.3,2.4,17.4c8.5,5.5,18,9.2,28.2,9c15.4-0.4,30.6-2.3,43.1-13
	c2-1.7,4.4-2.9,7.1-4.5c10.8,9,22.4,13.5,35.8,5.2c8.8,7.7,17.1,14.9,25.8,22.4c8.1-4.9,15.9-9.7,24.4-14.8c9,7.1,17.7,14.4,26.8,21
	c8.6,6.2,17.8,11.6,26.5,17.7c6.5,4.5,13,9.2,18.8,14.5c7.6,7,20.6,9.8,28.1,3c13.4-12,29.4-9.1,44.6-9.7c5-0.2,10.7,3.6,15.2,6.8
	c7.3,5.2,14.5,7.4,23.3,4.2c5.6-2.1,11.7-2.5,17.4-4.5c10.9-3.8,21.7-3.1,32.4-0.2c2.5,0.7,5.2,3,6.6,5.2c3.5,5.7,6.8,11.5,9.2,17.7
	c7,18.9,21.9,27,40.4,29.6c11.3,1.6,22.5,1.4,33-4.7c4.3-2.5,9.1-4.2,13.9-5.5c12.3-3.4,22.1,4,22.7,16.6c0,0.3,0,0.7,0,1
	c0.4,17.8,4.6,22.1,22.3,22.6c1.3,0,2.6-0.2,5.3-0.4c0.3,3.3,1.5,6.7,0.5,9.2c-4.1,10.1-8.7,19.2-18.5,26.3
	c-10.2,7.5-18.7,18.2-25.6,28.9c-6.1,9.5-5.1,21-0.4,31.7c3.5,7.9,5.8,16.6,10.7,23.5c4.9,6.8,11.8,12.5,18.8,17.3
	c6.3,4.4,7.5,7.7,1.6,12.7C1956.8,737.5,1952.2,740.8,1947.5,744.6z M1684.7,690.5c1.2-2.6,2.9-5.2,3.4-7.9c1-5.8,3.1-12.5-1.8-17.1
	c-5.6-5.2-12.8-3.5-18.7,0c-32.8,19.1-50.7,48.4-43,89.5c4.7,25.4,26.8,42.6,52.7,43.4c23.4,0.7,44.3-5.8,64-18.6
	c28.6-18.5,28.1-51.8,20.4-77.7c-0.4-1.2-1.3-2.3-2-3.4c-9.4-15-28.1-22.7-46.9-19.7C1702.6,680.6,1694,685.3,1684.7,690.5z
	 M1754.3,806.6c-9.4,0.3-14.9,5.1-14.5,12c0.4,5.8,2.1,11.7,4.1,17.2c5.7,15.5,14.8,28.9,26.9,40.3c1,0.9,1.9,1.9,2.9,2.7
	c5.3,4.1,10.6,4.3,15.6,0.7c4.9-3.5,6.4-8.4,3.5-15c-5.4-12.1-10.9-24.3-17-36.1c-2.9-5.5-6.7-10.8-11-15.3
	C1761.6,809.8,1756.7,808.1,1754.3,806.6z M1730.9,570.3c-0.4-0.1-0.8-0.2-1.2-0.2c0-1,0-2,0-3c-0.1-9-3.3-14-9.8-15.2
	c-7.4-1.4-10.7,0.9-14.7,10.2c-7,16.2-8.5,33.4-8.5,50.8c0,3.3,0.7,6.7,1.9,9.7c2.9,7.4,11.5,9.4,17,3.7c2.9-3,5.4-7.1,6.3-11.1
	C1725.4,600.3,1728,585.2,1730.9,570.3z M1859.5,699.3c-3.7,0.3-7.3,0.4-10.9,0.8c-14.6,1.4-28.9,4.3-42.5,10.1
	c-3.8,1.6-7.3,3.7-7.6,8.3c-0.4,5.1,2.8,8.3,6.9,9.9c4.5,1.8,9.7,4,14.2,3.3c17-2.7,33.9-6.2,50.7-10.2c7.6-1.8,9.4-6.6,7.9-14.8
	c-1.1-6.1-3.8-8-11.7-7.9C1864.2,698.8,1861.8,699.1,1859.5,699.3z M1857.6,800.1c-0.9-1.3-2.1-4.7-4.5-6.4
	c-12.8-9-25.6-17.9-38.9-26.2c-4.6-2.9-10.5-4.3-15.9-5.2c-7.3-1.1-11.6,1.8-13.5,7.5c-1.9,5.7-0.4,10.7,5.9,14.3
	c16.7,9.7,33.4,19.3,50.5,28.1C1851.2,817.6,1857.3,813.2,1857.6,800.1z M1547,703.5c0,0.2,0,0.5-0.1,0.7c-3.3,0-6.8-0.6-10,0.1
	c-7.4,1.6-15.2,2.8-21.9,6.1c-8.2,4.1-7.4,12.9,0.6,17.1c1.5,0.8,3,1.4,4.6,1.9c17.6,5.4,35.4,5.7,53.2,1.4c3.1-0.8,6.3-2.4,8.8-4.4
	c5.5-4.4,5.3-11.3-0.7-15c-3.9-2.4-8.4-4.1-12.9-5C1561.6,704.9,1554.2,704.4,1547,703.5z M1600.1,557.6c-4.9,6.4-5.4,12.7-5.6,19
	c-0.9,22.8,11.5,38.8,27.6,52.7c3,2.6,7.2,3.6,11.2,1.2c3.9-2.3,3.6-6.3,3-9.8c-3.6-21.8-12.7-41.1-27.4-57.6
	C1606.7,560.6,1603.1,559.4,1600.1,557.6z M1604.9,876.4c1.3,2.8,2.1,7.7,4.9,9.8c4.7,3.5,9.3,0,13.2-3.4c0.7-0.7,1.5-1.3,2.2-2
	c12.2-13.6,20.6-29.2,23.8-47.3c0.5-2.9,0.4-6-0.3-8.8c-1.4-5.8-5.8-8-11.4-5.9c-2.1,0.8-4.2,2.1-5.8,3.7
	C1616.8,836.9,1609.4,855,1604.9,876.4z M1529,623.7c-2.7,8.4,1.8,13.3,5.9,17.8c12,13.3,26.6,22.9,43.5,28.7c2.8,1,5.8,1.6,8.7,1.7
	c9.6,0.4,14.1-6.9,9.1-15.1c-2.3-3.8-5.8-7.3-9.5-10c-13.7-10.2-29.1-17.3-45.5-21.9C1537.3,623.8,1533,624.1,1529,623.7z
	 M1684.7,870.1c1.2,7.9,2.4,17.1,4.3,26.1c0.9,4.2,2.9,8.1,8.6,8.2c5.4,0.1,7.9-3.3,9.5-7.4c1.9-4.9,3.5-10.1,4.2-15.3
	c1.8-15.2,2.7-30.5-3.3-45.2c-1.9-4.7-4.8-9.1-10.9-8.6c-5.5,0.4-6.1,5.4-7.7,9.3c-0.6,1.5-1,3.2-1.2,4.8
	C1686.9,850.8,1685.9,859.7,1684.7,870.1z M1783.5,663.1c4.6-1.6,9.5-2.8,13.8-4.9c11.4-5.8,20.9-14,29.6-23.2
	c4.7-5,5.3-9.6,2.1-14.3c-3.6-5.3-10.3-7.8-15.6-4.3c-13,8.6-25.6,17.8-38,27.1c-3.7,2.8-6.7,7-4.5,12.1
	C1773.2,660.8,1777.8,662.5,1783.5,663.1z M1547.9,818.3c15.5,0.2,39.5-14.6,44.9-26.3c0.1-0.3,0.3-0.6,0.4-0.9
	c3.2-8.1-0.9-13.5-9.4-11.9c-16.7,3.2-29.7,12.8-40.5,25.4c-2.3,2.7-4.5,6.6-1.7,10C1543.4,816.9,1546.9,817.7,1547.9,818.3z"/>
<path class="st0" d="M536.9,661.2c1.6-2.1,4.3-6.3,7.7-9.7c6.3-6.5,6.1-16.2-1.1-21.9c-1-0.8-2.1-1.6-3.1-2.4
	c0.2-1.2-0.1-2.4,0.4-3.1c7.3-9.9,6.8-20.4,2.8-31.3c-1-2.8-1.5-5.8-2.4-8.7c-2.3-7.7,0.1-14.3,4.8-20.5c2-2.7,4.2-3.7,7.6-3.4
	c3.6,0.4,7.4,0.4,10.9-0.3c7.5-1.5,10.4-5.4,11.3-13.1c0.4-3.2,1.3-6.4,2.6-9.4c1.8-4,4.8-5.9,9.7-4.5c4.5,1.2,9.2,1.7,13.8,2
	c11.9,0.8,23.2-0.4,32.6-9.1c9.1-8.4,18.1-10,39.9-9.4c3.3,3.8,6.7,7.7,11.3,13c4.2-9.2,8-17.1,11.4-25.2c2.1-5.1,4.9-8.6,10.9-9.2
	c10,8.4,22.7,11.7,35.1,14.7c9.5,2.3,18.4-2.4,25.7-8.5c15.6-13.3,9.3-12.7,30.7-9.2c9.8,1.6,17-4.8,25-8.4
	c5.6-2.5,6.4-8.1,8.1-13.1c1-3.1,2.3-6.2,3.7-10.1c5.5,0.4,10.8,0.4,15.9,1.1c4.7,0.7,8.2-0.6,11.6-3.9c8.1-7.9,16.5-15.5,25.6-24.1
	c5.2,6.9,9.4,14,15.1,19.6c5.9,5.7,13.2,10,21,15.7c6.7-9.5,13-18.6,19.4-27.7c9.2,4.2,18.9,8.5,28.5,13c3.2,1.5,6,1.7,9.5,0.3
	c4.2-1.8,8.9-3.4,13.4-3.6c12.1-0.5,21.6-5.9,29.6-14.4c0.9-1,1.8-1.9,2.8-2.8c8.1-7.4,9.7-7.9,19.2-2.8c12,6.5,23.7,13.4,35.5,20.2
	c1.4,0.8,3.3,2,3.6,3.3c2.1,9.8,10.3,11.2,17.9,13.5c1.2,0.4,2.5,0.7,4.9,1.5c-19.7,148.1-39.4,296.1-59.2,444.9
	c-152.6,20-301.1,56.1-446.7,103.9c-0.6-1-1.3-1.7-1.2-2.1c4.1-10.8-0.1-19.4-7.2-27.3c-7.3-8.2-14.4-16.3-19.4-26.4
	c-5.4-10.7-6.6-21.4-5-32.9c1-7.3,1.4-14.6,2.6-21.8c1.6-9.5-2.9-15.1-10.7-19.2c-6.2-3.2-12.4-6.5-18.4-10.1
	c-7.5-4.6-8.2-6.3-4.9-14.7c2.5-6.2,5.5-12.2,8.9-17.8c3.2-5.2,3.5-9.8-0.2-14.6c-4.4-5.8-8.8-11.5-13.7-18.1
	c1.9-2.4,3.8-5.5,6.4-7.9c6.3-5.9,8-12.8,5.1-20.9c-0.6-1.6-0.6-3.3-1.2-4.8c-1.4-4.2-0.7-7.2,3-10.4c6.1-5.3,5.5-9.4-1.1-14.7
	c-3.1-2.5-6.3-5-9.8-6.9c-6.3-3.5-8.1-8.7-6.2-15.2c2.9-9.5,6-19,9.5-28.4C545.8,690,540.1,677.5,536.9,661.2z M702.7,751.7
	c-1.7,3.4-2.8,6.5-4.5,9.2c-6.2,9.9-12.5,19.7-19,29.3c-4.1,6-4.3,12.6-3,19.2c2.8,14.2,13.5,21,27.3,16.7
	c10.8-3.4,21.1-8,31.6-12.1c3.2-1.2,5.9-4.3,10.1-3c0,2,0.1,3.6,0,5.2c-1.3,17.4,0.1,34.7,3.2,51.8c2.4,13.2,11.3,16,21.5,7.3
	c0.5-0.4,1-0.9,1.4-1.4c11.1-12.2,20.8-25.1,24.7-41.6c0.8-3.3,2.3-6.5,4.3-11.9c7.9,22.7,16.4,42.1,36.4,54
	c20.9-19.7,18.6-43.3,13-68.8c9,7.2,16.9,13.2,24.3,19.8c5.7,5,12.2,8.2,19.5,9.6c9.3,1.9,16.5-2.7,19-11.9
	c2.4-8.9,0.9-17.4-4.5-24.7c-9.9-13.4-20.2-26.4-30.4-39.6c-1.3-1.7-2.7-3.4-4.7-6c7.7,0,14.4-0.9,20.7,0.2
	c14.7,2.4,27.8-2.4,40.4-8.5c12.8-6.3,13.9-20.2,2.9-29c-13.1-10.5-28.2-16.1-44.9-17.7c-3.3-0.3-7,0.5-10.6-2.4
	c9.4-8.5,18.2-16.5,27.2-24.4c14-12.5,19.6-35.2,12.5-52.8c-17.2-1.1-34.2-1.6-48.2,12.1c-3.3,3.2-7.8,5.2-11.8,7.8
	c-0.9-1.6-1.2-1.9-1.2-2.1c0.5-1.9,1.2-3.7,1.7-5.6c3.8-13.4,4.7-27,0.2-40.3c-1-3.2-3.5-6.7-6.4-8.3c-12-6.5-30.3-1.1-36.8,10.8
	c-4,7.3-6.7,15.2-10.1,22.7c-0.8,1.9-1.9,3.7-3.4,6.4c-3-11.9-5.8-22.5-8.2-33.2c-3.6-16.5-16.7-21.4-29.6-10.5
	c-3.4,2.9-6.2,7.2-7.6,11.4c-2,6.3-2.7,13-3.5,19.6c-0.7,5.2-0.8,10.4-1.2,17.3c-3.4-3-5.3-5-7.6-6.7c-7.3-5.1-14.3-10.9-22.3-14.9
	c-11.7-5.9-22.6,0.4-24.7,13.4c-0.5,2.9-0.4,6.1,0.5,8.9c2.6,7.9,5.8,15.6,8.8,23.3c1.9,4.7,4,9.3,6,14c-4.3-0.2-7-1.4-9.6-2.7
	c-7.7-3.9-15.3-8-23.2-11.8c-13.3-6.3-18.8-2.9-18.5,11.8c0.4,16.9,8.9,28.8,23.6,36.7c3.3,1.8,7.6,2.1,9.8,7.3
	c-3.3,0.3-5.8,0.6-8.3,0.8c-14.2,1.1-27.5,5.1-40.1,11.6c-8.5,4.4-9.4,10.1-3.5,17.7c4.8,6.1,11,9.5,18.7,10.1
	c3.7,0.3,7.3,0.1,11,0.5C684.7,747.1,693.6,747.8,702.7,751.7z"/>
<path class="st0" d="M390.9,1245.4c1.2,4,2.3,7.1,3.2,10.2c12.9,45.2,28.6,89.3,47.7,132.3c2.7,6.1,6.4,10.2,12.4,13.3
	c30,15.2,59.8,30.7,89.7,46.1c2.9,1.5,5.8,3.1,10.6,5.8c-98.9,34.2-193.9,73.3-289.7,114.6c0.8-4.7,1.1-7.9,1.8-11
	c10.2-45.1,20.4-90.2,30.9-135.2c1.7-7.4,0.7-12.8-4.8-18.7c-23.8-25.6-47.1-51.7-70.5-77.7c-2.2-2.4-4.3-5-7.2-8.4
	C273.4,1291,330.9,1266,390.9,1245.4z"/>
<path class="st0" d="M2125.2,1245.7c59.3,20.6,116.7,45.4,174.6,70.9c-2.8,3.2-4.9,5.8-7.1,8.2c-23.9,26.4-47.7,53-71.8,79.2
	c-4.3,4.7-5.4,8.9-4,15.2c10.8,46.7,21.2,93.4,31.8,140.1c0.5,2.2,0.8,4.4,1.1,6.6c-1.2,0.2-1.9,0.5-2.4,0.3
	c-93.9-40.1-188.2-79.3-286.9-113.1c4.5-2.5,7.4-4.3,10.4-5.9c30.1-15.6,60.2-31.3,90.5-46.6c5.5-2.8,8.7-6.4,11.2-11.8
	c19.1-42.6,34.8-86.4,47.5-131.3c0.9-3.2,1.9-6.4,2.9-9.5C2123.3,1247.5,2124,1247.1,2125.2,1245.7z"/>
<path class="st0" d="M742.6,1405.1c-4.1,2.8-7.2,5.2-10.6,7.1c-6.6,3.7-9.3,3.2-13.5-2.9c-6-8.6-10.5-17.5-7.8-28.8
	c2.4-10.1-2.5-19-7.3-27.3c-3.5-6-3.7-10.8-0.2-16.5c2.6-4.2,4.3-9,6.8-14.4c-9.2-4.3-18.1-8.5-27.1-12.8
	c19.9-15.6,290.5-81.2,325.4-78.6c-3.9,28.9-7.7,57.8-11.7,87.5c-4.4,0-8,0-11.6,0c-26.3,0-52.7,0.1-79-0.1c-5.4,0-9.3,1.6-13.2,5.4
	c-6.4,6.2-10.8,13-13.6,21.6c-17.5,53.5-35.5,106.9-53.4,160.3c-1.2,3.4-2.4,6.8-3.7,10.3c-14.3,0.6-26.8-2.2-38-10.7
	c-3.6-2.7-4.2-5.8-3.8-9.5c0.7-5.6-1.3-9.6-5.9-12.7c-2.7-1.9-4.8-4.7-7.7-6.4c-8.9-5.3-11.4-14.5-14-23.4c-1-3.5,0.3-7.9,1.4-11.6
	c1.2-4.4,1.1-8.3-0.9-12.5C749.6,1421.4,746.3,1413.5,742.6,1405.1z"/>
<path class="st0" d="M1835.1,1309.1c-1.4,7.2-2.6,13.7-3.9,20.8c-1.5-1.1-3.1-1.7-4-2.9c-5.5-7.5-12.8-9-21.8-8.9
	c-68,0.3-135.9,0.3-203.9,0.1c-6.5,0-11.3,1.6-15.7,6.5c-16,17.4-32.3,34.6-48.4,51.8c-2.5,2.6-4.9,5.2-9.1,9.6
	c-7.1-53-13.9-103.9-20.7-154.7C1532.8,1226.8,1786.5,1287.2,1835.1,1309.1z"/>
<path class="st0" d="M1229.3,608.8c18.9,0,36.1,0,54.4,0c2.3,66.8,4.6,133.2,7,200.3c-23.1,0-45.2,0-68.4,0
	C1224.6,742.2,1226.9,675.8,1229.3,608.8z"/>
<path class="st0" d="M1798.4,1400.5c-2.5,9.4-8.1,17.1-15.1,23.7c-9.4,8.9-19.3,17.4-28.6,26.4c-5,4.8-9.3,10.4-14,15.6
	c-3.3,3.7-3.3,8-1.9,12.2c3.2,10,1,18.6-4.6,27.4c-4.8,7.5-8.5,15.8-12,24.1c-3.6,8.3-9.5,12.3-18.5,12.3c-8.3,0-16.5,0.3-24.5-3.4
	c-5.2-2.4-10.9-1.3-14.6,3.3c-8.3,10.3-17.4,20.5-17.2,35c0.1,4.5,0.8,9.2,2.1,13.5c2.7,9.2,6,18.1,9.1,27.3
	c-5.9,3.2-9.7,2.4-12.6-2.6c-2.2-3.7-4.1-7.7-6.7-11.1c-4.5-5.9-10.7-5.7-13.2,1.2c-4.3,11.8-7.3,24.1-10.3,36.4
	c-0.6,2.3,1.4,5.3,2.2,8.2c-12.4,14.7-27.2,26.2-43.5,33.8c-5.2-5.8-8.7-12.1-9.4-20.2c-0.8-9.3-2-18.5-3.7-27.7
	c-1.1-5.6,0.7-9.3,4.7-13.1c25.9-25,51.5-50.2,77.2-75.4c48.3-47.3,96.7-94.5,145-141.8c2.5-2.4,5.2-4.7,7.9-7
	C1797,1399.2,1797.7,1399.9,1798.4,1400.5z"/>
<path class="st0" d="M1305.1,1210.6c0.9,22.4,1.7,44.2,2.5,65.9c-7.4,2.4-81.3,3.2-101.7,1.2c-0.5-22.3,0.6-44.6,2.1-66.8
	C1223.4,1208,1284.2,1207.7,1305.1,1210.6z"/>
<path class="st0" d="M1236.5,404.9c13.2,0,25.3,0,38.8,0c2.3,39.9,4,79.9,5.2,119.8c-7.8,2.2-36.8,2.5-49.1,0.5
	C1233,485.4,1234.8,445.4,1236.5,404.9z"/>
<path class="st0" d="M1991.6,1365.1c14.4,6,27.5,11.5,42.7,17.9c-20.2,10.4-38.7,20-57.2,29.5c-0.6-0.5-1.2-1-1.8-1.6
	C1980.6,1396.1,1985.8,1381.3,1991.6,1365.1z"/>
<path class="st0" d="M538.1,1412.6c-18.5-9.6-37-19.1-57.3-29.6c15.1-6.3,28.4-11.9,42.6-17.9c5.7,16,11.2,31.1,16.6,46.2
	C539.3,1411.8,538.7,1412.2,538.1,1412.6z"/>
<path class="st0" d="M1507.5,260.3c0.8-6.1,1.5-11.6,2.1-17c10.1,0.4,14.3,3.5,13.7,9.5C1522.9,259.1,1518.6,261.4,1507.5,260.3z"/>
<path class="st0" d="M1583.4,261.9c1.2,8.9,2.1,15.2,3.1,22.7c-5.3-0.9-9.3-1.6-13.7-2.4C1575.7,275.1,1578.4,269.1,1583.4,261.9z"
	/>
<path class="st0" d="M266.4,491.3c-1.4-8.1-2.6-14.5-3.8-21.7c5.4,5.4,9.9,10,15.2,15.4C274.9,486.6,271.4,488.6,266.4,491.3z"/>
<path class="st0" d="M780.2,279.7c11.3-0.1,19.6,8.3,19.5,19.4c-0.1,11.1-8.7,19.5-19.7,19.4c-10.8-0.1-19.6-8.8-19.8-19.7
	C760,288.4,769,279.8,780.2,279.7z"/>
<path class="st0" d="M1134.4,258.8c3.7,3.3,7.3,6.5,12,10.7c-4,1.2-6.4,2.2-8.9,2.5c-3.7,0.5-7.7,0.3-9.2-3.9
	C1126.7,263.8,1129.6,261.4,1134.4,258.8z"/>
<path class="st0" d="M1141.3,241.4c-6.9-6.7-8-10.2-4.5-13.3c2.9-2.6,6-2.5,8.8,0.2C1149.3,231.8,1148.2,235.4,1141.3,241.4z"/>
<path class="st0" d="M623.9,317.5c15.3-5,24.6-0.6,28.1,12.3c3.6,13.3-2.1,21.9-17.4,24.9C631.1,342.6,627.5,330.3,623.9,317.5z"/>
<path class="st0" d="M386.6,419.6c-2.4-5.8-4.6-10.9-6.7-15.9c9.6-4.8,13.8-4.1,16.6,2C399.2,411.5,396.8,415,386.6,419.6z"/>
<path class="st0" d="M1814.8,321.4c1.5-5.9,2.9-11.3,4.2-16.8c5.7-0.7,9.9,1.5,11.6,6c1,2.5,0.2,6.8-1.5,9
	C1825.6,324.6,1820.4,322.5,1814.8,321.4z"/>
<path class="st0" d="M1445.8,254.8c0.5-6.1,0.9-11.5,1.3-16.8c9.9-0.6,14.2,2.2,14.1,8.4C1461.1,252.5,1457.1,255,1445.8,254.8z"/>
<path class="st0" d="M1236.3,245.2c0-6.2,0-11.7,0-17.1c9-1.5,13,0.5,13.9,6.4C1251.1,241.3,1247.6,244.2,1236.3,245.2z"/>
<path class="st0" d="M909.2,283.7c1.2-7.8,2.2-14,3.2-20.3c0.6-0.2,1.3-0.3,1.9-0.5c3,5.8,6,11.7,9.4,18.3
	C918.6,282.1,914.8,282.7,909.2,283.7z"/>
<path class="st0" d="M570.2,344.1c3.6,5.2,7.2,10.4,11.5,16.6c-4.9,1.6-8.5,2.7-13.1,4.2c0-7.3,0-13.7,0-20
	C569.1,344.6,569.6,344.3,570.2,344.1z"/>
<path d="M1237.5,1596c0.3-19.9,8.1-42.2,24.3-61.1c14.4-16.9,32.9-23,54.7-19c13.1,2.4,22.3,10,27.3,22.3c7.5,18.4,6.9,37.1,2,55.9
	c-4,15.4-11,29.3-21.8,41.1c-15.8,17.3-35.5,22.7-58.1,16.8c-9.9-2.6-16.9-9-21.5-18.1C1239.9,1624.5,1237.5,1613.3,1237.5,1596z
	 M1314.9,1571c-0.2-3-0.3-6-0.6-9c-0.7-7.6-2.3-15-11-17.1c-8.4-2-13.7,3.3-18.3,9.4c-0.8,1.1-1.6,2.2-2.2,3.3
	c-5.8,10.6-9.7,21.9-10.4,34.1c-0.5,8.3-0.6,16.7,3.1,24.5c4.1,8.5,12.3,11,19.7,5.3c3.8-2.9,7.3-7,9.6-11.3
	C1311.3,1598.1,1315,1585,1314.9,1571z"/>
<path d="M1247.2,1852.1c2.9-0.5,5.8-1.1,8.8-1.5c19.4-2.5,35.3,9.2,37.7,28.5c2.4,19.4-3.3,36.5-18.6,49.2
	c-18.8,15.7-40.5,19.6-63.8,12.9c-17.1-4.9-26.9-19.6-26.1-38c0.4-10.2,3.2-19.8,8.7-28.3c6.1-9.5,12.6-18.8,19.8-27.5
	c9.4-11.2,19.9-21.6,29.6-32.5c3.4-3.8,6.8-5.7,12-5.5c9.2,0.4,18.4,0.1,28.3,2c-12.5,13-25.1,26-37.6,38.9
	C1246.4,1851,1246.8,1851.6,1247.2,1852.1z M1234.8,1918.3c13.8,0.3,26.5-14.1,24.7-27.8c-1.3-9.3-7.4-14.7-16.9-14.8
	c-13.9-0.1-25.8,12.7-24.8,26.7C1218.5,1911.7,1225.4,1918.1,1234.8,1918.3z"/>
<path d="M1325.2,1476.4c12.1,0,24.2,0,37.7,0c-1.6,10.3-3.1,19.3-4.6,28.8c-34,0-67.1,0-101.7,0c2.1-2.5,3.5-4.6,5.2-6.2
	c18.4-16.9,37.1-33.5,55.2-50.6c6-5.6,11.1-12.4,15.9-19.1c2.4-3.4,3.8-7.8,4.7-12c1.7-7.4-1-13.8-6.3-16.4
	c-5.3-2.7-14.2-1.4-18.3,3.8c-3.2,4-4.9,9.1-8,15.3c-3.9,0.1-9.4,0.3-15,0.4c-5.6,0.1-11.2,0-18.1,0c0.8-3.7,1.2-6.5,2.1-9.1
	c10-29.8,38-45.8,68.5-39.4c20.5,4.3,31.8,19.6,30,40.6c-1.1,12.7-5.6,23.9-14.6,33.1c-4.4,4.5-9.2,8.6-14,12.7
	c-6.3,5.4-12.9,10.5-19.3,15.8C1324.8,1474.8,1325,1475.6,1325.2,1476.4z"/>
<path d="M1244.2,1793.7c5.8-33.6,11.4-66.3,17.1-99.5c-6.2-0.4-11.3-0.7-17.7-1.2c1.7-9.7,3.2-18.7,4.9-28.2c17.4,0,34.2,0,52.1,0
	c-7.5,43.2-14.8,85.8-22.3,128.8C1267,1793.7,1256.2,1793.7,1244.2,1793.7z"/>
<path d="M1821.6,1077.2c10.2,2.9,19.7,5.7,30.2,8.7c-5.6,41.5-11.2,82.6-16.7,123.6c-7.6,0.3-20-2.9-30.4-7.9
	c3.4-22.1,6.9-44.4,10.6-68.4c-7.5,6.3-11.7,13.2-16.7,19.4c-5.3,6.5-10.3,13.1-15.4,19.7c-5.1,6.5-10.3,13-15.6,19.7
	c-3.9-1.1-7.4-2.1-11.9-3.3c-2.3-24.3-4.5-48.6-6.8-72.9c-0.7-0.1-1.4-0.2-2.1-0.3c-9.2,20.5-18.5,41-28.1,62.5
	c-9.8-2.8-19.3-5.5-30.1-8.7c18.3-38.6,36.2-76.3,54.4-114.7c9.4,2.7,18,5.1,26.6,7.5c4.3,1.2,3.8,5.1,4,8.3c1,13,1.7,25.9,2.6,38.9
	c0.5,7.2,1.2,14.4,3.8,22.4C1793.6,1113.9,1807.2,1096.1,1821.6,1077.2z"/>
<path d="M1588,1080c-7.4,21.2-14.8,42.5-22.7,64.9c-10-1.9-19.6-3.7-30.8-5.8c14.9-40.1,29.4-79.2,44.2-119c10.4,2,20,3.9,30.4,5.9
	c3.7,22.5,7.4,44.8,11,66.9c0.7,0,1.1,0.1,1.4,0.1c0.3,0,0.7-0.1,0.9-0.3c12.1-18.7,24.2-37.4,36.8-56.8c9.9,1.9,19.9,3.9,30.7,6
	c-2.1,42.1-4.1,83.6-6.2,126.3c-10.5-2-20.1-3.8-30.7-5.9c1.5-23.2,3-45.8,4.5-68.5c-0.6-0.3-1.3-0.6-1.9-0.8
	c-13.3,20.4-26.7,40.9-40.1,61.3c-2.6-0.2-4.5-0.3-6.5-0.5c-4.7-0.4-6.6-2.8-7.4-7.6c-2.9-18.4-6.4-36.7-9.7-55
	c-0.6-3.6-1.4-7.1-2.1-10.7C1589.2,1080.3,1588.6,1080.1,1588,1080z"/>
<path d="M917.6,1025.1c11.3-2,21-3.8,31.8-5.7c7.6,41.1,15.1,81.5,22.9,123.1c-10.5,1.9-20.1,4.1-29.9,5.2c-2.5,0.3-5.8-2.7-8.1-4.9
	c-18.6-17.2-37-34.5-55.5-51.8c-1.9-1.8-3.9-3.5-7.8-7.1c3.4,26.3,9.3,49.9,12.9,74.9c-10.5,2-20.4,3.8-31.6,5.9
	c-7.6-41.1-15.1-81.5-22.9-123.2c10.5-1.9,20.1-4.1,29.9-5.1c2.5-0.3,5.8,2.7,8.1,4.8c18.1,16.7,36,33.6,54.1,50.4
	c2.4,2.2,4.9,4.2,9.1,5.5C926.3,1073.4,922,1049.8,917.6,1025.1z"/>
<path d="M1095.5,1033.4c-9.4,5.3-18,10.2-27.1,15.3c-1.4-1.6-2.6-2.6-3.4-3.9c-10.8-17.6-39.3-13.6-49.3,2.5
	c-9.6,15.6-8.3,37.5,3.9,51.2c9.4,10.6,21,13.6,34.4,9.9c11.4-3.1,15.9-9.1,16.8-22.6c-8,0.7-15.8,1.3-24.9,2.1
	c-0.9-8.1-1.9-15.8-2.9-24.9c20.8-2.4,40.8-4.7,60.7-7c10.5,40.3-13.3,74.5-47.7,79.7c-17.9,2.7-35.2,1.2-50.9-9.1
	c-22.9-15.1-33.4-43.4-27-73.1c5.2-24.4,25.6-42.9,52.2-47.4c25.3-4.4,47,1.3,62.8,22.8C1093.8,1030,1094.3,1031.2,1095.5,1033.4z"
	/>
<path d="M703,1203.9c-11.3-40.9-22.3-80.5-33.6-121c19-5,36.7-11,54.9-14.3c30-5.3,53.2,22.8,43.1,51.8c-2.4,6.8-8.2,12.5-13.1,19.7
	c6.8,5.2,14.6,11.1,22.4,17.1c7.8,6,15.6,11.9,25,19.2c-12.9,3.6-23.7,6.6-34.4,9.6c-3.9,1.1-6.3-1.2-8.8-3.4
	c-9.2-8.2-18.4-16.4-27.6-24.6c-2.2-1.9-4.5-3.7-8.1-4.8c3.7,13.6,7.3,27.3,11.2,41.9C723.8,1198,714.1,1200.8,703,1203.9z
	 M707.6,1099.3c2.9,10.2,5.6,20,8.4,29.7c17.5-3.9,23.8-11,20.5-22C733.1,1095.6,723.7,1092.8,707.6,1099.3z"/>
<path d="M2005.3,1226.9c4.5,17.9,9.3,36.7,14.4,56.8c-2.9-0.7-4.9-1-6.8-1.7c-4-1.5-7.9-4-12-4.9c-14.6-3.2-20.2-12.5-21-26.8
	c-0.6-9.9-3.2-19.7-5-29.5c-0.2-0.9-0.8-1.8-1.9-4.1c-6.1,14.2-11.8,27.4-17.6,41.1c-10.2-4.3-19.7-8.3-29.9-12.6
	c16.3-38.7,32.2-76.7,48.7-115.8c18.3,8.1,36.6,14.6,53.2,24c25.9,14.6,25.5,51.5-0.2,66.7
	C2021.2,1223.7,2013.5,1224.4,2005.3,1226.9z M1982,1195c9,3.3,17,7.9,25.2,1.4c4.9-3.9,7.5-9.6,5.7-15.8
	c-2.6-8.9-9.9-12.3-18.7-14.6C1990.1,1175.6,1986.3,1184.7,1982,1195z"/>
<path d="M1507.6,1010.8c10.7,1.3,20.5,2.4,31.4,3.7c-1,9.7-1.8,18.5-2.9,27.3c-2.5,19.8-4.4,39.7-8,59.3c-4.1,21.9-19,33.6-41.3,35
	c-12.8,0.8-25.3-0.7-37.1-6.1c-16.4-7.5-25.9-20.2-25.3-38.4c0.5-17.6,2.9-35.1,4.6-52.7c1.2-11.9,2.8-23.7,4.4-36.8
	c10.7,1.2,20.7,2.3,32,3.5c-1.4,13.1-2.8,25.5-4.1,38c-1.2,11.6-2.6,23.2-3.6,34.8c-0.4,4.3-0.2,8.7,0.4,12.9
	c1.3,9.2,7.1,14.7,16.5,16.1c9.1,1.4,17-2.3,20.2-11c2.7-7.4,4.1-15.4,5.1-23.3c2.5-19.1,4.4-38.4,6.6-57.5
	C1506.5,1014.5,1506.9,1013.3,1507.6,1010.8z"/>
<path d="M623.4,1186.9c4.5,13.5,8.6,25.7,13,39c-10.1,3.5-19.6,6.8-30.6,10.6c-13.5-39.6-26.8-78.7-40.4-118.8
	c6.8-2.3,12.6-4.4,18.6-6.3c12.6-4.1,25.1-8.9,38-11.9c21.2-5,36.6,3.4,44.5,23.7c2.4,6.1,4,12.8,4.6,19.3
	c1.1,12-3.2,22.4-13.2,29.5c-4.8,3.4-10.4,5.9-15.8,8.2C636.3,1182.6,630.3,1184.4,623.4,1186.9z M614.8,1161.4
	c5-1.8,9.5-3.1,13.7-4.9c9.1-4.1,11.7-9.6,9-18.2c-2.9-9.5-8.3-12.7-18.2-10.5c-4.7,1.1-9.2,3-14.3,4.7
	C608.3,1142.7,611.4,1151.7,614.8,1161.4z"/>
<path d="M508,1263.3c1-9.6,1.9-18.8,2.9-28.5c5.6,0.9,10.5,1.8,15.3,2.4c7.9,1,15.3-0.5,21.7-5.5c4.8-3.8,6.2-8.5,4.6-13.2
	c-1.8-5.3-5.9-7-11-6.9c-7,0.2-14,0.8-21,1.1c-24,1.1-35.8-8.6-39.7-32.4c-2.5-15.5,5.7-31.5,21-39.8c13.8-7.5,28.7-10,45.9-7.9
	c-0.7,9-1.3,17.7-2,26c-6.9,0.4-13.2,0.3-19.3,1.4c-3.7,0.7-7.6,2.9-10.4,5.5c-6.5,6.1-4.3,13.8,4.4,15.4c4.2,0.8,8.6,0.2,12.9,0
	c6-0.3,12-1.1,17.9-1c14.6,0.2,24.4,7.5,29.8,21c8.8,21.8,3.6,40.1-16.1,53C547.9,1265.3,529.1,1268.5,508,1263.3z"/>
<path d="M1319.1,1109.8c5.1-8.5,9.9-16.3,14.9-24.6c5.1,3.4,9.4,6.4,13.9,9.2c6.2,3.8,12.9,5.3,20.1,3.9c6-1.1,9.5-4.4,10.3-9.4
	c0.9-5.2-1-8.8-7.1-11.8c-4.5-2.2-9.3-3.7-13.9-5.5c-1.6-0.6-3.1-1.2-4.6-1.8c-20.2-8.4-26.9-18.9-24.4-38.2
	c2.5-18.9,15.5-32.2,34.4-35.1c14.5-2.2,34.7,3,47.9,12.9c-2.2,3.8-4.4,7.8-6.7,11.8c-2.1,3.7-4.3,7.3-6.3,10.8
	c-5.3-2.5-9.6-5.5-14.3-6.6c-4.7-1.1-9.9-1.1-14.7-0.4c-3.6,0.5-6.6,3.1-7.2,7.3c-0.6,4.2,1.3,7.3,4.8,9c4.7,2.4,9.7,4.3,14.6,6.4
	c5.2,2.2,10.6,4,15.5,6.8c10.8,6.1,15.7,15.7,15.5,28.2c-0.4,25.5-15.8,41.9-41.3,43.5C1351.6,1127.5,1334.7,1122.1,1319.1,1109.8z"
	/>
<path d="M1926.6,1192c-11.5-4-22-7.7-33.4-11.6c-2.5,6.7-4.7,12.9-7.4,20.1c11.6,4.4,22.9,8.7,35.1,13.4c-3.1,8.7-6,16.7-9.2,25.7
	c-22.2-8-43.6-15.7-65.8-23.7c14.3-39.6,28.3-78.3,42.6-118c22.1,8,43.5,15.7,65.8,23.7c-3.2,8.8-6,16.8-9.3,25.7
	c-11.8-4.1-23-7.9-35.2-12.1c-2.3,6.2-4.5,11.9-7,18.6c11.2,4.3,21.7,8.2,33.2,12.6C1932.7,1175,1929.8,1183.2,1926.6,1192z"/>
<path d="M837.7,1168.7c-10.6,2.5-20.2,4.8-31.1,7.5c-10.3-40.4-19.1-80.8-29.1-122c10.9-2.5,20.8-4.8,31.6-7.3
	C818.7,1087.9,828.1,1127.9,837.7,1168.7z"/>
<path d="M1231,1012.6c5.4,0,9.9,0,15.6,0c1.4,13.8,1.1,27.3,1.4,40.5c-11.1,4.7-12.4,4.3-25.3-7.9c-0.5,3.5-1,6.5-1.5,10.2
	c-4.8,0-9.4,0-15.3,0c-1-13.5-1.7-27.2-1.5-40.8c11.1-4.9,18.5-1.2,24.8,10C1229.9,1019.7,1230.4,1016.7,1231,1012.6z"/>
<path d="M1228.4,1150c-14.8,0-22.9-7.9-23-22.6c-0.2-14.1,8.6-22.8,23-22.8c14.5,0,23.4,8.7,23.2,22.8
	C1251.5,1141.7,1243.1,1150,1228.4,1150z M1236.3,1127.6c-3.5-2.7-5.7-5.7-7.6-5.6c-2.2,0.2-4.1,3.2-6.1,5c1.8,2.1,3.4,5.4,5.6,5.8
	C1230,1133.1,1232.5,1130.2,1236.3,1127.6z"/>
<path d="M1219.7,1101c-0.5-8.9-0.9-17.2-1.4-25.3c-7.9-4.2-7.9-4.2-6.9-14.7c6.9-2.9,19.3-3.6,29.8-1.7c2.6,10.7,2.5,11-5.4,15.6
	c0,8.1,0,16.7,0,26.1C1230.1,1101,1225.2,1101,1219.7,1101z"/>
<path d="M1216.5,966.4c5.9,0,10.4,0,16,0c1.5,13.7,1.4,27.1,1.3,41.7c-5.1,0.5-9.8,1-16,1.6C1216.9,995,1216.1,981.4,1216.5,966.4z"
	/>
<path d="M1684.7,690.5c9.4-5.2,17.9-9.9,28.1-11.5c18.8-3,37.5,4.7,46.9,19.7c0.7,1.1,1.6,2.2,2,3.4c7.7,25.8,8.2,59.2-20.4,77.7
	c-19.7,12.7-40.6,19.3-64,18.6c-25.9-0.8-47.9-18-52.7-43.4c-7.7-41.1,10.2-70.3,43-89.5c5.9-3.5,13.1-5.2,18.7,0
	c4.8,4.5,2.8,11.3,1.8,17.1C1687.6,685.3,1685.8,687.9,1684.7,690.5z M1681.5,693.9c-2.5,1-3.7,1.3-4.6,2
	c-12,9.2-20.7,20.5-23.6,35.8c-4.8,25.2,16.5,46.7,41.7,41.9c23.8-4.5,43.7-26.1,46.7-50.1c0.9-7-1.3-12.3-6.7-16.6
	c-12.3-9.8-37.9-3.4-43.9,11.1c-2.2,5.3-1.2,8.3,4.3,12.9c-0.1-1.1-0.1-2.1-0.2-3c-0.9-9.7,2.1-13.7,11.4-14.9
	c16.7-2.2,27.1,8.8,24,25.3c-3.9,21.2-30.5,33.6-49.7,23.1c-1.1-0.6-2.3-1.5-3.1-2.5c-8.4-10.7-17.9-30.7-8.2-47.3
	C1672.9,705.9,1676.9,700.7,1681.5,693.9z"/>
<path d="M1754.3,806.6c2.4,1.4,7.2,3.2,10.5,6.5c4.4,4.4,8.2,9.7,11,15.3c6.1,11.8,11.6,23.9,17,36.1c2.9,6.6,1.5,11.5-3.5,15
	c-5,3.5-10.3,3.3-15.6-0.7c-1.1-0.8-2-1.8-2.9-2.7c-12.1-11.3-21.2-24.8-26.9-40.3c-2-5.5-3.8-11.4-4.1-17.2
	C1739.4,811.7,1744.9,807,1754.3,806.6z"/>
<path d="M1730.9,570.3c-2.9,15-5.5,30-8.9,44.9c-0.9,4-3.4,8.1-6.3,11.1c-5.5,5.7-14.1,3.7-17-3.7c-1.2-3-1.9-6.5-1.9-9.7
	c0-17.4,1.5-34.5,8.5-50.8c4-9.3,7.3-11.5,14.7-10.2c6.5,1.2,9.7,6.2,9.8,15.2c0,1,0,2,0,3C1730.1,570.1,1730.5,570.2,1730.9,570.3z
	"/>
<path d="M1859.5,699.3c2.3-0.2,4.6-0.5,7-0.5c7.8,0,10.6,1.9,11.7,7.9c1.5,8.2-0.3,13-7.9,14.8c-16.8,4-33.7,7.5-50.7,10.2
	c-4.4,0.7-9.6-1.6-14.2-3.3c-4.1-1.6-7.3-4.8-6.9-9.9c0.4-4.7,3.8-6.7,7.6-8.3c13.6-5.8,27.9-8.7,42.5-10.1
	C1852.2,699.7,1855.9,699.6,1859.5,699.3z"/>
<path d="M1857.6,800.1c-0.3,13.1-6.4,17.4-16.4,12.3c-17.1-8.9-33.9-18.4-50.5-28.1c-6.3-3.7-7.7-8.6-5.9-14.3
	c1.9-5.6,6.2-8.6,13.5-7.5c5.5,0.8,11.3,2.3,15.9,5.2c13.3,8.2,26.1,17.1,38.9,26.2C1855.5,795.5,1856.7,798.8,1857.6,800.1z"/>
<path d="M1547,703.5c7.3,0.9,14.6,1.4,21.7,2.9c4.5,0.9,9,2.6,12.9,5c6,3.7,6.2,10.7,0.7,15c-2.5,2-5.7,3.7-8.8,4.4
	c-17.8,4.3-35.6,4.1-53.2-1.4c-1.6-0.5-3.1-1.1-4.6-1.9c-8-4.3-8.7-13-0.6-17.1c6.7-3.3,14.5-4.5,21.9-6.1c3.2-0.7,6.6-0.1,10-0.1
	C1546.9,703.9,1547,703.7,1547,703.5z"/>
<path d="M1600.1,557.6c3,1.8,6.6,3,8.8,5.4c14.7,16.5,23.8,35.8,27.4,57.6c0.6,3.5,0.9,7.5-3,9.8c-4,2.4-8.2,1.3-11.2-1.2
	c-16.1-13.9-28.5-29.9-27.6-52.7C1594.7,570.3,1595.2,564,1600.1,557.6z"/>
<path d="M1604.9,876.4c4.4-21.4,11.8-39.5,26.5-54c1.6-1.6,3.7-2.9,5.8-3.7c5.6-2.1,10,0.1,11.4,5.9c0.7,2.8,0.8,6,0.3,8.8
	c-3.2,18.1-11.5,33.7-23.8,47.3c-0.7,0.7-1.5,1.4-2.2,2c-3.9,3.4-8.5,6.9-13.2,3.4C1607,884.1,1606.3,879.2,1604.9,876.4z"/>
<path d="M1529,623.7c4.1,0.4,8.4,0.2,12.3,1.3c16.4,4.6,31.8,11.7,45.5,21.9c3.6,2.7,7.1,6.2,9.5,10c5,8.2,0.5,15.4-9.1,15.1
	c-2.9-0.1-6-0.7-8.7-1.7c-17-5.8-31.5-15.4-43.5-28.7C1530.8,636.9,1526.2,632.1,1529,623.7z"/>
<path d="M1684.7,870.1c1.2-10.4,2.2-19.3,3.3-28.2c0.2-1.6,0.6-3.3,1.2-4.8c1.6-3.9,2.2-8.9,7.7-9.3c6-0.4,8.9,3.9,10.9,8.6
	c6,14.7,5.1,30,3.3,45.2c-0.6,5.2-2.3,10.4-4.2,15.3c-1.6,4-4.1,7.5-9.5,7.4c-5.6-0.1-7.7-4-8.6-8.2
	C1687,887.2,1685.9,878,1684.7,870.1z"/>
<path d="M1783.5,663.1c-5.7-0.6-10.3-2.3-12.6-7.5c-2.3-5.2,0.8-9.4,4.5-12.1c12.5-9.3,25.1-18.5,38-27.1c5.3-3.5,12-1,15.6,4.3
	c3.2,4.7,2.7,9.2-2.1,14.3c-8.7,9.2-18.3,17.5-29.6,23.2C1793.1,660.3,1788.2,661.5,1783.5,663.1z"/>
<path d="M1547.9,818.3c-1-0.5-4.5-1.4-6.4-3.7c-2.8-3.3-0.6-7.3,1.7-10c10.9-12.6,23.8-22.2,40.5-25.4c8.5-1.6,12.6,3.8,9.4,11.9
	c-0.1,0.3-0.3,0.6-0.4,0.9C1587.4,803.7,1563.4,818.5,1547.9,818.3z"/>
<path d="M702.7,751.7c-9.1-3.9-18-4.6-26.8-5.5c-3.6-0.4-7.3-0.2-11-0.5c-7.7-0.6-13.9-4-18.7-10.1c-6-7.6-5-13.3,3.5-17.7
	c12.6-6.5,25.9-10.5,40.1-11.6c2.5-0.2,5-0.5,8.3-0.8c-2.1-5.1-6.5-5.5-9.8-7.3c-14.7-7.9-23.2-19.9-23.6-36.7
	c-0.3-14.7,5.2-18.1,18.5-11.8c7.8,3.7,15.4,7.8,23.2,11.8c2.6,1.3,5.3,2.6,9.6,2.7c-2-4.7-4.1-9.3-6-14c-3.1-7.7-6.2-15.4-8.8-23.3
	c-0.9-2.7-1-6-0.5-8.9c2.1-13,13-19.2,24.7-13.4c7.9,4,14.9,9.8,22.3,14.9c2.3,1.6,4.3,3.7,7.6,6.7c0.5-6.9,0.6-12.1,1.2-17.3
	c0.9-6.6,1.5-13.3,3.5-19.6c1.4-4.2,4.2-8.5,7.6-11.4c12.9-10.9,25.9-6,29.6,10.5c2.4,10.7,5.2,21.3,8.2,33.2
	c1.4-2.7,2.5-4.5,3.4-6.4c3.4-7.6,6.2-15.5,10.1-22.7c6.5-12,24.8-17.3,36.8-10.8c2.8,1.5,5.3,5.1,6.4,8.3
	c4.4,13.4,3.5,26.9-0.2,40.3c-0.5,1.9-1.2,3.7-1.7,5.6c-0.1,0.2,0.3,0.6,1.2,2.1c4-2.6,8.5-4.5,11.8-7.8c14-13.7,31-13.2,48.2-12.1
	c7.2,17.6,1.5,40.3-12.5,52.8c-8.9,7.9-17.8,16-27.2,24.4c3.6,2.9,7.3,2.1,10.6,2.4c16.7,1.6,31.8,7.2,44.9,17.7
	c11,8.8,9.9,22.7-2.9,29c-12.6,6.2-25.7,11-40.4,8.5c-6.3-1-13-0.2-20.7-0.2c2,2.6,3.4,4.3,4.7,6c10.2,13.2,20.5,26.2,30.4,39.6
	c5.4,7.3,6.9,15.8,4.5,24.7c-2.5,9.2-9.7,13.8-19,11.9c-7.3-1.5-13.7-4.6-19.5-9.6c-7.5-6.5-15.4-12.5-24.3-19.8
	c5.6,25.5,7.9,49.1-13,68.8c-20-12-28.4-31.3-36.4-54c-2,5.4-3.6,8.5-4.3,11.9c-3.9,16.5-13.7,29.4-24.7,41.6
	c-0.4,0.5-0.9,1-1.4,1.4c-10.3,8.7-19.2,5.9-21.5-7.3c-3.1-17.1-4.5-34.4-3.2-51.8c0.1-1.6,0-3.3,0-5.2c-4.2-1.3-6.9,1.8-10.1,3
	c-10.5,4.1-20.9,8.7-31.6,12.1c-13.8,4.3-24.5-2.5-27.3-16.7c-1.3-6.6-1.1-13.2,3-19.2c6.5-9.6,12.8-19.5,19-29.3
	C699.9,758.2,701,755.2,702.7,751.7z M769.7,852c10-19.7,19.4-38.2,29.4-58.1c3.9,7.7,6.9,14.4,10.5,20.6
	c3.9,6.6,8.1,13.1,12.8,19.1c4.2,5.4,7.6,12.1,15.8,15.4c-0.8-22.9-1.6-44.6-2.4-66.4c0.6-0.4,1.2-0.7,1.8-1.1
	c16.6,15.8,35.3,27.5,59.4,33.9c-5.1-14.6-11.3-26.3-18.1-37.5c-7-11.4-15-22.3-23.2-34.3c3.7-0.4,6.3-0.5,8.9-1
	c17.7-2.8,35.5-5.4,53.2-8.6c6.7-1.2,12.7-4.2,13.8-13.7c-7-2.7-14-5.9-21.2-7.9c-16.2-4.5-32.8-5.5-49.5-3.3
	c-5.8,0.8-7.9-0.9-8.6-6.6c-0.9-6.8,0.5-9.4,7.1-12.3c19.7-8.7,34.4-22.5,43.5-42.1c2.9-6.3,5.2-12.8,5.5-20.7
	c-10.7,2.7-19.1,8-27.2,13.4c-8.3,5.6-16.3,11.7-23.7,18.3c-7.3,6.5-13.8,14-20.6,21.1c-7.9-9.2-8.1-14-3-22.8
	c4.3-7.5,8.5-15.2,11.1-23.4c5-15.7,5.2-31.7,0-49.6c-12.3,13.1-21.1,26.3-26.3,41.4c-5.1,14.8-8.4,30.3-12.4,45.5
	c-11-4.7-13.2-8.1-12.1-19.4c2.1-21.2,0.9-41.9-7.5-61.8c-1.7-4.1-4-8.1-6.4-12.7c-17.1,28.4-11.4,83.4,11.2,109.6
	c16.8-3.8,29.6,3.4,40.2,15.8c1.7,2,3.1,4.3,4.6,6.5c7.1,10.4,7.3,21.3,1.3,32.1c-3.2,5.8-7.8,10.7-11.5,16.2
	c-7,10.3-16.9,14.6-28.9,14.7c-9.3,0.1-18.7,0-28-0.3c-10.7-0.4-17.6-5.8-19.4-16.3c-1.2-7.1-1.6-14.6-1-21.8
	c1.5-16.6,9.4-29.6,24.3-37.9c2.3-1.3,4.3-2.8,6.3-4.1c-4.3-21.8-39.7-63.2-60.4-70.6c1.9,3.8,3.7,6.9,5.1,10.2
	c6.3,14.7,12.6,29.4,18.6,44.1c2,4.9,2.6,10,0.5,15.1c-21-3.1-37-16.8-56.3-23c12.9,13.4,26.3,26,39,41.1
	c-21.3,5-41.3,7.9-61.8,16.6c4.4,2.6,7.3,4.6,10.5,6.2c14.1,6.8,29.3,7.2,46.7,5.4c-16.8,23.5-24.5,47.4-21.3,76.3
	c10.9-4.9,20.5-8.4,29.4-13.4c9.1-5.1,17.4-11.6,27.3-18.3C754.1,806.8,757.5,829.4,769.7,852z M762.8,735.3
	c0.6,4.6-0.9,9.8,4.6,13.2c19.6,12.2,50,0.5,55.8-21.9c0.9-3.6,0.7-8.2-0.9-11.4c-3.3-7-10.5-9.8-17.2-12.9c-4.7-2.2-8.3,1.3-12,3
	c-6,2.8-12,5.8-17.8,8.9C766.9,718.6,762.5,725.5,762.8,735.3z"/>
<path class="st0" d="M1314.9,1571c0.1,14-3.6,27.1-10.2,39.2c-2.3,4.3-5.7,8.3-9.6,11.3c-7.5,5.7-15.6,3.3-19.7-5.3
	c-3.7-7.8-3.7-16.2-3.1-24.5c0.8-12.1,4.6-23.4,10.4-34.1c0.6-1.2,1.4-2.3,2.2-3.3c4.6-6,10-11.4,18.3-9.4c8.7,2.1,10.3,9.5,11,17.1
	C1314.6,1565,1314.7,1568,1314.9,1571z"/>
<path class="st0" d="M1234.8,1918.3c-9.4-0.2-16.3-6.6-17-16c-1.1-13.9,10.9-26.8,24.8-26.7c9.5,0.1,15.6,5.5,16.9,14.8
	C1261.3,1904.3,1248.6,1918.6,1234.8,1918.3z"/>
<path class="st0" d="M707.6,1099.3c16-6.5,25.5-3.7,28.9,7.7c3.3,11-3,18.1-20.5,22C713.3,1119.3,710.5,1109.6,707.6,1099.3z"/>
<path class="st0" d="M1982,1195c4.3-10.3,8.1-19.4,12.2-29c8.8,2.4,16.1,5.8,18.7,14.6c1.8,6.2-0.8,12-5.7,15.8
	C1999,1202.9,1991,1198.3,1982,1195z"/>
<path class="st0" d="M614.8,1161.4c-3.3-9.7-6.4-18.8-9.9-28.9c5.1-1.7,9.6-3.7,14.3-4.7c10-2.3,15.3,1,18.2,10.5
	c2.7,8.7,0.1,14.2-9,18.2C624.2,1158.4,619.8,1159.6,614.8,1161.4z"/>
<path class="st0" d="M1236.3,1127.6c-3.8,2.6-6.2,5.5-8.1,5.2c-2.2-0.4-3.8-3.7-5.6-5.8c2-1.8,4-4.8,6.1-5
	C1230.6,1121.9,1232.8,1124.9,1236.3,1127.6z"/>
<path class="st0" d="M1681.5,693.9c-4.6,6.8-8.6,12-11.9,17.6c-9.7,16.6-0.3,36.6,8.2,47.3c0.8,1,2,1.8,3.1,2.5
	c19.2,10.5,45.8-1.9,49.7-23.1c3-16.5-7.4-27.5-24-25.3c-9.3,1.2-12.3,5.2-11.4,14.9c0.1,0.9,0.1,1.9,0.2,3
	c-5.5-4.6-6.4-7.6-4.3-12.9c6-14.5,31.6-20.9,43.9-11.1c5.4,4.4,7.6,9.6,6.7,16.6c-3,24-22.9,45.6-46.7,50.1
	c-25.2,4.8-46.5-16.7-41.7-41.9c2.9-15.3,11.5-26.6,23.6-35.8C1677.8,695.1,1679,694.9,1681.5,693.9z"/>
<path class="st0" d="M769.7,852c-12.2-22.6-15.6-45.2-13.2-70.1c-9.9,6.7-18.2,13.2-27.3,18.3c-8.9,5-18.5,8.5-29.4,13.4
	c-3.3-28.9,4.5-52.8,21.3-76.3c-17.4,1.8-32.6,1.4-46.7-5.4c-3.2-1.5-6.1-3.5-10.5-6.2c20.4-8.7,40.4-11.6,61.8-16.6
	c-12.6-15.2-26-27.8-39-41.1c19.3,6.1,35.3,19.8,56.3,23c2.1-5.1,1.5-10.2-0.5-15.1c-6.1-14.8-12.3-29.5-18.6-44.1
	c-1.4-3.3-3.2-6.4-5.1-10.2c20.8,7.4,56.1,48.8,60.4,70.6c-2,1.3-4.1,2.9-6.3,4.1c-14.9,8.3-22.7,21.3-24.3,37.9
	c-0.7,7.2-0.2,14.7,1,21.8c1.8,10.5,8.7,15.9,19.4,16.3c9.3,0.3,18.6,0.4,28,0.3c12-0.1,22-4.5,28.9-14.7
	c3.7-5.5,8.3-10.5,11.5-16.2c6-10.8,5.8-21.7-1.3-32.1c-1.5-2.2-2.9-4.5-4.6-6.5c-10.6-12.4-23.4-19.7-40.2-15.8
	c-22.5-26.2-28.3-81.2-11.2-109.6c2.4,4.6,4.6,8.6,6.4,12.7c8.4,19.9,9.6,40.6,7.5,61.8c-1.1,11.3,1.1,14.6,12.1,19.4
	c4.1-15.2,7.4-30.6,12.4-45.5c5.2-15.1,14-28.3,26.3-41.4c5.2,17.9,5,33.9,0,49.6c-2.6,8.1-6.8,15.9-11.1,23.4
	c-5,8.7-4.8,13.6,3,22.8c6.9-7.1,13.3-14.6,20.6-21.1c7.4-6.6,15.4-12.7,23.7-18.3c8.1-5.5,16.6-10.7,27.2-13.4
	c-0.2,7.9-2.5,14.4-5.5,20.7c-9.1,19.6-23.8,33.5-43.5,42.1c-6.6,2.9-7.9,5.5-7.1,12.3c0.7,5.7,2.8,7.4,8.6,6.6
	c16.7-2.2,33.3-1.2,49.5,3.3c7.2,2,14.2,5.2,21.2,7.9c-1.2,9.5-7.1,12.5-13.8,13.7c-17.7,3.2-35.4,5.8-53.2,8.6
	c-2.5,0.4-5.1,0.6-8.9,1c8.2,12,16.2,22.8,23.2,34.3c6.9,11.2,13,22.9,18.1,37.5c-24.1-6.3-42.9-18.1-59.4-33.9
	c-0.6,0.4-1.2,0.7-1.8,1.1c0.8,21.7,1.5,43.5,2.4,66.4c-8.2-3.3-11.5-10-15.8-15.4c-4.7-6-8.9-12.5-12.8-19.1
	c-3.7-6.2-6.6-12.9-10.5-20.6C789,813.7,779.6,832.3,769.7,852z"/>
<path class="st0" d="M762.8,735.3c-0.3-9.7,4.1-16.7,12.5-21.1c5.9-3.1,11.8-6.1,17.8-8.9c3.8-1.7,7.3-5.2,12-3
	c6.6,3.1,13.9,5.9,17.2,12.9c1.5,3.3,1.8,7.9,0.9,11.4c-5.8,22.4-36.2,34.1-55.8,21.9C761.9,745.1,763.4,739.9,762.8,735.3z"/>
</svg>
