<?xml version="1.0" encoding="utf-8"?>
<!-- Generator: Adobe Illustrator 15.1.0, SVG Export Plug-In  -->
<!DOCTYPE svg PUBLIC "-//W3C//DTD SVG 1.1//EN" "http://www.w3.org/Graphics/SVG/1.1/DTD/svg11.dtd" [
	<!ENTITY ns_flows "http://ns.adobe.com/Flows/1.0/">
]>
<svg version="1.1"
	 xmlns="http://www.w3.org/2000/svg" xmlns:xlink="http://www.w3.org/1999/xlink" xmlns:a="http://ns.adobe.com/AdobeSVGViewerExtensions/3.0/"
	 x="0px" y="0px" width="91px" height="92px" viewBox="0 0 91 92" enable-background="new 0 0 91 92" xml:space="preserve">
<defs>
</defs>
<path fill-rule="evenodd" clip-rule="evenodd" d="M0.799,0c29.819,0,59.634,0,89.454,0c0.076,0.152,0.245,0.212,0.457,0.228
	c0.134,0.171,0.143,0.467,0.342,0.57c0,30.009,0,60.016,0,90.024c-0.199,0.104-0.208,0.4-0.342,0.571
	c-0.212,0.016-0.381,0.074-0.457,0.228c-9.28,0-18.56,0-27.84,0c0.076-11.904-0.152-24.112,0.114-35.827
	c3.433-0.6,8.132,0.069,11.752-0.343c0.619-1.891,0.776-4.107,1.027-6.275c0.253-2.182,0.515-4.436,0.685-6.617
	c-1.743-0.613-4.301-0.343-6.618-0.343c-2.326,0-4.694,0.092-6.732-0.113c0.027-3.914-1.019-9.469,0.229-12.552
	c1.765-4.361,7.916-2.711,13.463-3.194c0.449-3.318,0.234-7.903,0.114-11.41c-1.833-0.729-4.068-0.928-6.161-1.026
	c-11.821-0.559-19.817,4.155-20.995,14.377c-0.47,4.08,0.304,9.047-0.342,13.806c-3.655,0.337-8.097-0.11-11.752,0.228
	c-0.451,3.85-0.232,8.969-0.114,13.008c3.475,0.671,8.505-0.215,11.98,0.456c0.342,11.677-0.114,24.151,0.228,35.827
	c-16.164,0-32.328,0-48.492,0c-0.075-0.153-0.244-0.212-0.457-0.228C0.209,91.223,0.201,90.927,0,90.822C0,60.814,0,30.807,0,0.798
	C0.189,0.455,0.456,0.188,0.799,0z"/>
</svg>
