<?xml version="1.0" encoding="utf-8"?>
<!-- Generator: Adobe Illustrator 15.1.0, SVG Export Plug-In  -->
<!DOCTYPE svg PUBLIC "-//W3C//DTD SVG 1.1//EN" "http://www.w3.org/Graphics/SVG/1.1/DTD/svg11.dtd" [
	<!ENTITY ns_flows "http://ns.adobe.com/Flows/1.0/">
]>
<svg version="1.1"
	 xmlns="http://www.w3.org/2000/svg" xmlns:xlink="http://www.w3.org/1999/xlink" xmlns:a="http://ns.adobe.com/AdobeSVGViewerExtensions/3.0/"
	 x="0px" y="0px" width="144px" height="145px" viewBox="0 0 144 145" enable-background="new 0 0 144 145" xml:space="preserve">
<defs>
</defs>
<path fill-rule="evenodd" clip-rule="evenodd" d="M1.265,0c47.236,0,94.466,0,141.704,0c0.119,0.242,0.386,0.336,0.723,0.361
	c0.211,0.271,0.225,0.739,0.542,0.903c0,47.536,0,95.07,0,142.606c-0.317,0.165-0.331,0.634-0.542,0.904
	c-0.337,0.024-0.604,0.118-0.723,0.361c-47.236,0-94.467,0-141.704,0c-0.165-0.317-0.633-0.331-0.904-0.542
	c-0.025-0.337-0.119-0.604-0.361-0.724C0,96.336,0,48.802,0,1.265C0.3,0.721,0.721,0.299,1.265,0z M89.468,31.269
	c-11.596,1.131-20.517,11.963-18.617,25.484c-17.085-0.968-29.704-8.015-38.86-17.171c-1.344-1.344-2.274-3.249-4.157-3.976
	c-4.491,5.932-2.827,16.449,0.542,21.688c1.502,2.337,3.764,3.707,4.88,5.604c-3.427-0.008-5.331-1.537-8.314-1.988
	c0.33,11.659,7.108,16.871,15.363,20.604c-2.08,0.737-5.707,0.108-7.772,0.361c2.462,8.624,9.24,12.932,18.436,14.821
	c-6.603,5.609-17.721,9.086-29.461,8.314c3.498,3.128,8.331,4.908,13.375,6.507c5.946,1.884,12.574,3.447,19.882,3.072
	c18.696-0.959,32.259-8.017,41.933-18.797c9.845-10.973,16.5-24.431,16.267-43.56c3.498-3.19,7.895-6.441,9.76-10.664
	c-3.369,0.668-5.881,2.191-9.76,2.35c2.741-3.163,6.106-5.702,7.229-10.482c-2.058,0.235-3.923,1.547-5.964,2.35
	c-2.152,0.845-4.355,1.587-6.869,1.988C102.892,33.972,97.606,30.474,89.468,31.269z"/>
</svg>
