<?xml version="1.0" encoding="utf-8"?>
<!-- Generator: Adobe Illustrator 15.1.0, SVG Export Plug-In  -->
<!DOCTYPE svg PUBLIC "-//W3C//DTD SVG 1.1//EN" "http://www.w3.org/Graphics/SVG/1.1/DTD/svg11.dtd" [
	<!ENTITY ns_flows "http://ns.adobe.com/Flows/1.0/">
]>
<svg version="1.1"
	 xmlns="http://www.w3.org/2000/svg" xmlns:xlink="http://www.w3.org/1999/xlink" xmlns:a="http://ns.adobe.com/AdobeSVGViewerExtensions/3.0/"
	 x="0px" y="0px" width="473px" height="319px" viewBox="0 0 473 319" enable-background="new 0 0 473 319" xml:space="preserve">
<defs>
</defs>
<path fill-rule="evenodd" clip-rule="evenodd" d="M84.035,0c0.316,0,0.633,0,0.949,0c45.846,46.175,95.881,95.882,143.382,143.383
	c2.269,2.269,8.879,9.469,9.495,9.495c1.469,0.063,7.352-7.353,9.496-9.495c47.189-47.19,95.199-95.604,141.957-142.907
	c28.605,26.785,55.352,55.429,83.561,82.61c0,0.158,0,0.316,0,0.475c-79.323,77.82-157.432,156.878-235.963,235.488
	c-0.316,0-0.633,0-0.949,0C157.509,240.199,78.847,161.537,0,83.086c0-0.158,0-0.316,0-0.475C27.939,55.002,56.492,28.006,84.035,0z
	"/>
</svg>
