<?xml version="1.0" encoding="utf-8"?>
<!-- Generator: Adobe Illustrator 15.1.0, SVG Export Plug-In  -->
<!DOCTYPE svg PUBLIC "-//W3C//DTD SVG 1.1//EN" "http://www.w3.org/Graphics/SVG/1.1/DTD/svg11.dtd" [
	<!ENTITY ns_flows "http://ns.adobe.com/Flows/1.0/">
]>
<svg version="1.1"
	 xmlns="http://www.w3.org/2000/svg" xmlns:xlink="http://www.w3.org/1999/xlink" xmlns:a="http://ns.adobe.com/AdobeSVGViewerExtensions/3.0/"
	 x="0px" y="0px" width="577px" height="391px" viewBox="-5.011 -6.18 577 391" enable-background="new -5.011 -6.18 577 391"
	 xml:space="preserve">
<defs>
</defs>
<path fill-rule="evenodd" clip-rule="evenodd" d="M31.827,1.027c19.149-2.048,43.563-0.4,64.467-0.4c137.734,0,278.225,0,416.432,0
	c11.725,0,21.957-0.515,29.631,2.402c15.516,5.896,26.561,21.446,22.424,44.446c-2.627,14.606-13.094,24.542-26.828,27.629
	c-8.66,1.946-19.988,0.801-31.232,0.801c-150.447,0-298.288,0-448.466,0c-11.271,0-22.884,1.193-31.232-0.801
	C8.832,70.758-4.45,51.517,1.396,27.054C4.559,13.815,15.906,2.729,31.827,1.027z"/>
<path fill-rule="evenodd" clip-rule="evenodd" d="M31.827,153.185c19.042-2.036,43.283-0.4,64.066-0.4c136.91,0,276.659,0,414.03,0
	c11.133,0,21.793-0.813,30.031,1.602c15.523,4.548,25.227,16.288,25.227,36.037c0,19.455-9.436,31.363-24.826,36.037
	c-7.895,2.397-19.229,1.603-30.832,1.603c-151.637,0-299.847,0-451.269,0c-11.214,0-22.798,1.213-31.232-0.8
	C7.891,222.69-4.29,202.478,1.796,178.811C5.283,165.25,16.042,154.873,31.827,153.185z"/>
<path fill-rule="evenodd" clip-rule="evenodd" d="M31.827,303.74c19.149-2.047,43.562-0.4,64.467-0.4c137.733,0,278.225,0,416.432,0
	c11.432,0,21.881-0.74,29.631,2.002c14.391,5.092,23.021,17.59,22.824,36.438c-0.193,18.479-9.838,30.684-23.625,35.236
	c-7.449,2.463-19.283,1.602-30.832,1.602c-152.277,0.002-301.487,0-454.071,0c-16.72,0-29.987,1.047-40.042-5.205
	c-11.952-7.43-18.748-24.227-15.616-41.643C3.587,317.353,15.817,305.451,31.827,303.74z"/>
</svg>
