<?xml version="1.0" encoding="utf-8"?>
<!-- Generator: Adobe Illustrator 15.1.0, SVG Export Plug-In  -->
<!DOCTYPE svg PUBLIC "-//W3C//DTD SVG 1.1//EN" "http://www.w3.org/Graphics/SVG/1.1/DTD/svg11.dtd" [
	<!ENTITY ns_flows "http://ns.adobe.com/Flows/1.0/">
]>
<svg version="1.1"
	 xmlns="http://www.w3.org/2000/svg" xmlns:xlink="http://www.w3.org/1999/xlink" xmlns:a="http://ns.adobe.com/AdobeSVGViewerExtensions/3.0/"
	 x="0px" y="0px" width="612px" height="792px" viewBox="-24.973 -51.666 612 792" enable-background="new -24.973 -51.666 612 792"
	 xml:space="preserve">
<defs>
</defs>
<g>
	<g>
		<path fill-rule="evenodd" clip-rule="evenodd" fill="#FFFFFF" d="M0.646,0c187.125,0,374.261,0,561.382,0
			c0,214.332,0,428.657,0,642.993c-187.338,0-374.657,0-562,0c0-213.72,0-427.418,0-641.138C-0.026,0.978-0.075,0.104,0.646,0z
			 M396.951,7.419c-61.132-3.797-106.606,35.967-120.561,84.702c-1.011,3.53,0.619,8.081-3.71,10.51
			c-4.977-3.885-11.013-6.71-21.021-5.564c-3.539,1.565-4.241,4.701-8.038,4.328c-4.833-0.475-5.29-8.006-8.656-11.747
			c-5.386-5.987-13.299-6.342-17.93-9.892c-4.578,7.959-0.16,12.587,2.473,16.693c1.131,1.764,1.467,4.179,2.473,5.564
			c4.532,6.238,12.132,9.524,13.602,15.457c0.657,2.65,0.493,7.661,0.618,10.51c0.424,9.636,1.136,21.504-1.854,29.677
			c-3.977-0.304-5.042-5.827-9.274-9.892c-4.208-4.042-10.731-5.577-10.511-10.51c0.167-3.724,4.016-4.116,6.183-7.419
			c0.604-7.199-0.646-12.544-3.71-16.075c-2.394,4.661-10.192,6.167-11.128,11.747c-0.721,4.292,2.769,6.682,2.473,12.365
			c-15.172,1.234-18.057,14.739-15.457,32.149c-0.436,2.655-3.667,2.515-4.946,4.328c9.638,10.843,22.55-5.046,23.494-16.693
			c0.344-4.241-2.481-8.337,1.237-11.129c15.704,16.27,23.249,47.194,19.784,78.52c-7.035,0.779-15.909-1.2-16.075-9.274
			c2.192-2.912,5.379-1.567,6.801-4.328c3.458-6.716-5.54-12.433-8.656-20.403c-1.66-4.245,0.207-7.542-3.709-9.274
			c-12.619,2.248,4.301,32.968-8.656,32.149c-5.492-0.347-8.746-14.09-11.747-20.402c-5.486-11.542-17.877-27.423-28.44-32.15
			c-3.177-1.421-5.366,0.468-8.655-3.709c4.916-6.213,10.032-12.226,14.838-18.548c5.447,3.854,7.479,10.217,15.457,8.656
			c6.894-1.349,9.498-12.277,14.838-15.457c-4.233-10.4-21.994-0.522-30.295-7.419c-0.218,3.774,3.287,5.535,1.237,9.273
			c-9.533,3.498-14.441,14.76-27.204,12.984c2.286-12.562-2.592-21.59-11.129-26.585c-2.119,6.809-2.908,15.357-1.854,21.639
			c-8.393,0.634-22.996-2.345-29.677,3.091c-3.065,0.799-3.038-1.496-5.564-1.236c-1.023,1.475,1.255,3.779,1.237,6.183
			c4.995,0.634,8.574,6.601,12.983,8.655c2.255,1.051,7.683,0.472,8.038,4.328c0.239,2.602-3.938,3.858-6.183,6.183
			c-9.489,9.824-18.287,34.383-8.656,49.461c-2.927,2.844-4.409,7.132-9.892,7.419c-3.045-1.077-2.514-5.73-2.473-9.892
			c-3.11-5.958-7.74-10.396-12.983-14.22c-5.943,3.179-8.591,9.783-7.419,17.312c1.122,7.21,10.282,10.585,11.747,16.075
			c-3.304,6.793,3.226,12.589,1.236,19.785c-1.475,5.333-8.277,4.473-9.274,10.51c9.709,8.725,19.524-4.342,24.73-9.892
			c2.972,7.927,9.588,5.183,17.93,4.328c4.192-0.429,10.022,1.726,9.892-2.473c-2.647-2.972-4.907-2.975-7.419-6.183
			c-2.361-3.015-2.672-7.579-4.946-10.51c-1.278-1.648-16.542-11.756-4.946-12.365c5.779-0.303,9.313,9.268,17.311,11.747
			c5.502,1.706,8.883-0.837,13.602,2.473c3.797,8.738,3.37,18.001-2.473,24.112c11.983,2.834,23.905-9.439,19.784-22.876
			c1.838-4.551,6.383-6.395,11.747-7.419c2.203-4.2,5.871-10.936,0-13.602c-0.853,3.728-4.641,3.07-8.037,5.564
			c-2.983,2.191-4.451,7.341-8.656,6.801c-6.476-0.832-2.715-8.668-3.709-14.22c-1.267-7.069-6.486-9.852-14.838-9.892
			c2.362,6.424,1.211,13.94,3.091,22.875c-13.545,2.946-25.388-11.778-27.204-24.112c-1.834-12.455,3.875-24.698,12.365-29.676
			c17.003-9.972,41.691,2.483,49.461,12.365c13.083,16.64,24.731,47.832,32.149,71.718c2.727,8.78,6.57,17.47,1.855,24.73
			c-7.392-1.065-8.56-4.28-12.983-6.183c-35.273-15.175-75.13,2.584-95.212,17.929c-3.544,2.708-11.46,10.445-14.838,9.274
			c-3.335-1.156-2.365-6.612-3.709-10.511c-2.458-7.131-8.529-13.513-15.457-16.693c-1.651,3.9,0.77,7.491,0.618,11.747
			c-0.18,5.042-3.172,8.569-2.473,12.984c0.692,4.371,6.519,7.516,5.564,11.747c-0.62,2.75-6.552,4.886-8.037,6.801
			c-1.319,1.7-1.21,4.404-2.473,6.182c-2.319,3.268-6.874,2.75-7.419,6.801c8.173,6.801,17.399-1.976,22.876-5.563
			c5.714,1.599,2.832,7.583,3.091,11.746c0.486,7.816,5.742,14.877,5.564,22.876c-8.895,4.904-18.476,14.381-11.129,28.44
			c4.38,0.172,6.817-6.722,8.038-11.747c2.068-1.023,3.996-2.188,7.419-1.854c6.252,6.562-3.063,12.468-3.091,18.548
			c-0.033,7.179,6.878,10.335,10.51,16.074c3.7-1.203,2.72-6.22,4.328-9.892c1.048-2.395,3.744-3.804,4.328-6.183
			c1.716-6.996-3.759-12.549-0.618-18.548c5.131-0.313,12.032,1.739,12.365,6.183c0.186,2.479-3.911,5.165-4.328,8.655
			c-0.815,6.826,1.9,12.815,7.419,16.075c8.019-2.998,3.449-20.248,11.747-22.876c3.713-1.176,8.542,1.032,13.602,1.236
			c2.806,3.377,3.375,8.99,3.709,14.838c8.476,4.934,3.585,15.948,6.183,22.876c5.587,0.705,7.891-6.477,10.511-9.273
			c2.117-2.261,5.16-2.358,6.183-4.946c4.573-11.57-6.372-21.445-8.038-31.531c0.899-0.956,3.165-0.545,4.946-0.618
			c1.347,3.741,5.474,7.848,6.801,12.983c0.53,2.052-0.126,4.85,0.618,6.801c5.48,14.358,30.262,4.266,26.585-11.129
			c-3.704-0.406-4.548,2.047-8.038,1.854c-6.331-4.655-16.791-8.265-16.075-17.93c2.872-1.762,6.115,0.686,9.892,0
			c5.991-4.18,11.688-11.706,10.511-21.021c-4.416,0.239-6.545,4.551-11.129,5.564c-8.724,1.93-18.969-3.521-26.585,0.618
			c-3.097-4.437-8.826-4.983-12.983-8.037c-3.936-2.892-3.297-8.413-8.037-10.511c-2.922,7.286-8.296,11.96-5.564,19.784
			c1.582,4.53,9.047,7.401,8.037,12.365c-0.979,4.813-11.073,4.204-17.311,3.092c-9.642-1.721-19.03-5.301-22.876-12.365
			c0.974-5.485,7.454-4.117,11.129-7.419c5.167-4.643,5.347-14.659,3.091-22.876C98.692,335.067,95.4,346.979,87.202,348.7
			c-7.363-9.766,0.751-23.05,6.801-29.677c9.907-10.85,27.616-20.468,42.66-22.875c1.476,11.198-8.948,12.973-16.075,13.602
			c5.13,12.145,15.099,1.106,24.112,0c4.128,2.147,1.932,8.247,0.618,11.747c9.521,1.399,18.72-5.897,19.784-14.838
			c0.553-4.641-3.019-8.578-0.618-12.983c4.994-1.202,11.146,1.688,15.457,3.709c7.821,3.667,10.07,8.672,14.22,14.22
			c3.687,4.929,9.147,8.013,11.747,13.602c4.365,9.384,3.35,18.139,5.564,30.913c0.456,2.629,2.526,5.212,3.091,8.037
			c3.758,18.772,1.75,46.197,0.619,71.101c-0.587,12.917-1.716,25.795-2.473,37.096c-0.55,8.203,0.195,17.811-1.237,24.112
			c-1.776,7.815-7.239,15.516-9.274,23.494c-3.398,13.323-2.509,27.185-9.892,35.858c-14.949-2.476-29.615-2.092-44.515-3.091
			c-31.293-2.099-67.653-1.071-99.54-2.473c-11.088-0.488-22.418,0.038-32.15-1.855c-3.854-0.749-7.639-3.5-10.51,0
			c-1.287,4.706,6,6.802,9.274,8.038c13.455,5.079,39.007,4.827,53.789,4.327c41.127-1.392,90.474,0.914,120.561,4.328
			c-1.766,13.191-14.559,22.631-25.349,29.059c-14.76,8.793-36.803,11.532-52.552,17.93c-3.498,4.375-11.905,6.998-11.129,13.602
			c8.303-1.679,15.345-6.128,24.112-6.801c8.78-0.675,20.422,0.166,30.295,1.854c2.572,0.439,4.807,2.049,7.419,2.473
			c1.864,0.303,4.612-0.285,6.801,0c16.098,2.104,36.684,9.396,40.187-6.801c1.132-5.235-0.868-8.121,2.473-9.892
			c3.36-1.781,11.208,4.811,16.075,7.419c9.174,4.917,20.073,10.61,28.44,12.983c9.093,2.578,18.944,5.585,26.585,1.854
			c-0.778-3.638-5.57-3.33-8.656-4.945c-4.133-2.164-13.438-10.74-17.311-15.457c-1.915-2.333-6.645-9.129-1.236-11.747
			c3.518-1.703,8.427,5.06,11.128,7.419c4.432,3.871,7.811,6.006,10.511,9.893c8.663,4.215,16.104,8.756,27.821,10.511
			c11.622,1.74,24.668-0.954,37.096,0.618c8.22,1.039,14.192,7.646,21.64,6.801c1.139-4.804-3.447-7.562-6.801-10.511
			c-3.061-2.69-5.667-6.981-8.656-8.655c-3.492-1.956-7.327-0.936-11.128-1.855c-3.061-0.74-6.253-3.756-9.893-4.945
			c-3.255-1.064-6.9-0.622-9.274-1.855c-2.729-1.418-4.557-5.027-7.419-7.419c-8.865-7.407-18.587-14.564-23.494-24.73
			c4.85-2.836,9.64-0.566,14.839,0c23.861,2.601,50.362,3.258,75.428,7.419c4.733,0.786,9.4,3.175,14.22,3.71
			c19.031,2.113,43.617,0.236,63.063-0.618c17.386-0.765,37.57,0.453,53.788-0.618c17.184-1.136,42.185,0.73,46.37-9.893
			c-31.125-1.298-62.784,4.102-94.595,3.092c-11.451-0.364-23.694-2.341-35.858-1.237c-10.921,0.992-23.146,3.739-33.387,1.855
			c-4.655-0.856-8.673-3.74-13.602-4.328c-2.719-0.324-5.303,0.171-8.037,0c-7.21-0.451-13.614-2.927-21.021-4.328
			c-8.325-1.575-16.769,0.195-25.349-0.618c-12.872-1.22-25.537-4.337-38.332-3.709c-8.502-11.604-15.762-25.915-20.402-43.278
			c-6.824-25.533-1.225-61.249-2.473-89.648c-1.674-38.078,1.423-74.827,6.183-106.959c2.791-18.84,5.294-36.493,10.51-50.08
			c3.079-8.019,9.465-17.923,14.838-23.494c3.368-3.492,11.488-10.086,17.93-12.365c11.554-4.088,32.081-1.674,34.623,12.365
			c-5.861,3.749-11.352-2.329-19.166-0.618c-3.71,3.708-12.877,1.961-17.93,4.328c2.992,4.699,7.508,10.88,14.22,11.747
			c5.295,0.684,9.433-3.791,14.221-1.237c-4.168,7.154-7.664,20.273-1.237,27.822c5.028,0.037,5.343-7.4,8.038-11.747
			c2.407-3.884,5.879-4.915,6.801-8.038c1.454-4.928-2.054-10.243,3.091-10.51c3.254-0.169,5.795,9.834,6.183,13.602
			c1.643,15.961-8.023,43.153-19.166,52.552c-3.269,2.757-7.985,4.97-11.747,3.091c-1.485-4.659,2.622-8.22,2.474-12.983
			c-0.264-8.427-6.958-17.691-12.983-21.021c-4.566,7.416-5.775,19.259-8.656,26.585c-4.548,1.219-6.269-3.508-9.892-4.946
			c-5.53-2.194-11.399-0.602-17.312,1.854c3.223,9.223,6.758,18.66,16.074,21.64c2.913,0.932,7.102-0.824,9.274,2.473
			c-5.939,5.396-5.218,17.452-6.801,27.204c12.219,2.049,16.252-9.25,24.112-13.603c6.496,12.661,28.945,5.475,32.149-4.945
			c5.093,4.593,6.646,12.726,8.655,20.402c7.388-2.096,12.771-13.658,11.129-24.112c-1.289-8.206-9.664-8.845-12.365-14.838
			c5.88-1.382,11.738-5.919,9.274-13.602c-9.18-1.348-9.589,6.074-17.312,6.183c-5.849-4.913,0.18-12.114,2.473-17.312
			c2.598-5.888,3.906-13.024,7.419-17.311c7.278,2.741,10.916,13.174,9.893,20.402c11.588,0.459,9.708-12.549,13.602-19.784
			c14.904,0.062,21.995-11.917,25.967-24.73c-5.289-4.579-15.033-3.256-22.257-3.091c-4.783-7.682,0.436-18.611,3.091-24.73
			c61.232-8.426,97.022-42.292,106.96-102.013c3.146-3.727,13.578-5.226,12.983-10.511c-0.582-5.166-9.44-3.704-12.365-1.854
			c1.122-13.506-2.708-25.295-3.71-34.623c6.854,0.162,13.589-2.349,20.402-3.709c6.595-1.317,14.661-0.233,19.167-4.946
			c-3.57-4.88-11.513-5.387-16.693-8.656c-3.17,1.158-4.988,3.667-9.274,3.709c0.813-3.104,5.54-2.292,6.183-5.564
			c-6.268-1.9-10.039,2.827-14.838,4.328c1.545-4.432,6.555-5.398,10.511-7.419c-0.372-2.307-4.441-0.917-3.092-4.946
			c-4.333,1.508-7.53,7.211-12.365,6.183c3.081-4.589,13.016-5.473,10.511-13.602c-2.608-2.161-4.548,4.896-6.801,3.091
			c1.102-4.256,5.546-5.17,7.419-8.656c-0.039-7.117,2.277-10.754,0.618-17.311c-10.785,7.145-16.353,19.506-26.585,27.204
			C468.463,32.878,438.207,9.982,396.951,7.419z"/>
		<path fill-rule="evenodd" clip-rule="evenodd" fill="#FFFFFF" d="M482.271,65.536c-2.865,3.212-5.133,7.926-9.273,11.129
			c-2.492,1.927-8.427,5.631-11.747,4.946c-5.54-1.143-3.691-14.813-11.129-16.075c-5.935-1.007-6.144,6.116-12.365,5.564
			c-1.969-5.936,8.168-4.422,8.655-9.892c-5.459-3.402-10.957,3.321-16.074,4.328c-1.776-5.582,8.488-4.218,8.655-9.892
			c-5.829-2.461-9.369,5.791-14.22,4.328c2.126-3.85,4.863-7.089,9.892-8.037c-0.237-2.029-1.808-2.726-2.473-4.328
			c-4.693,2.313-8.502,5.513-13.602,7.419c-0.747-4.753,6.438-6.685,9.273-9.892c-0.327-0.498-0.645-1.004-0.618-1.855
			c-2.883-4.12-7.071,2.704-9.273,1.236c-1.144-2.431,3.48-3.751,4.327-6.183c-7.118-12.139-18.027,8.359-16.074,17.93
			c1.752,8.585,9.228,23.453,16.074,27.204c5.354,2.933,10.155-0.839,10.511,7.419c-2.754,2.519-5.529,0.144-8.655,0.619
			c-10.619,1.612-9.549,11.584-14.221,19.784c12.048,5.419,28.561,3.799,36.478-4.328c12.805,14.811,24.389,30.842,51.316,31.531
			c-10.082,54.63-42.683,86.74-98.922,95.212c-2.34,0.072-0.919-3.615-3.092-3.709c-2.567-0.301-0.97,3.564-3.091,3.709
			c-30.962,0.46-52.468-8.535-69.246-22.257c2.832,0.595,5.89-5.785,9.893-6.183c2.778-0.276,6.473,0.111,9.893-0.619
			c9.509-2.028,16.618-9.97,20.402-9.274c7.581,1.394,3.79,16.614,1.236,22.876c9.45,2.774,17.274-6.572,21.021-13.602
			c11.592,9.605,31.308,2.459,30.913-14.22c-6.643,3.423-17.89,1.317-19.784-6.801c5.209-5.813,9.117-9.75,9.274-19.166
			c0.103-6.199-1.737-13.067,1.854-17.311c-6.158-5.312-8.954,1.119-12.365,4.328c-1.602,1.507-4.357,1.842-5.564,3.091
			c-3.293,3.409-4.029,9.842-8.655,10.51c0.081-16.193-5.617-30.745-13.602-40.805c7.745-7.093,18.643-11.034,18.548-25.967
			c-4.448,3.284-11.855,2.181-17.93,3.709c-4.404,1.108-7.258,5.38-11.747,4.946c-1.613-11.989-8.498-18.706-14.839-25.967
			c-4.023,2.271-5.795,8.516-7.419,13.602c-1.242,3.891-0.684,8.36-1.854,12.365c-9.059-2.075-14.962,3.376-21.021,2.473
			c-5.092-0.759-7.586-6.874-14.22-5.564c-0.887,9.667,11.174,16.459,21.021,19.166c5.952,1.636,11.407-2.886,16.692,0
			c-0.979,5.813-9.508,6.377-16.074,11.747c-5.996,4.903-8.604,14.775-17.312,13.602c-5.217-0.703-5.982-6.079-9.274-9.892
			c-4.223-1.341-9.278-1.85-11.128-5.564c0.822-5.359,11.02-1.345,13.602-4.946c2.976-9.038-2.828-13.86-3.71-21.021
			c-7.549,0.488-7.624,8.451-9.892,14.22c-3.711-2.833-2.006-10.437-1.237-16.075c7.077-51.904,54.97-95.385,117.47-91.503
			C438.902,16.169,463.244,38.186,482.271,65.536z"/>
		<path fill-rule="evenodd" clip-rule="evenodd" fill="#FFFFFF" d="M510.094,35.859c1.292-0.262,1.637,0.423,2.473,0.618
			c0.096,1.538-0.972,1.914-1.236,3.091C509.75,39.5,510.103,37.499,510.094,35.859z"/>
		<path fill-rule="evenodd" clip-rule="evenodd" fill="#FFFFFF" d="M510.094,41.423c0.998-0.174,1.064,0.584,1.854,0.619
			c0.078,1.109-0.757,1.304-0.618,2.473C508.845,44.604,509.694,42.929,510.094,41.423z"/>
		<path fill-rule="evenodd" clip-rule="evenodd" fill="#FFFFFF" d="M509.475,46.988c0.999-0.174,1.064,0.584,1.855,0.618
			c-0.05,2.011-0.791,3.331-2.474,3.71C508.863,49.673,508.623,47.785,509.475,46.988z"/>
		<path fill-rule="evenodd" clip-rule="evenodd" fill="#FFFFFF" d="M451.358,78.519c1.099,7.75-11.348,5.063-13.602,7.419
			C437.466,81.319,447.707,79.228,451.358,78.519z"/>
		<path fill-rule="evenodd" clip-rule="evenodd" fill="#FFFFFF" d="M528.642,77.901c1.577,0.072,3.181,0.117,3.091,1.855
			C530.655,79.185,528.414,79.777,528.642,77.901z"/>
		<path fill-rule="evenodd" clip-rule="evenodd" fill="#FFFFFF" d="M537.915,82.229c-0.862,1.796-3.051-0.175-3.71-0.619
			C534.825,79.158,536.701,81.708,537.915,82.229z"/>
		<path fill-rule="evenodd" clip-rule="evenodd" fill="#FFFFFF" d="M494.019,91.503c2.076,6.992,3.965,14.17,4.328,22.875
			c-4.437,1.204-8.484,5.839-12.365,5.564c1.208-4.769,5.261-6.692,9.273-8.656c-0.475-1.999-1.711-3.235-3.709-3.709
			c-5.94,0.861-7.409,6.193-12.983,7.419c1.161-5.021,4.615-7.75,9.892-8.656c0-1.03,0-2.061,0-3.091
			c-7.613-4.83-11.076,7.635-17.312,6.183c0.96-5.222,7.774-4.591,9.893-8.655c-0.574-1.899-3.871-1.075-4.946-2.473
			C475.12,89.091,486.227,91.954,494.019,91.503z"/>
		<path fill-rule="evenodd" clip-rule="evenodd" fill="#FFFFFF" d="M468.67,98.304c-3.427,3.075-11.197,1.359-14.22,3.091
			C454.939,95.771,465.525,94.304,468.67,98.304z"/>
		<path fill-rule="evenodd" clip-rule="evenodd" fill="#FFFFFF" d="M420.445,99.54c0.824,0,1.648,0,2.473,0
			c0.287,1.936-0.537,2.76-2.473,2.473C420.445,101.189,420.445,100.365,420.445,99.54z"/>
		<path fill-rule="evenodd" clip-rule="evenodd" fill="#FFFFFF" d="M273.299,108.196c0.336,3.736,0.64,11.957-1.236,15.457
			c-5.293,2.435-15.807,0.979-21.021-0.618c1.778-5.435,6.352-8.075,12.984-8.656C266.451,111.966,267.36,105.07,273.299,108.196z"
			/>
		<path fill-rule="evenodd" clip-rule="evenodd" fill="#FFFFFF" d="M498.347,119.943c0.952,4.699-5.278,8.437-7.419,4.328
			C491.929,121.356,495.625,121.137,498.347,119.943z"/>
		<path fill-rule="evenodd" clip-rule="evenodd" fill="#FFFFFF" d="M251.66,134.163c4.283,2.312,10.28,2.91,12.983,6.801
			C262.128,155.033,248.099,148.73,251.66,134.163z"/>
		<path fill-rule="evenodd" clip-rule="evenodd" fill="#FFFFFF" d="M273.917,147.765c11.512,12.185-7.853,23.016-6.182,35.859
			c0.694,5.334,4.87,8.23,7.419,12.984c-3.34,10.114-8.241,19.486-11.748,29.676c-1.742,5.063-2.948,13.716-9.892,13.602
			c-1.977-6.644-2.279-14.656-1.236-22.257c0.41-2.986,2.375-5.711,2.473-8.656c0.079-2.368-1.289-4.595-1.236-6.801
			c0.145-6.038,5.254-11.285,2.473-17.311c6.875-11.26,5.318-30.953,17.311-37.096C273.505,147.765,273.711,147.765,273.917,147.765
			z"/>
		<path fill-rule="evenodd" clip-rule="evenodd" fill="#FFFFFF" d="M335.125,195.989c-0.742-8.737-5.078-13.881-7.419-21.021
			c-8.747,2.305-4.448,10.955-6.183,17.93c-1.52,6.112-14.926,9.758-19.166,4.946c-1.853-2.103-2.095-5.016-1.854-8.038
			c0.962-12.144,20.803-34.921,33.386-39.568c13.867-5.122,24.56,5.185,25.967,17.93c1.715,15.528-4.16,21.247-9.892,24.73
			C346.23,195.167,342.131,197.286,335.125,195.989z"/>
		<path fill-rule="evenodd" clip-rule="evenodd" fill="#FFFFFF" d="M300.503,156.42c-2.107,5.312-4.889,9.95-8.038,14.22
			c-3.287-3.101-3.079-9.698-6.183-12.983C290.989,155.796,297.465,149.643,300.503,156.42z"/>
		<path fill-rule="evenodd" clip-rule="evenodd" fill="#FFFFFF" d="M325.233,220.719c-2.651,2.166-7.315,0.66-11.129,1.237
			c-12.699,1.921-21.064,12.404-33.387,14.838c0.637-11.729,3.015-21.717,10.511-26.585
			C299.237,217.039,318.032,213.083,325.233,220.719z"/>
		<path fill-rule="evenodd" clip-rule="evenodd" fill="#FFFFFF" d="M358.619,236.794c7.524,0.104,17.009,3.597,27.203,3.091
			C378.341,244.189,362.467,244.433,358.619,236.794z"/>
		<path fill-rule="evenodd" clip-rule="evenodd" fill="#FFFFFF" d="M233.112,236.794c0.525-0.114,0.583,0.241,0.618,0.618
			c1.311,8.709,0.236,24.12-1.237,35.241c-0.628,4.741-1.625,14.056-6.801,13.602c-4.81-0.422-7.368-14.09-9.274-20.403
			c-3.11-10.3-8.454-20.522-3.709-27.822C218.916,240.732,228.515,241.722,233.112,236.794z"/>
		<path fill-rule="evenodd" clip-rule="evenodd" fill="#FFFFFF" d="M325.852,355.5c1.29-6.583,1.416-15.066,6.801-18.548
			c4.417-2.856,11.131-2.976,12.365,1.854C347.144,347.126,336.421,360.095,325.852,355.5z"/>
		<path fill-rule="evenodd" clip-rule="evenodd" fill="#FFFFFF" d="M234.967,459.987c-5.65-3.908-1.824-8.086-1.236-13.602
			c0.794-7.456,1.295-17.475,0.618-25.967c-0.786-9.854-2.911-19.313-2.473-27.822c0.538-0.905,0.926-1.96,2.473-1.854
			C250.913,402.412,254.82,449.234,234.967,459.987z"/>
		<path fill-rule="evenodd" clip-rule="evenodd" d="M485.981,60.59c10.232-7.697,15.8-20.059,26.585-27.204
			c1.659,6.557-0.657,10.194-0.618,17.311c-1.873,3.485-6.317,4.4-7.419,8.656c2.253,1.805,4.192-5.252,6.801-3.091
			c2.505,8.129-7.43,9.013-10.511,13.602c4.835,1.029,8.032-4.675,12.365-6.183c-1.35,4.029,2.72,2.639,3.092,4.946
			c-3.956,2.021-8.966,2.988-10.511,7.419c4.799-1.501,8.57-6.229,14.838-4.328c-0.643,3.273-5.37,2.461-6.183,5.564
			c4.286-0.042,6.104-2.551,9.274-3.709c5.181,3.269,13.123,3.776,16.693,8.656c-4.506,4.713-12.572,3.629-19.167,4.946
			c-6.813,1.361-13.549,3.871-20.402,3.709c1.002,9.328,4.832,21.117,3.71,34.623c2.925-1.85,11.783-3.311,12.365,1.854
			c0.595,5.285-9.838,6.784-12.983,10.511c-9.938,59.721-45.728,93.587-106.96,102.013c-2.655,6.119-7.874,17.049-3.091,24.73
			c7.224-0.165,16.968-1.488,22.257,3.091c-3.972,12.813-11.063,24.792-25.967,24.73c-3.894,7.235-2.014,20.243-13.602,19.784
			c1.023-7.229-2.614-17.662-9.893-20.402c-3.513,4.287-4.821,11.423-7.419,17.311c-2.293,5.198-8.321,12.398-2.473,17.312
			c7.723-0.109,8.132-7.53,17.312-6.183c2.464,7.683-3.395,12.22-9.274,13.602c2.701,5.993,11.076,6.632,12.365,14.838
			c1.643,10.454-3.741,22.017-11.129,24.112c-2.01-7.677-3.563-15.81-8.655-20.402c-3.204,10.42-25.653,17.606-32.149,4.945
			c-7.86,4.353-11.894,15.651-24.112,13.603c1.583-9.752,0.861-21.809,6.801-27.204c-2.173-3.297-6.361-1.541-9.274-2.473
			c-9.316-2.979-12.852-12.417-16.074-21.64c5.912-2.456,11.781-4.049,17.312-1.854c3.623,1.438,5.344,6.166,9.892,4.946
			c2.881-7.326,4.09-19.169,8.656-26.585c6.025,3.33,12.72,12.594,12.983,21.021c0.148,4.764-3.959,8.325-2.474,12.983
			c3.762,1.879,8.479-0.334,11.747-3.091c11.143-9.399,20.809-36.591,19.166-52.552c-0.388-3.768-2.929-13.771-6.183-13.602
			c-5.145,0.267-1.637,5.583-3.091,10.51c-0.922,3.123-4.394,4.154-6.801,8.038c-2.695,4.347-3.01,11.783-8.038,11.747
			c-6.427-7.548-2.931-20.668,1.237-27.822c-4.788-2.554-8.926,1.92-14.221,1.237c-6.712-0.867-11.228-7.048-14.22-11.747
			c5.053-2.366,14.22-0.619,17.93-4.328c7.814-1.71,13.305,4.367,19.166,0.618c-2.542-14.04-23.069-16.454-34.623-12.365
			c-6.441,2.279-14.562,8.873-17.93,12.365c-5.373,5.571-11.759,15.475-14.838,23.494c-5.216,13.586-7.72,31.24-10.51,50.08
			c-4.76,32.132-7.857,68.881-6.183,106.959c1.249,28.399-4.351,64.115,2.473,89.648c4.641,17.363,11.9,31.674,20.402,43.278
			c12.795-0.628,25.46,2.489,38.332,3.709c8.58,0.813,17.023-0.957,25.349,0.618c7.407,1.401,13.812,3.877,21.021,4.328
			c2.734,0.171,5.318-0.324,8.037,0c4.929,0.588,8.946,3.472,13.602,4.328c10.24,1.884,22.466-0.863,33.387-1.855
			c12.164-1.104,24.407,0.873,35.858,1.237c31.811,1.01,63.47-4.39,94.595-3.092c-4.186,10.623-29.187,8.757-46.37,9.893
			c-16.218,1.071-36.402-0.146-53.788,0.618c-19.446,0.854-44.032,2.731-63.063,0.618c-4.819-0.535-9.486-2.924-14.22-3.71
			c-25.065-4.161-51.566-4.818-75.428-7.419c-5.199-0.566-9.989-2.836-14.839,0c4.907,10.166,14.629,17.323,23.494,24.73
			c2.862,2.392,4.69,6.001,7.419,7.419c2.374,1.233,6.02,0.791,9.274,1.855c3.64,1.189,6.832,4.205,9.893,4.945
			c3.801,0.92,7.636-0.101,11.128,1.855c2.989,1.674,5.596,5.965,8.656,8.655c3.354,2.949,7.939,5.707,6.801,10.511
			c-7.447,0.846-13.42-5.762-21.64-6.801c-12.428-1.572-25.474,1.122-37.096-0.618c-11.717-1.755-19.158-6.296-27.821-10.511
			c-2.7-3.887-6.079-6.021-10.511-9.893c-2.701-2.359-7.611-9.122-11.128-7.419c-5.408,2.618-0.679,9.414,1.236,11.747
			c3.873,4.717,13.178,13.293,17.311,15.457c3.086,1.615,7.878,1.308,8.656,4.945c-7.642,3.73-17.492,0.724-26.585-1.854
			c-8.367-2.373-19.266-8.066-28.44-12.983c-4.868-2.608-12.715-9.2-16.075-7.419c-3.34,1.771-1.34,4.656-2.473,9.892
			c-3.503,16.196-24.089,8.905-40.187,6.801c-2.189-0.285-4.937,0.303-6.801,0c-2.612-0.424-4.847-2.033-7.419-2.473
			c-9.873-1.688-21.515-2.529-30.295-1.854c-8.768,0.673-15.81,5.122-24.112,6.801c-0.776-6.604,7.631-9.227,11.129-13.602
			c15.75-6.397,37.792-9.137,52.552-17.93c10.79-6.428,23.583-15.867,25.349-29.059c-30.087-3.414-79.434-5.72-120.561-4.328
			c-14.782,0.5-40.334,0.752-53.789-4.327c-3.274-1.236-10.561-3.332-9.274-8.038c2.872-3.5,6.657-0.749,10.51,0
			c9.732,1.894,21.062,1.367,32.15,1.855c31.887,1.401,68.247,0.374,99.54,2.473c14.9,0.999,29.565,0.615,44.515,3.091
			c7.383-8.674,6.494-22.535,9.892-35.858c2.035-7.979,7.498-15.679,9.274-23.494c1.432-6.302,0.687-15.909,1.237-24.112
			c0.757-11.301,1.886-24.179,2.473-37.096c1.131-24.903,3.139-52.328-0.619-71.101c-0.565-2.825-2.635-5.408-3.091-8.037
			c-2.214-12.774-1.199-21.529-5.564-30.913c-2.6-5.588-8.06-8.673-11.747-13.602c-4.15-5.548-6.399-10.554-14.22-14.22
			c-4.311-2.021-10.462-4.912-15.457-3.709c-2.4,4.406,1.171,8.342,0.618,12.983c-1.064,8.941-10.264,16.238-19.784,14.838
			c1.313-3.5,3.51-9.6-0.618-11.747c-9.014,1.106-18.982,12.145-24.112,0c7.126-0.629,17.551-2.403,16.075-13.602
			c-15.044,2.408-32.753,12.025-42.66,22.875c-6.05,6.626-14.164,19.911-6.801,29.677c8.198-1.721,11.49-13.633,24.112-12.983
			c2.255,8.217,2.075,18.233-3.091,22.876c-3.675,3.302-10.155,1.934-11.129,7.419c3.846,7.064,13.234,10.645,22.876,12.365
			c6.238,1.112,16.333,1.722,17.311-3.092c1.01-4.964-6.456-7.835-8.037-12.365c-2.731-7.824,2.643-12.498,5.564-19.784
			c4.74,2.098,4.101,7.619,8.037,10.511c4.158,3.054,9.886,3.601,12.983,8.037c7.617-4.139,17.862,1.312,26.585-0.618
			c4.583-1.014,6.713-5.325,11.129-5.564c1.178,9.314-4.52,16.841-10.511,21.021c-3.777,0.686-7.02-1.762-9.892,0
			c-0.716,9.665,9.744,13.274,16.075,17.93c3.49,0.192,4.333-2.261,8.038-1.854c3.676,15.395-21.105,25.487-26.585,11.129
			c-0.745-1.951-0.088-4.749-0.618-6.801c-1.327-5.136-5.454-9.242-6.801-12.983c-1.781,0.073-4.047-0.338-4.946,0.618
			c1.666,10.086,12.61,19.961,8.038,31.531c-1.023,2.588-4.066,2.686-6.183,4.946c-2.62,2.797-4.923,9.979-10.511,9.273
			c-2.597-6.928,2.293-17.942-6.183-22.876c-0.334-5.848-0.904-11.461-3.709-14.838c-5.06-0.204-9.888-2.412-13.602-1.236
			c-8.298,2.628-3.729,19.878-11.747,22.876c-5.519-3.26-8.234-9.249-7.419-16.075c0.417-3.49,4.514-6.177,4.328-8.655
			c-0.333-4.443-7.234-6.496-12.365-6.183c-3.141,5.999,2.334,11.552,0.618,18.548c-0.583,2.379-3.28,3.788-4.328,6.183
			c-1.608,3.672-0.628,8.688-4.328,9.892c-3.632-5.739-10.543-8.896-10.51-16.074c0.028-6.08,9.343-11.986,3.091-18.548
			c-3.423-0.333-5.351,0.831-7.419,1.854c-1.221,5.025-3.658,11.919-8.038,11.747c-7.347-14.06,2.234-23.536,11.129-28.44
			c0.177-7.999-5.078-15.06-5.564-22.876c-0.259-4.163,2.623-10.147-3.091-11.746c-5.477,3.588-14.703,12.364-22.876,5.563
			c0.545-4.051,5.1-3.533,7.419-6.801c1.263-1.778,1.154-4.482,2.473-6.182c1.485-1.916,7.417-4.051,8.037-6.801
			c0.954-4.23-4.872-7.375-5.564-11.747c-0.699-4.415,2.293-7.941,2.473-12.984c0.152-4.255-2.27-7.846-0.618-11.747
			c6.928,3.18,12.998,9.562,15.457,16.693c1.344,3.899,0.375,9.354,3.709,10.511c3.378,1.171,11.294-6.566,14.838-9.274
			c20.082-15.345,59.939-33.104,95.212-17.929c4.424,1.903,5.591,5.117,12.983,6.183c4.715-7.26,0.872-15.95-1.855-24.73
			c-7.418-23.887-19.066-55.079-32.149-71.718c-7.77-9.882-32.458-22.337-49.461-12.365c-8.49,4.979-14.199,17.221-12.365,29.676
			c1.816,12.334,13.659,27.058,27.204,24.112c-1.88-8.936-0.729-16.451-3.091-22.875c8.352,0.041,13.572,2.823,14.838,9.892
			c0.995,5.551-2.766,13.388,3.709,14.22c4.205,0.54,5.672-4.609,8.656-6.801c3.396-2.495,7.185-1.836,8.037-5.564
			c5.871,2.666,2.203,9.402,0,13.602c-5.364,1.024-9.909,2.868-11.747,7.419c4.121,13.437-7.801,25.71-19.784,22.876
			c5.843-6.111,6.271-15.375,2.473-24.112c-4.719-3.31-8.1-0.768-13.602-2.473c-7.999-2.479-11.532-12.05-17.311-11.747
			c-11.597,0.609,3.667,10.717,4.946,12.365c2.274,2.932,2.585,7.496,4.946,10.51c2.512,3.208,4.771,3.211,7.419,6.183
			c0.13,4.199-5.7,2.044-9.892,2.473c-8.342,0.855-14.958,3.599-17.93-4.328c-5.207,5.55-15.021,18.617-24.73,9.892
			c0.997-6.037,7.799-5.177,9.274-10.51c1.99-7.195-4.54-12.991-1.236-19.785c-1.465-5.489-10.625-8.864-11.747-16.075
			c-1.171-7.529,1.476-14.133,7.419-17.312c5.244,3.824,9.874,8.262,12.983,14.22c-0.041,4.162-0.572,8.815,2.473,9.892
			c5.483-0.287,6.965-4.575,9.892-7.419c-9.631-15.078-0.833-39.637,8.656-49.461c2.245-2.324,6.422-3.581,6.183-6.183
			c-0.355-3.856-5.783-3.277-8.038-4.328c-4.409-2.054-7.988-8.021-12.983-8.655c0.019-2.403-2.26-4.708-1.237-6.183
			c2.527-0.26,2.499,2.035,5.564,1.236c6.681-5.436,21.284-2.458,29.677-3.091c-1.053-6.282-0.264-14.831,1.854-21.639
			c8.537,4.996,13.415,14.024,11.129,26.585c12.763,1.776,17.671-9.486,27.204-12.984c2.05-3.739-1.455-5.499-1.237-9.273
			c8.301,6.896,26.062-2.981,30.295,7.419c-5.341,3.179-7.945,14.107-14.838,15.457c-7.978,1.561-10.009-4.802-15.457-8.656
			c-4.806,6.322-9.922,12.335-14.838,18.548c3.29,4.177,5.479,2.288,8.655,3.709c10.563,4.727,22.954,20.608,28.44,32.15
			c3,6.313,6.255,20.056,11.747,20.402c12.957,0.819-3.963-29.901,8.656-32.149c3.917,1.732,2.05,5.029,3.709,9.274
			c3.116,7.97,12.114,13.687,8.656,20.403c-1.421,2.761-4.608,1.416-6.801,4.328c0.166,8.074,9.04,10.053,16.075,9.274
			c3.464-31.326-4.081-62.25-19.784-78.52c-3.718,2.792-0.893,6.888-1.237,11.129c-0.943,11.647-13.856,27.536-23.494,16.693
			c1.278-1.813,4.51-1.673,4.946-4.328c-2.601-17.41,0.285-30.916,15.457-32.149c0.296-5.684-3.193-8.073-2.473-12.365
			c0.937-5.58,8.734-7.086,11.128-11.747c3.064,3.53,4.314,8.876,3.71,16.075c-2.167,3.303-6.016,3.696-6.183,7.419
			c-0.22,4.934,6.303,6.468,10.511,10.51c4.232,4.065,5.297,9.588,9.274,9.892c2.99-8.173,2.278-20.041,1.854-29.677
			c-0.125-2.849,0.039-7.86-0.618-10.51c-1.469-5.932-9.069-9.218-13.602-15.457c-1.006-1.385-1.342-3.801-2.473-5.564
			c-2.633-4.105-7.051-8.734-2.473-16.693c4.631,3.55,12.543,3.905,17.93,9.892c3.366,3.741,3.823,11.272,8.656,11.747
			c3.797,0.373,4.499-2.763,8.038-4.328c10.007-1.146,16.044,1.68,21.021,5.564c4.329-2.429,2.699-6.98,3.71-10.51
			c13.954-48.735,59.429-88.5,120.561-84.702C438.207,9.982,468.463,32.878,485.981,60.59z M397.569,13.602
			c-62.5-3.882-110.393,39.599-117.47,91.503c-0.769,5.638-2.474,13.242,1.237,16.075c2.268-5.769,2.343-13.732,9.892-14.22
			c0.882,7.161,6.686,11.982,3.71,21.021c-2.582,3.602-12.779-0.413-13.602,4.946c1.85,3.715,6.905,4.223,11.128,5.564
			c3.292,3.813,4.058,9.189,9.274,9.892c8.707,1.173,11.315-8.699,17.312-13.602c6.566-5.37,15.095-5.934,16.074-11.747
			c-5.285-2.886-10.74,1.636-16.692,0c-9.848-2.707-21.908-9.499-21.021-19.166c6.634-1.31,9.128,4.805,14.22,5.564
			c6.06,0.904,11.963-4.548,21.021-2.473c1.171-4.005,0.612-8.475,1.854-12.365c1.624-5.086,3.396-11.331,7.419-13.602
			c6.341,7.261,13.226,13.979,14.839,25.967c4.489,0.434,7.343-3.838,11.747-4.946c6.074-1.529,13.481-0.425,17.93-3.709
			c0.095,14.933-10.803,18.874-18.548,25.967c7.984,10.061,13.683,24.612,13.602,40.805c4.626-0.668,5.362-7.101,8.655-10.51
			c1.207-1.249,3.963-1.584,5.564-3.091c3.411-3.209,6.207-9.639,12.365-4.328c-3.592,4.244-1.752,11.112-1.854,17.311
			c-0.157,9.417-4.065,13.353-9.274,19.166c1.895,8.119,13.142,10.225,19.784,6.801c0.395,16.679-19.321,23.825-30.913,14.22
			c-3.746,7.03-11.57,16.376-21.021,13.602c2.554-6.262,6.345-21.482-1.236-22.876c-3.784-0.696-10.894,7.246-20.402,9.274
			c-3.42,0.729-7.114,0.342-9.893,0.619c-4.003,0.397-7.061,6.778-9.893,6.183c16.778,13.723,38.284,22.717,69.246,22.257
			c2.121-0.146,0.523-4.01,3.091-3.709c2.173,0.094,0.752,3.782,3.092,3.709c56.239-8.472,88.84-40.582,98.922-95.212
			c-26.928-0.689-38.512-16.72-51.316-31.531c-7.917,8.127-24.43,9.747-36.478,4.328c4.672-8.2,3.602-18.172,14.221-19.784
			c3.126-0.475,5.901,1.9,8.655-0.619c-0.355-8.258-5.156-4.486-10.511-7.419c-6.847-3.751-14.322-18.618-16.074-27.204
			c-1.953-9.571,8.956-30.069,16.074-17.93c-0.847,2.432-5.471,3.751-4.327,6.183c2.202,1.468,6.391-5.356,9.273-1.236
			c-0.026,0.851,0.291,1.357,0.618,1.855c-2.836,3.208-10.021,5.139-9.273,9.892c5.1-1.907,8.908-5.106,13.602-7.419
			c0.665,1.602,2.235,2.299,2.473,4.328c-5.028,0.948-7.766,4.187-9.892,8.037c4.851,1.463,8.391-6.789,14.22-4.328
			c-0.167,5.674-10.432,4.31-8.655,9.892c5.117-1.006,10.615-7.729,16.074-4.328c-0.487,5.47-10.624,3.957-8.655,9.892
			c6.222,0.552,6.431-6.571,12.365-5.564c7.438,1.262,5.589,14.932,11.129,16.075c3.32,0.686,9.255-3.019,11.747-4.946
			c4.141-3.203,6.408-7.917,9.273-11.129C463.244,38.186,438.902,16.169,397.569,13.602z M511.33,39.569
			c0.265-1.178,1.332-1.553,1.236-3.091c-0.836-0.195-1.181-0.88-2.473-0.618C510.103,37.499,509.75,39.5,511.33,39.569z
			 M511.33,44.515c-0.139-1.169,0.696-1.364,0.618-2.473c-0.79-0.034-0.856-0.792-1.854-0.619
			C509.694,42.929,508.845,44.604,511.33,44.515z M508.856,51.316c1.683-0.379,2.424-1.699,2.474-3.71
			c-0.791-0.034-0.856-0.792-1.855-0.618C508.623,47.785,508.863,49.673,508.856,51.316z M437.757,85.938
			c2.254-2.357,14.7,0.331,13.602-7.419C447.707,79.228,437.466,81.319,437.757,85.938z M531.732,79.756
			c0.09-1.738-1.514-1.783-3.091-1.855C528.414,79.777,530.655,79.185,531.732,79.756z M534.205,81.61
			c0.659,0.444,2.848,2.415,3.71,0.619C536.701,81.708,534.825,79.158,534.205,81.61z M476.089,98.304
			c1.075,1.398,4.372,0.574,4.946,2.473c-2.118,4.064-8.933,3.433-9.893,8.655c6.235,1.452,9.698-11.012,17.312-6.183
			c0,1.031,0,2.061,0,3.091c-5.276,0.906-8.73,3.635-9.892,8.656c5.574-1.226,7.043-6.558,12.983-7.419
			c1.998,0.474,3.234,1.711,3.709,3.709c-4.013,1.964-8.065,3.887-9.273,8.656c3.881,0.275,7.929-4.361,12.365-5.564
			c-0.363-8.705-2.252-15.884-4.328-22.875C486.227,91.954,475.12,89.091,476.089,98.304z M454.45,101.395
			c3.022-1.732,10.793-0.016,14.22-3.091C465.525,94.304,454.939,95.771,454.45,101.395z M420.445,102.013
			c1.936,0.287,2.76-0.538,2.473-2.473c-0.824,0-1.648,0-2.473,0C420.445,100.365,420.445,101.189,420.445,102.013z
			 M264.025,114.378c-6.632,0.581-11.206,3.221-12.984,8.656c5.214,1.598,15.728,3.053,21.021,0.618
			c1.876-3.5,1.572-11.721,1.236-15.457C267.36,105.07,266.451,111.966,264.025,114.378z M490.928,124.271
			c2.141,4.109,8.371,0.372,7.419-4.328C495.625,121.137,491.929,121.356,490.928,124.271z M264.644,140.964
			c-2.703-3.892-8.7-4.49-12.983-6.801C248.099,148.73,262.128,155.033,264.644,140.964z M273.299,147.765
			c-11.993,6.143-10.436,25.835-17.311,37.096c2.781,6.026-2.329,11.273-2.473,17.311c-0.053,2.206,1.315,4.434,1.236,6.801
			c-0.098,2.945-2.063,5.67-2.473,8.656c-1.043,7.602-0.74,15.614,1.236,22.257c6.944,0.114,8.15-8.54,9.892-13.602
			c3.507-10.19,8.408-19.563,11.748-29.676c-2.55-4.754-6.726-7.649-7.419-12.984c-1.67-12.843,17.694-23.674,6.182-35.859
			C273.711,147.765,273.505,147.765,273.299,147.765z M349.964,192.898c5.731-3.483,11.606-9.203,9.892-24.73
			c-1.407-12.745-12.1-23.052-25.967-17.93c-12.583,4.647-32.424,27.425-33.386,39.568c-0.24,3.021,0.002,5.935,1.854,8.038
			c4.24,4.813,17.646,1.167,19.166-4.946c1.734-6.975-2.564-15.625,6.183-17.93c2.341,7.139,6.677,12.283,7.419,21.021
			C342.131,197.286,346.23,195.167,349.964,192.898z M286.282,157.657c3.104,3.285,2.896,9.883,6.183,12.983
			c3.149-4.27,5.931-8.908,8.038-14.22C297.465,149.643,290.989,155.796,286.282,157.657z M291.229,210.209
			c-7.496,4.869-9.874,14.857-10.511,26.585c12.322-2.435,20.688-12.917,33.387-14.838c3.813-0.577,8.478,0.929,11.129-1.237
			C318.032,213.083,299.237,217.039,291.229,210.209z M385.822,239.886c-10.194,0.506-19.679-2.988-27.203-3.091
			C362.467,244.433,378.341,244.189,385.822,239.886z M212.709,238.031c-4.744,7.299,0.599,17.522,3.709,27.822
			c1.906,6.313,4.464,19.981,9.274,20.403c5.176,0.454,6.173-8.861,6.801-13.602c1.473-11.121,2.548-26.531,1.237-35.241
			c-0.035-0.377-0.093-0.732-0.618-0.618C228.515,241.722,218.916,240.732,212.709,238.031z M345.018,338.807
			c-1.234-4.83-7.948-4.711-12.365-1.854c-5.385,3.481-5.511,11.965-6.801,18.548C336.421,360.095,347.144,347.126,345.018,338.807z
			 M234.349,390.742c-1.547-0.105-1.936,0.949-2.473,1.854c-0.438,8.51,1.687,17.969,2.473,27.822
			c0.677,8.492,0.176,18.511-0.618,25.967c-0.588,5.516-4.414,9.693,1.236,13.602C254.82,449.234,250.913,402.412,234.349,390.742z"
			/>
	</g>
</g>
</svg>
